<svg width="463" height="303" viewBox="0 0 463 303" fill="none" xmlns="http://www.w3.org/2000/svg">
<g clip-path="url(#clip0)">
<path d="M426.207 191.766C426.207 191.766 408.945 190.815 410.978 201.867C410.978 201.867 410.57 203.818 412.514 204.706C412.514 204.706 412.542 203.889 414.286 204.165C414.904 204.26 415.533 204.288 416.159 204.247C417.006 204.195 417.811 203.891 418.45 203.381C418.45 203.381 423.304 201.55 425.191 194.306C425.191 194.306 426.587 192.725 426.53 192.318L423.619 193.437C423.619 193.437 424.615 195.358 423.831 196.955C423.831 196.955 423.737 193.508 423.178 193.597C423.063 193.597 421.663 194.261 421.663 194.261C421.663 194.261 423.378 197.618 422.071 200.036C422.071 200.036 422.561 195.932 421.116 194.504L419.075 195.597C419.075 195.597 421.075 199.051 419.72 201.871C419.72 201.871 420.067 197.548 418.642 195.862L416.784 197.186C416.784 197.186 418.666 200.591 417.519 202.93C417.519 202.93 417.368 197.898 416.38 197.518C416.38 197.518 414.747 198.827 414.51 199.364C414.51 199.364 415.796 201.833 414.996 203.139C414.996 203.139 414.506 199.782 414.106 199.782C414.106 199.782 412.473 202.02 412.318 203.512C412.318 203.512 412.387 201.248 413.714 199.554C412.78 199.716 411.918 200.125 411.236 200.729C411.236 200.729 411.485 199.159 414.094 199.021C414.094 199.021 415.433 197.335 415.788 197.234C415.788 197.234 413.175 197.033 411.591 197.674C411.591 197.674 412.987 196.182 416.27 196.865L418.103 195.5C418.103 195.5 414.661 195.067 413.204 195.545C413.204 195.545 414.882 194.232 418.597 195.172L420.593 194.082C420.593 194.082 417.662 193.504 415.915 193.709C415.915 193.709 417.756 192.799 421.181 193.784L422.606 193.198C422.606 193.198 420.459 192.825 419.83 192.754C419.201 192.684 419.164 192.534 419.164 192.534C420.526 192.327 421.924 192.469 423.202 192.945C423.202 192.945 426.256 191.941 426.207 191.766Z" fill="#FFD37E"/>
<path d="M65.2692 219.158C65.2692 219.158 83.4626 218.2 81.3197 229.34C81.3197 229.34 81.75 231.307 79.7017 232.202C79.7017 232.202 79.6716 231.378 77.8342 231.656C77.1819 231.753 76.5189 231.78 75.8591 231.739C74.9669 231.687 74.1189 231.381 73.445 230.867C73.445 230.867 68.3287 229.021 66.3406 221.719C66.3406 221.719 64.869 220.125 64.9292 219.715L67.9973 220.843C67.9973 220.843 66.9473 222.779 67.7735 224.388C67.7735 224.388 67.8725 220.914 68.462 221.005C68.5825 221.005 70.0585 221.674 70.0585 221.674C70.0585 221.674 68.2512 225.058 69.6282 227.494C69.6282 227.494 69.1118 223.358 70.6351 221.918L72.7866 223.02C72.7866 223.02 70.6781 226.502 72.1068 229.344C72.1068 229.344 71.741 224.986 73.2428 223.287L75.2007 224.622C75.2007 224.622 73.217 228.054 74.4261 230.412C74.4261 230.412 74.5853 225.34 75.6267 224.956C75.6267 224.956 77.3479 226.276 77.5975 226.817C77.5975 226.817 76.242 229.307 77.0854 230.622C77.0854 230.622 77.6018 227.239 78.0235 227.239C78.0235 227.239 79.7448 229.495 79.9083 230.998C79.9083 230.998 79.8351 228.716 78.4366 227.009C79.421 227.172 80.3291 227.584 81.0486 228.194C81.0486 228.194 80.7861 226.611 78.0364 226.472C78.0364 226.472 76.625 224.772 76.2507 224.67C76.2507 224.67 79.0046 224.467 80.6742 225.114C80.6742 225.114 79.2026 223.61 75.7429 224.298L73.8108 222.922C73.8108 222.922 77.4383 222.486 78.9745 222.967C78.9745 222.967 77.2059 221.644 73.2901 222.591L71.1859 221.493C71.1859 221.493 74.2755 220.911 76.1172 221.117C76.1172 221.117 74.1765 220.2 70.5662 221.193L69.0645 220.602C69.0645 220.602 71.3279 220.226 71.9906 220.155C72.6533 220.083 72.692 219.933 72.692 219.933C71.2569 219.724 69.7836 219.867 68.4362 220.347C68.4362 220.347 65.2175 219.335 65.2692 219.158Z" fill="#FFD37E"/>
<path opacity="0.1" d="M414.318 207.555C421.065 207.555 426.534 206.71 426.534 205.668C426.534 204.625 421.065 203.78 414.318 203.78C407.572 203.78 402.103 204.625 402.103 205.668C402.103 206.71 407.572 207.555 414.318 207.555Z" fill="#FFD37E"/>
<path opacity="0.1" d="M77.913 235.152C70.7413 235.152 64.9275 234.303 64.9275 233.255C64.9275 232.208 70.7413 231.359 77.913 231.359C85.0846 231.359 90.8984 232.208 90.8984 233.255C90.8984 234.303 85.0846 235.152 77.913 235.152Z" fill="#FFD37E"/>
<path opacity="0.1" d="M242.417 233.906C246.221 233.906 249.305 233.43 249.305 232.843C249.305 232.256 246.221 231.78 242.417 231.78C238.613 231.78 235.53 232.256 235.53 232.843C235.53 233.43 238.613 233.906 242.417 233.906Z" fill="#FFD37E"/>
<path opacity="0.1" d="M323.742 196.803C331.161 196.803 337.175 195.953 337.175 194.906C337.175 193.859 331.161 193.01 323.742 193.01C316.323 193.01 310.309 193.859 310.309 194.906C310.309 195.953 316.323 196.803 323.742 196.803Z" fill="#FFD37E"/>
<path d="M284.152 211.988C284.152 211.988 296.912 211.34 295.409 218.882C295.486 219.265 295.418 219.659 295.214 220.008C295.011 220.357 294.681 220.642 294.274 220.823C294.274 220.823 294.252 220.262 292.944 220.449C292.485 220.515 292.02 220.534 291.556 220.505C290.931 220.469 290.336 220.261 289.863 219.914C289.863 219.914 286.276 218.665 284.879 213.72C284.879 213.72 283.851 212.638 283.891 212.362L286.041 213.136C286.041 213.136 285.309 214.449 285.886 215.538C285.886 215.538 285.957 213.185 286.369 213.241C286.453 213.241 287.486 213.693 287.486 213.693C287.486 213.693 286.223 215.979 287.176 217.636C287.176 217.636 286.817 214.823 287.885 213.862L289.397 214.61C289.397 214.61 287.921 216.97 288.923 218.893C288.923 218.893 288.665 215.942 289.716 214.778L291.091 215.68C291.091 215.68 289.703 218.007 290.55 219.6C290.55 219.6 290.661 216.166 291.388 215.904C291.388 215.904 292.589 216.798 292.775 217.169C292.775 217.169 291.822 218.856 292.412 219.746C292.412 219.746 292.775 217.457 293.072 217.445C293.072 217.445 294.269 218.942 294.402 220C294.343 219.04 293.986 218.109 293.369 217.3C294.06 217.411 294.698 217.689 295.205 218.1C295.205 218.1 295.019 217.03 293.077 216.937C293.077 216.937 292.084 215.784 291.822 215.713C291.822 215.713 293.751 215.579 294.925 216.016C294.925 216.016 293.892 215.006 291.467 215.467L290.111 214.531C290.111 214.531 292.656 214.236 293.733 214.561C293.733 214.561 292.491 213.667 289.743 214.318L288.266 213.57C288.266 213.57 290.434 213.177 291.725 213.319C291.725 213.319 290.363 212.698 287.832 213.372L286.777 212.971C286.777 212.971 288.364 212.706 288.83 212.665C289.295 212.623 289.322 212.515 289.322 212.515C288.315 212.374 287.283 212.471 286.338 212.796C286.338 212.796 284.099 212.107 284.152 211.988Z" fill="#FFD37E"/>
<path opacity="0.1" d="M292.845 222.93C287.899 222.93 283.89 222.27 283.89 221.455C283.89 220.641 287.899 219.98 292.845 219.98C297.791 219.98 301.801 220.641 301.801 221.455C301.801 222.27 297.791 222.93 292.845 222.93Z" fill="#FFD37E"/>
<path d="M296.357 32.3315H246.338V23.6248C246.338 23.0725 246.066 22.5428 245.58 22.1522C245.095 21.7617 244.437 21.5422 243.751 21.5422H229.063V12.2679C229.063 11.9202 228.891 11.5868 228.585 11.3409C228.28 11.095 227.866 10.9569 227.434 10.9569H208.513C208.081 10.9569 207.667 11.095 207.362 11.3409C207.056 11.5868 206.884 11.9202 206.884 12.2679V21.5454H189.617C188.93 21.5454 188.272 21.7648 187.787 22.1554C187.302 22.5459 187.029 23.0756 187.029 23.628V32.3346H139.333C139.194 32.3354 139.061 32.3804 138.963 32.4597C138.865 32.539 138.811 32.6462 138.811 32.758V148.337C138.811 148.449 138.865 148.556 138.963 148.636C139.061 148.715 139.194 148.76 139.333 148.761H171.031C171.171 148.761 171.305 148.716 171.403 148.637C171.502 148.557 171.558 148.45 171.558 148.337V132.787C171.559 132.675 171.614 132.568 171.713 132.489C171.811 132.409 171.944 132.365 172.084 132.364H185.474C185.613 132.365 185.746 132.409 185.845 132.489C185.943 132.568 185.999 132.675 186 132.787V148.337C186 148.449 186.055 148.556 186.153 148.636C186.251 148.715 186.383 148.76 186.522 148.761H249.16C249.299 148.76 249.432 148.715 249.531 148.636C249.629 148.557 249.685 148.449 249.686 148.337V132.787C249.686 132.675 249.741 132.568 249.839 132.489C249.936 132.41 250.069 132.365 250.208 132.364H263.598C263.738 132.364 263.872 132.408 263.97 132.488C264.069 132.567 264.124 132.675 264.124 132.787V148.337C264.125 148.449 264.181 148.557 264.28 148.636C264.378 148.715 264.511 148.76 264.651 148.761H296.349C296.488 148.76 296.622 148.715 296.72 148.636C296.819 148.557 296.874 148.449 296.875 148.337V32.7549C296.874 32.6439 296.82 32.5376 296.723 32.4585C296.626 32.3795 296.495 32.3339 296.357 32.3315ZM165.883 126.963C165.883 127.074 165.828 127.181 165.73 127.26C165.633 127.339 165.5 127.383 165.361 127.383H145.782C145.713 127.384 145.645 127.373 145.581 127.352C145.518 127.331 145.46 127.3 145.411 127.261C145.362 127.222 145.323 127.176 145.296 127.124C145.27 127.073 145.256 127.018 145.256 126.963V121.596C145.256 121.541 145.27 121.486 145.296 121.434C145.323 121.383 145.362 121.336 145.41 121.297C145.459 121.258 145.517 121.227 145.581 121.205C145.645 121.184 145.713 121.173 145.782 121.173H165.373C165.512 121.174 165.645 121.219 165.742 121.298C165.84 121.377 165.895 121.485 165.895 121.596L165.883 126.963ZM165.883 113.056C165.884 113.112 165.871 113.166 165.845 113.218C165.819 113.269 165.78 113.316 165.732 113.355C165.683 113.395 165.626 113.426 165.562 113.447C165.498 113.468 165.43 113.479 165.361 113.479H145.782C145.713 113.48 145.645 113.469 145.58 113.448C145.516 113.427 145.458 113.396 145.409 113.356C145.36 113.317 145.322 113.27 145.295 113.219C145.269 113.167 145.256 113.112 145.256 113.056V107.677C145.256 107.621 145.269 107.566 145.295 107.515C145.322 107.463 145.36 107.416 145.409 107.377C145.458 107.337 145.516 107.306 145.58 107.285C145.645 107.264 145.713 107.253 145.782 107.254H165.373C165.442 107.254 165.51 107.265 165.574 107.286C165.637 107.307 165.695 107.339 165.744 107.378C165.792 107.417 165.83 107.464 165.856 107.515C165.883 107.567 165.896 107.622 165.895 107.677L165.883 113.056ZM165.883 99.1524C165.883 99.2642 165.829 99.3714 165.731 99.4507C165.633 99.53 165.5 99.575 165.361 99.5758H145.782C145.713 99.5758 145.645 99.5648 145.581 99.5436C145.517 99.5223 145.459 99.4911 145.41 99.4518C145.362 99.4125 145.323 99.3658 145.296 99.3144C145.27 99.2631 145.256 99.208 145.256 99.1524V93.7703C145.256 93.7147 145.27 93.6597 145.296 93.6083C145.323 93.5569 145.362 93.5102 145.41 93.4709C145.459 93.4316 145.517 93.4004 145.581 93.3792C145.645 93.3579 145.713 93.3469 145.782 93.3469H165.373C165.512 93.3477 165.645 93.3927 165.742 93.472C165.84 93.5514 165.895 93.6586 165.895 93.7703L165.883 99.1524ZM165.883 85.2456C165.884 85.3011 165.871 85.3561 165.845 85.4074C165.819 85.4588 165.78 85.5055 165.732 85.5448C165.683 85.5842 165.626 85.6154 165.562 85.6367C165.498 85.6581 165.43 85.669 165.361 85.669H145.782C145.713 85.6694 145.645 85.6588 145.58 85.6376C145.516 85.6165 145.458 85.5853 145.409 85.5459C145.36 85.5065 145.322 85.4597 145.295 85.4081C145.269 85.3566 145.256 85.3013 145.256 85.2456V79.8824C145.256 79.8266 145.269 79.7714 145.295 79.7198C145.322 79.6683 145.36 79.6214 145.409 79.582C145.458 79.5426 145.516 79.5115 145.58 79.4903C145.645 79.4692 145.713 79.4585 145.782 79.459H165.373C165.442 79.459 165.51 79.4699 165.574 79.4912C165.637 79.5126 165.695 79.5438 165.744 79.5832C165.792 79.6225 165.83 79.6692 165.856 79.7206C165.883 79.7719 165.896 79.8269 165.895 79.8824L165.883 85.2456ZM165.883 71.342C165.883 71.4537 165.829 71.5609 165.731 71.6403C165.633 71.7196 165.5 71.7645 165.361 71.7654H145.782C145.713 71.7654 145.645 71.7544 145.581 71.7331C145.517 71.7119 145.459 71.6807 145.41 71.6414C145.362 71.602 145.323 71.5554 145.296 71.504C145.27 71.4526 145.256 71.3976 145.256 71.342V65.9599C145.256 65.9044 145.27 65.8495 145.296 65.7983C145.323 65.7471 145.362 65.7007 145.411 65.6616C145.46 65.6225 145.518 65.5916 145.581 65.5707C145.645 65.5498 145.713 65.5392 145.782 65.5396H165.373C165.511 65.5396 165.644 65.5839 165.742 65.6627C165.84 65.7415 165.895 65.8484 165.895 65.9599L165.883 71.342ZM165.883 57.4383C165.883 57.5498 165.828 57.6567 165.73 57.7355C165.633 57.8143 165.5 57.8586 165.361 57.8586H145.782C145.713 57.859 145.645 57.8484 145.581 57.8275C145.518 57.8066 145.46 57.7757 145.411 57.7366C145.362 57.6975 145.323 57.6511 145.296 57.5999C145.27 57.5487 145.256 57.4938 145.256 57.4383V52.0563C145.256 52.0006 145.27 51.9456 145.296 51.8942C145.323 51.8428 145.362 51.7962 145.41 51.7569C145.459 51.7175 145.517 51.6864 145.581 51.6651C145.645 51.6438 145.713 51.6328 145.782 51.6328H165.373C165.512 51.6337 165.645 51.6786 165.742 51.758C165.84 51.8373 165.895 51.9445 165.895 52.0563L165.883 57.4383ZM165.883 43.5315C165.884 43.587 165.871 43.642 165.845 43.6933C165.819 43.7447 165.78 43.7914 165.732 43.8307C165.683 43.8701 165.626 43.9013 165.562 43.9226C165.498 43.944 165.43 43.9549 165.361 43.9549H145.782C145.713 43.9554 145.645 43.9447 145.58 43.9236C145.516 43.9024 145.458 43.8713 145.409 43.8319C145.36 43.7925 145.322 43.7456 145.295 43.6941C145.269 43.6425 145.256 43.5872 145.256 43.5315V38.1683C145.256 38.1126 145.269 38.0573 145.295 38.0058C145.322 37.9542 145.36 37.9074 145.409 37.868C145.458 37.8286 145.516 37.7974 145.58 37.7763C145.645 37.7551 145.713 37.7445 145.782 37.7449H165.373C165.442 37.7449 165.51 37.7558 165.574 37.7772C165.637 37.7985 165.695 37.8297 165.744 37.8691C165.792 37.9084 165.83 37.9551 165.856 38.0065C165.883 38.0578 165.896 38.1128 165.895 38.1683L165.883 43.5315ZM212.301 126.96C212.301 127.015 212.288 127.07 212.261 127.121C212.235 127.172 212.196 127.219 212.147 127.258C212.098 127.297 212.04 127.328 211.976 127.349C211.912 127.37 211.844 127.38 211.775 127.38H192.196C192.058 127.38 191.924 127.336 191.826 127.257C191.727 127.178 191.671 127.071 191.67 126.96V121.596C191.671 121.484 191.727 121.377 191.826 121.298C191.924 121.219 192.057 121.174 192.196 121.173H211.775C211.844 121.173 211.913 121.184 211.977 121.205C212.04 121.227 212.098 121.258 212.147 121.297C212.196 121.336 212.235 121.383 212.261 121.434C212.288 121.486 212.301 121.541 212.301 121.596V126.96ZM212.301 113.053C212.302 113.109 212.289 113.164 212.262 113.215C212.236 113.267 212.197 113.314 212.148 113.353C212.099 113.393 212.041 113.424 211.977 113.445C211.913 113.466 211.844 113.477 211.775 113.476H192.196C192.057 113.476 191.923 113.432 191.824 113.352C191.726 113.273 191.67 113.165 191.67 113.053V107.677C191.67 107.565 191.726 107.457 191.824 107.378C191.923 107.298 192.057 107.254 192.196 107.254H211.775C211.844 107.253 211.913 107.264 211.977 107.285C212.041 107.306 212.099 107.337 212.148 107.377C212.197 107.416 212.236 107.463 212.262 107.515C212.289 107.566 212.302 107.621 212.301 107.677V113.053ZM212.301 99.1493C212.301 99.2049 212.288 99.2599 212.261 99.3113C212.235 99.3627 212.196 99.4093 212.147 99.4487C212.098 99.488 212.04 99.5192 211.977 99.5404C211.913 99.5617 211.844 99.5727 211.775 99.5727H192.196C192.057 99.5718 191.924 99.527 191.826 99.4478C191.727 99.3685 191.671 99.2613 191.67 99.1493V93.7703C191.671 93.6583 191.727 93.5511 191.826 93.4718C191.924 93.3926 192.057 93.3477 192.196 93.3469H211.775C211.844 93.3469 211.913 93.3579 211.977 93.3792C212.04 93.4004 212.098 93.4316 212.147 93.4709C212.196 93.5102 212.235 93.5569 212.261 93.6083C212.288 93.6597 212.301 93.7147 212.301 93.7703V99.1493ZM212.301 85.2425C212.302 85.2982 212.289 85.3534 212.262 85.405C212.236 85.4566 212.197 85.5034 212.148 85.5428C212.099 85.5822 212.041 85.6134 211.977 85.6345C211.913 85.6556 211.844 85.6663 211.775 85.6659H192.196C192.057 85.6659 191.923 85.6213 191.824 85.5419C191.726 85.4625 191.67 85.3548 191.67 85.2425V79.8824C191.67 79.7701 191.726 79.6624 191.824 79.583C191.923 79.5036 192.057 79.459 192.196 79.459H211.775C211.844 79.4585 211.913 79.4692 211.977 79.4903C212.041 79.5115 212.099 79.5426 212.148 79.582C212.197 79.6214 212.236 79.6683 212.262 79.7198C212.289 79.7714 212.302 79.8266 212.301 79.8824V85.2425ZM212.301 71.3388C212.301 71.3944 212.288 71.4495 212.261 71.5009C212.235 71.5522 212.196 71.5989 212.147 71.6382C212.098 71.6775 212.04 71.7087 211.977 71.73C211.913 71.7513 211.844 71.7622 211.775 71.7622H192.196C192.057 71.7614 191.924 71.7165 191.826 71.6373C191.727 71.5581 191.671 71.4509 191.67 71.3388V65.9599C191.671 65.8481 191.727 65.7413 191.826 65.6625C191.924 65.5838 192.058 65.5396 192.196 65.5396H211.775C211.844 65.5392 211.912 65.5498 211.976 65.5707C212.04 65.5916 212.098 65.6225 212.147 65.6616C212.196 65.7007 212.235 65.7471 212.261 65.7983C212.288 65.8495 212.301 65.9044 212.301 65.9599V71.3388ZM212.301 57.4352C212.301 57.4906 212.288 57.5455 212.261 57.5967C212.235 57.6479 212.196 57.6944 212.147 57.7335C212.098 57.7725 212.04 57.8034 211.976 57.8244C211.912 57.8453 211.844 57.8559 211.775 57.8554H192.196C192.058 57.8554 191.924 57.8113 191.826 57.7326C191.727 57.6538 191.671 57.5469 191.67 57.4352V52.0563C191.671 51.9442 191.727 51.837 191.826 51.7578C191.924 51.6785 192.057 51.6337 192.196 51.6328H211.775C211.844 51.6328 211.913 51.6438 211.977 51.6651C212.04 51.6864 212.098 51.7175 212.147 51.7569C212.196 51.7962 212.235 51.8428 212.261 51.8942C212.288 51.9456 212.301 52.0006 212.301 52.0563V57.4352ZM212.301 43.5284C212.302 43.5841 212.289 43.6394 212.262 43.6909C212.236 43.7425 212.197 43.7893 212.148 43.8287C212.099 43.8681 212.041 43.8993 211.977 43.9204C211.913 43.9416 211.844 43.9522 211.775 43.9518H192.196C192.057 43.9518 191.923 43.9072 191.824 43.8278C191.726 43.7484 191.67 43.6407 191.67 43.5284V38.1683C191.67 38.056 191.726 37.9483 191.824 37.8689C191.923 37.7895 192.057 37.7449 192.196 37.7449H211.775C211.844 37.7445 211.913 37.7551 211.977 37.7763C212.041 37.7974 212.099 37.8286 212.148 37.868C212.197 37.9074 212.236 37.9542 212.262 38.0058C212.289 38.0573 212.302 38.1126 212.301 38.1683V43.5284ZM244.019 126.957C244.02 127.012 244.006 127.067 243.979 127.118C243.953 127.169 243.914 127.216 243.865 127.255C243.816 127.294 243.758 127.325 243.694 127.346C243.631 127.367 243.562 127.377 243.493 127.377H223.915C223.776 127.377 223.642 127.333 223.544 127.254C223.445 127.175 223.389 127.068 223.388 126.957V121.596C223.389 121.484 223.445 121.377 223.544 121.298C223.642 121.219 223.775 121.174 223.915 121.173H243.493C243.633 121.173 243.767 121.218 243.865 121.297C243.964 121.376 244.019 121.484 244.019 121.596V126.957ZM244.019 113.05C244.02 113.105 244.007 113.161 243.981 113.212C243.954 113.264 243.916 113.311 243.867 113.35C243.818 113.39 243.759 113.421 243.695 113.442C243.631 113.463 243.563 113.474 243.493 113.473H223.915C223.775 113.473 223.641 113.429 223.543 113.349C223.444 113.27 223.388 113.162 223.388 113.05V107.677C223.388 107.565 223.444 107.457 223.543 107.378C223.641 107.298 223.775 107.254 223.915 107.254H243.493C243.563 107.253 243.631 107.264 243.695 107.285C243.759 107.306 243.818 107.337 243.867 107.377C243.916 107.416 243.954 107.463 243.981 107.515C244.007 107.566 244.02 107.621 244.019 107.677V113.05ZM244.019 99.1461C244.019 99.2584 243.964 99.3661 243.865 99.4455C243.767 99.5249 243.633 99.5695 243.493 99.5695H223.915C223.775 99.5687 223.642 99.5238 223.544 99.4446C223.445 99.3654 223.389 99.2582 223.388 99.1461V93.7703C223.389 93.6583 223.445 93.5511 223.544 93.4718C223.642 93.3926 223.775 93.3477 223.915 93.3469H243.493C243.633 93.3469 243.767 93.3915 243.865 93.4709C243.964 93.5503 244.019 93.658 244.019 93.7703V99.1461ZM244.019 85.2393C244.02 85.2951 244.007 85.3503 243.981 85.4019C243.954 85.4534 243.916 85.5003 243.867 85.5397C243.818 85.5791 243.759 85.6102 243.695 85.6314C243.631 85.6525 243.563 85.6632 243.493 85.6627H223.915C223.775 85.6627 223.641 85.6181 223.543 85.5387C223.444 85.4593 223.388 85.3516 223.388 85.2393V79.8824C223.388 79.7701 223.444 79.6624 223.543 79.583C223.641 79.5036 223.775 79.459 223.915 79.459H243.493C243.563 79.4585 243.631 79.4692 243.695 79.4903C243.759 79.5115 243.818 79.5426 243.867 79.582C243.916 79.6214 243.954 79.6683 243.981 79.7198C244.007 79.7714 244.02 79.8266 244.019 79.8824V85.2393ZM244.019 71.3357C244.019 71.448 243.964 71.5557 243.865 71.6351C243.767 71.7145 243.633 71.7591 243.493 71.7591H223.915C223.775 71.7583 223.642 71.7134 223.544 71.6342C223.445 71.5549 223.389 71.4477 223.388 71.3357V65.9599C223.389 65.8481 223.445 65.7413 223.544 65.6625C223.642 65.5838 223.776 65.5396 223.915 65.5396H243.493C243.562 65.5392 243.631 65.5498 243.694 65.5707C243.758 65.5916 243.816 65.6225 243.865 65.6616C243.914 65.7007 243.953 65.7471 243.979 65.7983C244.006 65.8495 244.02 65.9044 244.019 65.9599V71.3357ZM244.019 57.432C244.02 57.4875 244.006 57.5424 243.979 57.5936C243.953 57.6448 243.914 57.6913 243.865 57.7303C243.816 57.7694 243.758 57.8003 243.694 57.8212C243.631 57.8422 243.562 57.8527 243.493 57.8523H223.915C223.776 57.8523 223.642 57.8081 223.544 57.7294C223.445 57.6507 223.389 57.5438 223.388 57.432V52.0563C223.389 51.9442 223.445 51.837 223.544 51.7578C223.642 51.6785 223.775 51.6337 223.915 51.6328H243.493C243.633 51.6328 243.767 51.6775 243.865 51.7569C243.964 51.8363 244.019 51.944 244.019 52.0563V57.432ZM244.019 43.5252C244.02 43.581 244.007 43.6362 243.981 43.6878C243.954 43.7393 243.916 43.7862 243.867 43.8256C243.818 43.865 243.759 43.8962 243.695 43.9173C243.631 43.9384 243.563 43.9491 243.493 43.9487H223.915C223.775 43.9487 223.641 43.9041 223.543 43.8247C223.444 43.7453 223.388 43.6375 223.388 43.5252V38.1683C223.388 38.056 223.444 37.9483 223.543 37.8689C223.641 37.7895 223.775 37.7449 223.915 37.7449H243.493C243.563 37.7445 243.631 37.7551 243.695 37.7763C243.759 37.7974 243.818 37.8286 243.867 37.868C243.916 37.9074 243.954 37.9542 243.981 38.0058C244.007 38.0573 244.02 38.1126 244.019 38.1683V43.5252ZM290.437 126.953C290.436 127.065 290.38 127.172 290.282 127.251C290.183 127.33 290.05 127.374 289.911 127.374H270.332C270.264 127.374 270.195 127.364 270.131 127.343C270.068 127.322 270.01 127.291 269.961 127.252C269.912 127.213 269.873 127.166 269.846 127.115C269.82 127.064 269.806 127.009 269.806 126.953V121.596C269.806 121.484 269.862 121.376 269.96 121.297C270.059 121.218 270.193 121.173 270.332 121.173H289.911C290.051 121.174 290.184 121.219 290.282 121.298C290.381 121.377 290.436 121.484 290.437 121.596V126.953ZM290.437 113.047C290.437 113.159 290.382 113.267 290.283 113.346C290.185 113.425 290.051 113.47 289.911 113.47H270.332C270.263 113.47 270.195 113.46 270.131 113.439C270.066 113.418 270.008 113.386 269.959 113.347C269.91 113.308 269.872 113.261 269.845 113.209C269.819 113.158 269.806 113.102 269.806 113.047V107.677C269.806 107.621 269.819 107.566 269.845 107.515C269.872 107.463 269.91 107.416 269.959 107.377C270.008 107.337 270.066 107.306 270.131 107.285C270.195 107.264 270.263 107.253 270.332 107.254H289.911C290.051 107.254 290.185 107.298 290.283 107.378C290.382 107.457 290.437 107.565 290.437 107.677V113.047ZM290.437 99.143C290.436 99.255 290.381 99.3623 290.282 99.4415C290.184 99.5207 290.051 99.5656 289.911 99.5664H270.332C270.193 99.5664 270.059 99.5218 269.96 99.4424C269.862 99.363 269.806 99.2553 269.806 99.143V93.7703C269.806 93.658 269.862 93.5503 269.96 93.4709C270.059 93.3915 270.193 93.3469 270.332 93.3469H289.911C290.051 93.3477 290.184 93.3926 290.282 93.4718C290.381 93.5511 290.436 93.6583 290.437 93.7703V99.143ZM290.437 85.2362C290.437 85.3485 290.382 85.4562 290.283 85.5356C290.185 85.615 290.051 85.6596 289.911 85.6596H270.332C270.196 85.6588 270.065 85.615 269.968 85.5376C269.872 85.4603 269.816 85.3554 269.814 85.2456V79.8824C269.814 79.8266 269.827 79.7714 269.853 79.7198C269.879 79.6683 269.918 79.6214 269.967 79.582C270.016 79.5426 270.074 79.5115 270.138 79.4903C270.202 79.4692 270.271 79.4585 270.34 79.459H289.919C290.059 79.459 290.192 79.5036 290.291 79.583C290.39 79.6624 290.445 79.7701 290.445 79.8824L290.437 85.2362ZM290.437 71.3325C290.436 71.4446 290.381 71.5518 290.282 71.631C290.184 71.7103 290.051 71.7551 289.911 71.756H270.332C270.193 71.756 270.059 71.7113 269.96 71.6319C269.862 71.5525 269.806 71.4448 269.806 71.3325V65.9599C269.806 65.9044 269.82 65.8495 269.846 65.7983C269.873 65.7471 269.912 65.7007 269.961 65.6616C270.01 65.6225 270.068 65.5916 270.131 65.5707C270.195 65.5498 270.264 65.5392 270.332 65.5396H289.911C290.05 65.5396 290.183 65.5838 290.282 65.6625C290.38 65.7413 290.436 65.8481 290.437 65.9599V71.3325ZM290.437 57.4289C290.436 57.5407 290.38 57.6475 290.282 57.7263C290.183 57.805 290.05 57.8492 289.911 57.8492H270.332C270.264 57.8496 270.195 57.839 270.131 57.8181C270.068 57.7972 270.01 57.7663 269.961 57.7272C269.912 57.6881 269.873 57.6417 269.846 57.5905C269.82 57.5393 269.806 57.4844 269.806 57.4289V52.0563C269.806 51.944 269.862 51.8363 269.96 51.7569C270.059 51.6775 270.193 51.6328 270.332 51.6328H289.911C290.051 51.6337 290.184 51.6785 290.282 51.7578C290.381 51.837 290.436 51.9442 290.437 52.0563V57.4289ZM290.437 43.5221C290.437 43.5777 290.424 43.6328 290.397 43.6841C290.371 43.7355 290.332 43.7822 290.283 43.8215C290.234 43.8608 290.176 43.892 290.113 43.9133C290.049 43.9346 289.98 43.9455 289.911 43.9455H270.332C270.196 43.9447 270.065 43.9009 269.968 43.8236C269.872 43.7462 269.816 43.6414 269.814 43.5315V38.1683C269.814 38.1126 269.827 38.0573 269.853 38.0058C269.879 37.9542 269.918 37.9074 269.967 37.868C270.016 37.8286 270.074 37.7974 270.138 37.7763C270.202 37.7551 270.271 37.7445 270.34 37.7449H289.919C290.059 37.7449 290.192 37.7895 290.291 37.8689C290.39 37.9483 290.445 38.056 290.445 38.1683L290.437 43.5221Z" fill="#F2F2F2"/>
<path opacity="0.1" d="M151.5 181.511C228.741 180.879 291.401 188.151 291.455 197.754C291.509 207.356 228.936 215.653 151.694 216.284C74.4529 216.916 11.793 209.643 11.7394 200.041C11.6858 190.438 74.2588 182.142 151.5 181.511Z" fill="#FFD37E"/>
<path opacity="0.1" d="M344.044 154.54C421.285 153.908 483.945 161.181 483.998 170.783C484.052 180.385 421.479 188.682 344.238 189.313C266.996 189.945 204.336 182.672 204.283 173.07C204.229 163.468 266.802 155.171 344.044 154.54Z" fill="white"/>
<path opacity="0.1" d="M388.115 112.329L377.922 112.413L377.979 122.574L388.171 122.49L388.115 112.329Z" fill="#FFD37E"/>
<path opacity="0.1" d="M388.243 133.41L378.051 133.494L378.108 143.656L388.3 143.572L388.243 133.41Z" fill="#FFD37E"/>
<path opacity="0.1" d="M388.371 154.49L388.416 162.513C385.006 162.316 381.607 161.983 378.219 161.513L378.18 154.573L388.371 154.49Z" fill="#FFD37E"/>
<path opacity="0.1" d="M346.603 105.269L310.945 105.561L310.97 110.141L346.629 109.849L346.603 105.269Z" fill="#FFD37E"/>
<path opacity="0.1" d="M346.689 119.256L311.03 119.548L311.056 124.128L346.714 123.837L346.689 119.256Z" fill="#FFD37E"/>
<path opacity="0.1" d="M346.774 133.247L346.8 137.827L320.449 138.043C319.298 137.183 318.163 136.302 317.044 135.398C316.267 134.772 315.498 134.131 314.717 133.509L346.774 133.247Z" fill="#FFD37E"/>
<path opacity="0.1" d="M346.859 147.249L346.885 151.846L344.103 151.869C340.972 150.481 337.896 148.974 334.875 147.347L346.859 147.249Z" fill="#FFD37E"/>
<path opacity="0.1" d="M268.048 92.8025L261.414 92.8571L261.451 99.4709L268.085 99.4163L268.048 92.8025Z" fill="#FFD37E"/>
<path opacity="0.1" d="M268.142 108.181L261.508 108.236L261.545 114.849L268.179 114.795L268.142 108.181Z" fill="#FFD37E"/>
<path opacity="0.1" d="M268.236 123.56L261.602 123.614L261.639 130.228L268.273 130.174L268.236 123.56Z" fill="#FFD37E"/>
<path opacity="0.1" d="M411.738 109.105L405.104 109.16L405.141 115.774L411.775 115.719L411.738 109.105Z" fill="#FFD37E"/>
<path opacity="0.1" d="M411.837 125.436L405.204 125.49L405.24 132.104L411.874 132.049L411.837 125.436Z" fill="#FFD37E"/>
<path opacity="0.1" d="M437.155 125.247L430.521 125.302L430.558 131.916L437.192 131.861L437.155 125.247Z" fill="#FFD37E"/>
<path opacity="0.1" d="M411.937 141.766L405.303 141.821L405.34 148.434L411.974 148.38L411.937 141.766Z" fill="#FFD37E"/>
<path opacity="0.1" d="M437.254 141.578L430.621 141.632L430.657 148.246L437.291 148.191L437.254 141.578Z" fill="#FFD37E"/>
<path opacity="0.1" d="M405.427 162.413L405.403 158.149L412.035 158.094L412.056 161.752L405.427 162.413Z" fill="#FFD37E"/>
<path opacity="0.1" d="M246.342 131.435C246.557 131.554 246.774 131.668 246.993 131.782L246.993 131.666L248.855 131.651L248.86 132.698L249.258 132.875L249.252 131.648L251.113 131.632L251.125 133.644L251.523 133.792L251.511 131.629L253.491 131.613L253.507 134.456L253.905 134.576L253.887 131.373L246.342 131.435Z" fill="#FFD37E"/>
<path opacity="0.1" d="M293.275 90.4053C293.275 90.4053 291.368 95.7464 295.37 96.1974C295.554 96.2864 295.762 96.3148 295.963 96.2786C296.165 96.2424 296.35 96.1435 296.492 95.9961C296.492 95.9961 296.21 95.9059 296.467 95.3866C296.556 95.2009 296.623 95.0052 296.666 94.8038C296.726 94.5318 296.695 94.2481 296.578 93.9956C296.578 93.9956 296.39 92.2869 294.061 90.9753C294.061 90.9753 293.641 90.3809 293.496 90.356L293.623 91.3869C293.623 91.3869 294.376 91.2644 294.857 91.6685C294.857 91.6685 293.665 91.3557 293.633 91.541C293.633 91.5789 293.724 92.0834 293.724 92.0834C293.724 92.0834 295.036 91.8758 295.759 92.5222C295.759 92.5222 294.38 91.9594 293.759 92.2753L293.951 93.0281C293.951 93.0281 295.327 92.7416 296.175 93.4462C296.175 93.4462 294.714 92.9103 294.002 93.1913L294.289 93.9006C294.289 93.9006 295.636 93.6523 296.339 94.2372C296.339 94.2372 294.588 93.7772 294.366 94.0589C294.489 94.3354 294.646 94.5954 294.834 94.8331C294.834 94.8331 295.804 94.6709 296.182 95.0592C296.182 95.0592 294.979 94.8817 294.937 95.0054C294.937 95.0054 295.555 95.7357 296.066 95.945C295.587 95.7799 295.161 95.4931 294.828 95.1131C294.799 95.4232 294.86 95.7351 295.005 96.0107C295.005 96.0107 294.487 95.7777 294.68 94.934C294.68 94.934 294.22 94.3471 294.217 94.2262C294.217 94.2262 293.91 95.0305 293.986 95.5921C293.986 95.5921 293.602 95.0069 294.135 94.0394L293.831 93.3303C293.831 93.3303 293.361 94.3708 293.397 94.8781C293.397 94.8781 293.098 94.2188 293.768 93.1458L293.574 92.4073C293.327 92.8574 293.14 93.3374 293.018 93.8351C293.018 93.8351 292.874 93.165 293.527 92.1847L293.455 91.6776C293.455 91.6776 293.124 92.3161 293.046 92.5089C292.969 92.7017 292.909 92.695 292.909 92.695C292.963 92.246 293.14 91.8201 293.421 91.4644C293.421 91.4644 293.341 90.4047 293.275 90.4053Z" fill="#FFD37E"/>
<path d="M440.692 153.879L443.101 156.38L446.863 149.675L446.516 148.928L440.692 153.879Z" fill="#FFD37E"/>
<path opacity="0.2" d="M440.692 153.879L443.101 156.38L446.863 149.675L446.516 148.928L440.692 153.879Z" fill="black"/>
<path d="M272.386 149.396C272.456 162.063 263.77 164.822 255.051 164.894C246.331 164.965 241.363 154.332 241.293 141.66C241.223 128.989 248.234 118.665 256.954 118.593C265.674 118.522 272.316 136.73 272.386 149.396Z" fill="#636780"/>
<path opacity="0.2" d="M272.386 149.396C272.456 162.063 263.77 164.822 255.051 164.894C246.331 164.965 241.363 154.332 241.293 141.66C241.223 128.989 248.234 118.665 256.954 118.593C265.674 118.522 272.316 136.73 272.386 149.396Z" fill="black"/>
<path d="M266.32 141.86C266.39 154.528 260.845 164.846 253.935 164.902C247.024 164.959 241.092 154.736 241.022 142.068C241.012 140.317 240.731 138.616 240.924 136.978C242.131 126.75 247.726 119.075 253.675 119.026C260.591 118.969 266.249 129.193 266.32 141.86Z" fill="#636780"/>
<path d="M264.72 86.1094C264.72 86.1094 253.83 98.4261 250.406 108.644L345.09 118.263L395.722 107.452C395.722 107.452 375.512 83.679 370.082 82.7985C364.651 81.9179 264.72 86.1094 264.72 86.1094Z" fill="#FFD37E"/>
<path opacity="0.4" d="M264.72 86.1094C264.72 86.1094 253.83 98.4261 250.406 108.644L345.09 118.263L395.722 107.452C395.722 107.452 375.512 83.679 370.082 82.7985C364.651 81.9179 264.72 86.1094 264.72 86.1094Z" fill="black"/>
<path d="M334.333 116.741L349.762 159.111L349.703 148.355L353.864 136.28L365.552 131.012L380.444 137.61L385.767 139.221L386.176 129.415L368.466 120.88L360.222 117.014L341.393 115.533L336.196 114.65L334.333 116.741Z" fill="#FFD37E"/>
<path d="M341.131 121.076L354.96 122.543C354.301 117.05 358.398 117.017 358.398 117.017L344.561 114.748L338.107 114.801" fill="#FFD37E"/>
<path d="M349.801 165.665L359.599 165.585L387.968 164.403C387.968 164.403 388.611 169.792 396.077 168.462C396.077 168.462 400.192 168.691 400.622 166.459C401.052 164.227 391.126 143.713 391.126 143.713L377.693 133.867L365.548 131.031L356.856 133.656L351.373 142.473L347.958 154.509L349.801 165.665Z" fill="#636780"/>
<path opacity="0.2" d="M349.801 165.665L359.599 165.585L387.968 164.403C387.968 164.403 388.611 169.792 396.077 168.462C396.077 168.462 400.192 168.691 400.622 166.459C401.052 164.227 391.126 143.713 391.126 143.713L377.693 133.867L365.548 131.031L356.856 133.656L351.373 142.473L347.958 154.509L349.801 165.665Z" fill="black"/>
<path d="M266.647 88.9558C265.251 90.1098 260.841 94.2447 257.195 102.941C257.069 103.24 257.014 103.564 257.034 103.888C257.055 104.211 257.15 104.525 257.313 104.805C257.476 105.085 257.702 105.324 257.973 105.502C258.244 105.68 258.553 105.793 258.876 105.831L281.146 108.524C281.968 108.623 282.798 108.418 283.478 107.946C284.158 107.474 284.64 106.769 284.833 105.966L288.656 90.0265C288.713 89.7895 288.715 89.5428 288.661 89.3054C288.607 89.068 288.499 88.8462 288.346 88.6573C288.192 88.4684 287.997 88.3173 287.775 88.2158C287.553 88.1144 287.31 88.0652 287.066 88.0721L267.623 88.5922C267.266 88.6 266.922 88.7282 266.647 88.9558Z" fill="#FFD37E"/>
<path opacity="0.2" d="M266.647 88.9558C265.251 90.1098 260.841 94.2447 257.195 102.941C257.069 103.24 257.014 103.564 257.034 103.888C257.055 104.211 257.15 104.525 257.313 104.805C257.476 105.085 257.702 105.324 257.973 105.502C258.244 105.68 258.553 105.793 258.876 105.831L281.146 108.524C281.968 108.623 282.798 108.418 283.478 107.946C284.158 107.474 284.64 106.769 284.833 105.966L288.656 90.0265C288.713 89.7895 288.715 89.5428 288.661 89.3054C288.607 89.068 288.499 88.8462 288.346 88.6573C288.192 88.4684 287.997 88.3173 287.775 88.2158C287.553 88.1144 287.31 88.0652 287.066 88.0721L267.623 88.5922C267.266 88.6 266.922 88.7282 266.647 88.9558Z" fill="white"/>
<path d="M298.969 87.975L324.027 87.532C325.832 87.5006 327.456 88.6889 328.075 90.5182L335.987 108.141C336.69 110.207 335.207 112.376 333.156 112.274L296.565 110.174C293.529 110.024 291.365 106.958 292.049 103.774L294.634 91.7435C295.1 89.5687 296.889 88.011 298.969 87.975Z" fill="#FFD37E"/>
<path opacity="0.2" d="M298.969 87.975L324.027 87.532C325.832 87.5006 327.456 88.6889 328.075 90.5182L335.987 108.141C336.69 110.207 335.207 112.376 333.156 112.274L296.565 110.174C293.529 110.024 291.365 106.958 292.049 103.774L294.634 91.7435C295.1 89.5687 296.889 88.011 298.969 87.975Z" fill="white"/>
<path d="M337.905 87.4094C344.755 87.2299 362.908 86.5642 371.927 84.4167C371.927 84.4167 387.491 95.9234 392.183 104.662C392.183 104.662 368.057 110.72 351.376 111.651C350.139 111.718 348.91 111.421 347.843 110.798C346.775 110.175 345.916 109.253 345.371 108.146L336.397 89.898C336.268 89.639 336.207 89.3515 336.219 89.0621C336.231 88.7728 336.316 88.491 336.467 88.2428C336.617 87.9947 336.828 87.7882 337.079 87.6425C337.331 87.4968 337.615 87.4166 337.905 87.4094Z" fill="#FFD37E"/>
<path opacity="0.2" d="M337.905 87.4094C344.755 87.2299 362.908 86.5642 371.927 84.4167C371.927 84.4167 387.491 95.9234 392.183 104.662C392.183 104.662 368.057 110.72 351.376 111.651C350.139 111.718 348.91 111.421 347.843 110.798C346.775 110.175 345.916 109.253 345.371 108.146L336.397 89.898C336.268 89.639 336.207 89.3515 336.219 89.0621C336.231 88.7728 336.316 88.491 336.467 88.2428C336.617 87.9947 336.828 87.7882 337.079 87.6425C337.331 87.4968 337.615 87.4166 337.905 87.4094Z" fill="white"/>
<path opacity="0.1" d="M346.607 89.9898C349.461 89.9166 355.026 89.7239 360.46 89.2741C364.461 88.937 368.484 89.5262 372.214 90.9954C375.945 92.4647 379.281 94.7743 381.963 97.7438L382.14 97.9414C382.529 98.3814 382.795 98.915 382.913 99.4896C383.031 100.064 382.996 100.66 382.813 101.218C382.629 101.776 382.302 102.277 381.865 102.672C381.429 103.066 380.896 103.341 380.321 103.468C374.331 104.799 364.127 106.84 356.244 107.284C355.357 107.336 354.474 107.126 353.708 106.681C352.941 106.235 352.323 105.574 351.933 104.779L345.53 91.7592C345.44 91.5745 345.397 91.37 345.406 91.1643C345.416 90.9587 345.477 90.7585 345.584 90.5823C345.691 90.4061 345.841 90.2595 346.02 90.1559C346.199 90.0524 346.401 89.9952 346.607 89.9898Z" fill="white"/>
<path d="M349.784 159.048L349.821 165.58L277.312 155.153C273.755 153.957 271.641 154.726 271.641 154.726C269.018 153.474 267.088 148.525 267.032 148.364L268.378 144.407L257.171 126.193L242.4 126.926C244.621 108.396 251.305 107.457 251.305 107.457L338.145 114.773L349.784 159.048Z" fill="#FFD37E"/>
<path opacity="0.1" d="M333.933 120.192C333.368 120.818 332.332 121.391 330.415 121.354C327.477 121.307 326.907 118.813 326.825 117.322C326.804 116.957 326.813 116.59 326.85 116.226L330.691 115.021L331.483 115.747L333.818 117.897C334.135 118.188 334.325 118.591 334.347 119.02C334.368 119.449 334.22 119.87 333.933 120.192Z" fill="black"/>
<path d="M333.932 119.988C333.367 120.614 332.331 121.187 330.414 121.15C327.476 121.103 326.906 118.609 326.824 117.118C326.803 116.753 326.812 116.386 326.849 116.022L330.69 114.817L331.482 115.543L333.817 117.693C334.134 117.984 334.324 118.387 334.346 118.816C334.367 119.245 334.219 119.666 333.932 119.988Z" fill="#DCE0ED"/>
<path opacity="0.1" d="M331.483 115.54C330.997 116.793 329.544 117.144 329.544 117.144L326.826 117.114C326.805 116.749 326.813 116.383 326.851 116.019L330.691 114.815L331.483 115.54Z" fill="black"/>
<path d="M321.622 106.046C321.622 106.046 315.481 106.917 317.15 112.441C318.415 116.627 321.187 116.887 322.456 116.77C323.195 116.698 323.937 116.665 324.68 116.671L329.539 116.728C329.539 116.728 332.28 116.068 331.496 113.317C330.713 110.566 327.151 105.541 321.622 106.046Z" fill="#F0F0F4"/>
<path opacity="0.2" d="M288.461 123.049C290.027 123.036 291.287 121.378 291.276 119.347C291.265 117.315 289.986 115.678 288.42 115.691C286.854 115.704 285.593 117.361 285.604 119.393C285.616 121.425 286.894 123.061 288.461 123.049Z" fill="black"/>
<path opacity="0.1" d="M293.314 118.662L285.244 117.867C284.558 117.8 283.946 118.302 283.877 118.988L283.877 118.99C283.807 119.677 284.307 120.288 284.993 120.356L293.062 121.15C293.748 121.218 294.36 120.716 294.429 120.029L294.43 120.027C294.499 119.341 293.999 118.729 293.314 118.662Z" fill="black"/>
<path d="M293.313 118.457L285.243 117.662C284.557 117.595 283.945 118.096 283.876 118.783L283.876 118.785C283.806 119.471 284.306 120.083 284.992 120.15L293.061 120.945C293.747 121.012 294.359 120.51 294.428 119.824L294.429 119.822C294.498 119.135 293.998 118.524 293.313 118.457Z" fill="#F0F0F4"/>
<path opacity="0.1" d="M241.614 143.744C241.614 143.744 236.499 138.781 242.611 126.683C242.611 126.683 250.466 114.668 262.833 127.641C262.833 127.641 269.945 135.445 272.062 147.99L267.249 148.131C267.249 148.131 262.514 125.905 248.999 127.14C248.999 127.138 239.174 128.954 241.614 143.744Z" fill="black"/>
<path opacity="0.1" d="M241.417 144.358C241.417 144.358 236.3 139.397 242.414 127.294C242.414 127.294 250.27 115.282 262.636 128.252C262.636 128.252 269.748 136.059 271.868 148.601L267.053 148.742C267.053 148.742 262.313 126.521 248.798 127.754C248.798 127.754 238.973 129.57 241.417 144.358Z" fill="black"/>
<path d="M241.415 143.95C241.415 143.95 236.297 138.987 242.412 126.886C242.412 126.886 250.268 114.874 262.634 127.844C262.634 127.844 269.746 135.648 271.866 148.193L267.05 148.334C267.05 148.334 262.31 126.111 248.796 127.344C248.796 127.344 238.971 129.162 241.415 143.95Z" fill="#FFD37E"/>
<path opacity="0.2" d="M241.415 143.95C241.415 143.95 236.297 138.987 242.412 126.886C242.412 126.886 250.268 114.874 262.634 127.844C262.634 127.844 269.746 135.648 271.866 148.193L267.05 148.334C267.05 148.334 262.31 126.111 248.796 127.344C248.796 127.344 238.971 129.162 241.415 143.95Z" fill="black"/>
<path opacity="0.1" d="M349.782 158.878L349.819 165.396L277.324 154.988C273.768 153.797 271.653 154.562 271.653 154.562C269.031 153.313 267.102 148.374 267.046 148.214L271.86 148.073L285.798 149.893L336.458 156.71C336.458 156.71 345.441 157.656 345.954 158.051C346.468 158.447 349.782 158.878 349.782 158.878Z" fill="black"/>
<path d="M349.784 159.083L349.82 165.6L277.326 155.195C273.769 154.001 271.655 154.769 271.655 154.769C269.033 153.52 267.103 148.581 267.047 148.421L271.861 148.279L285.8 150.1L336.46 156.917C336.46 156.917 345.443 157.862 345.956 158.258C346.469 158.653 349.784 159.083 349.784 159.083Z" fill="#FFD37E"/>
<path opacity="0.2" d="M349.784 159.083L349.82 165.6L277.326 155.195C273.769 154.001 271.655 154.769 271.655 154.769C269.033 153.52 267.103 148.581 267.047 148.421L271.861 148.279L285.8 150.1L336.46 156.917C336.46 156.917 345.443 157.862 345.956 158.258C346.469 158.653 349.784 159.083 349.784 159.083Z" fill="black"/>
<path opacity="0.2" d="M285.696 150.075C281.091 135.688 281.277 125.627 282.243 119.726C283.292 113.31 285.469 110.271 285.49 110.243L285.656 110.362C285.635 110.391 283.484 113.408 282.444 119.777C281.482 125.666 281.299 135.675 285.894 150.023L285.696 150.075Z" fill="black"/>
<path d="M448.124 142.498C448.308 143.167 448.74 145.017 448.074 145.523C447.821 145.714 447.602 146.183 447.434 146.739C447.171 147.682 446.983 148.644 446.87 149.616L439.945 157.43L428.193 162.122L400.037 164.292L382.881 136.872L344.555 114.795L354.981 114.133C365.41 113.469 394.987 106.695 394.987 106.695L428.526 113.794C433.951 114.934 438.754 118.036 442.011 122.503C446.12 128.157 448.021 134.303 448.021 134.303C448.529 134.901 448.729 135.885 448.764 136.966C448.812 138.726 448.419 140.735 448.203 141.694C448.121 142.052 448.066 142.266 448.066 142.266C448.066 142.266 448.085 142.347 448.124 142.498Z" fill="#FFD37E"/>
<path opacity="0.1" d="M345.931 157.909C345.931 157.909 343.762 136.104 359.092 130.056C359.092 130.056 380.65 120.792 393.487 145.378L400.016 159.407C400.016 159.407 401.878 162.859 406.897 162.716C406.897 162.716 430.549 161.811 442.991 153.748L446.858 149.216C446.858 149.216 444.948 155.556 443.009 157C443.009 157 435.378 166.04 407.428 167.904C407.428 167.904 396 169.22 392.492 158.436C392.492 158.436 387.679 133.99 363.919 134.389C363.919 134.389 349.961 134.776 349.752 158.718L345.931 157.909Z" fill="black"/>
<path d="M345.933 158.317C345.933 158.317 343.765 136.514 359.094 130.464C359.094 130.464 380.653 121.203 393.49 145.787L400.019 159.813C400.019 159.813 401.881 163.265 406.9 163.122C406.9 163.122 430.552 162.217 442.993 154.154L446.873 149.633C446.873 149.633 444.963 155.973 443.023 157.418C443.023 157.418 435.393 166.46 407.442 168.322C407.442 168.322 396.014 169.64 392.506 158.853C392.506 158.853 387.693 134.407 363.934 134.806C363.934 134.806 349.975 135.196 349.766 159.138L345.933 158.317Z" fill="#FFD37E"/>
<path opacity="0.2" d="M345.933 158.317C345.933 158.317 343.765 136.514 359.094 130.464C359.094 130.464 380.653 121.203 393.49 145.787L400.019 159.813C400.019 159.813 401.881 163.265 406.9 163.122C406.9 163.122 430.552 162.217 442.993 154.154L446.873 149.633C446.873 149.633 444.963 155.973 443.023 157.418C443.023 157.418 435.393 166.46 407.442 168.322C407.442 168.322 396.014 169.64 392.506 158.853C392.506 158.853 387.693 134.407 363.934 134.806C363.934 134.806 349.975 135.196 349.766 159.138L345.933 158.317Z" fill="black"/>
<path opacity="0.2" d="M342.398 157.66L341.3 127.252C341.414 125.191 341.322 123.125 341.027 121.084C340.997 120.956 340.242 117.825 339.245 116.051C338.607 115.138 338.068 114.862 338.044 114.858L337.496 114.715L338.108 114.665C338.531 114.742 338.935 115.175 339.308 115.782C339.987 116.695 340.789 118.302 341.222 121.049C341.519 123.098 341.611 125.171 341.496 127.238L342.594 157.639L342.398 157.66Z" fill="black"/>
<path opacity="0.2" d="M361.063 134.958L360.863 134.993C360.863 134.969 360.423 132.451 359.007 130.457C356.038 126.28 355.06 123.438 354.94 121.536C354.883 120.877 354.96 120.213 355.167 119.584C355.62 118.297 356.845 117.337 358.514 116.854L358.872 116.91C357.267 117.374 355.785 118.43 355.351 119.651C355.144 120.271 355.067 120.927 355.123 121.577C355.253 123.439 356.233 126.226 359.154 130.342C360.618 132.371 361.06 134.932 361.063 134.958Z" fill="black"/>
<path opacity="0.2" d="M426.584 124.53C413.492 116.881 385.828 109.894 385.549 109.825L385.601 109.626C385.879 109.697 413.572 116.691 426.688 124.354L426.584 124.53Z" fill="black"/>
<path opacity="0.2" d="M445.618 135.154C440.643 126.556 427.337 119.543 417.049 115.172C410.09 112.237 402.955 109.731 395.685 107.669L395.739 107.471C403.018 109.535 410.161 112.044 417.129 114.984C427.445 119.367 440.792 126.403 445.796 135.051L445.618 135.154Z" fill="black"/>
<path opacity="0.1" d="M445.912 132.717C446.949 131.925 445.068 127.729 441.713 123.344C438.357 118.958 434.797 116.045 433.761 116.836C432.724 117.628 434.605 121.824 437.96 126.209C441.316 130.595 444.876 133.508 445.912 132.717Z" fill="black"/>
<path d="M445.91 132.308C446.947 131.516 445.067 127.32 441.711 122.935C438.355 118.549 434.795 115.636 433.759 116.427C432.722 117.219 434.603 121.415 437.958 125.8C441.314 130.186 444.874 133.099 445.91 132.308Z" fill="#DCE0ED"/>
<path opacity="0.1" d="M445.124 130.944C445.797 130.43 444.096 127.078 441.324 123.457C438.553 119.835 435.761 117.316 435.088 117.829C434.416 118.343 436.117 121.695 438.888 125.317C441.659 128.939 444.451 131.458 445.124 130.944Z" fill="black"/>
<path d="M445.123 130.741C445.796 130.227 444.095 126.875 441.324 123.253C438.553 119.632 435.761 117.112 435.088 117.626C434.415 118.14 436.116 121.492 438.887 125.114C441.659 128.735 444.451 131.255 445.123 130.741Z" fill="#F0F0F4"/>
<path opacity="0.1" d="M415.309 140.256C415.309 140.256 415.947 135.249 419.885 134.093C419.885 134.093 433.28 130.116 436.199 130.035C436.199 130.035 439.214 129.089 441.224 131.316L443.287 134.055C443.287 134.055 444.726 136.289 441.561 136.723C441.561 136.723 425.379 142.78 418.351 143.453C417.952 143.493 417.555 143.556 417.163 143.643C416.137 143.865 413.981 143.944 415.309 140.256Z" fill="black"/>
<path d="M415.515 140.05C415.515 140.05 416.153 135.043 420.089 133.887C420.089 133.887 433.483 129.91 436.403 129.829C436.403 129.829 439.418 128.88 441.428 131.11L443.493 133.849C443.493 133.849 444.932 136.081 441.764 136.517C441.764 136.517 425.585 142.574 418.557 143.248C418.158 143.287 417.761 143.35 417.369 143.437C416.341 143.659 414.184 143.738 415.515 140.05Z" fill="#F0F0F4"/>
<path opacity="0.1" d="M416.924 139.612C416.924 139.612 417.521 135.331 421.175 134.341C421.175 134.341 433.631 130.922 436.344 130.86C436.344 130.86 439.148 130.048 441.015 131.951L442.931 134.293C442.931 134.293 444.273 136.203 441.324 136.576C441.324 136.576 426.279 141.769 419.745 142.347C419.378 142.381 419.012 142.435 418.65 142.51C417.693 142.686 415.689 142.764 416.924 139.612Z" fill="black"/>
<path d="M417.13 139.402C417.13 139.402 417.724 135.132 421.381 134.131C421.381 134.131 433.836 130.712 436.549 130.649C436.549 130.649 439.353 129.835 441.221 131.741L443.136 134.094C443.136 134.094 444.478 136.002 441.529 136.377C441.529 136.377 426.482 141.571 419.948 142.148C419.582 142.182 419.218 142.237 418.858 142.311C417.896 142.49 415.892 142.558 417.13 139.402Z" fill="#636780"/>
<path d="M418.169 136.75L418.142 136.547C418.325 136.524 436.529 134.122 440.433 131.078L440.56 131.238C436.611 134.311 418.92 136.647 418.169 136.75Z" fill="#F0F0F4"/>
<path d="M417.225 139.111L417.188 138.91C417.387 138.873 437.407 135.015 441.715 132.319L441.825 132.491C437.485 135.208 417.427 139.072 417.225 139.111Z" fill="#F0F0F4"/>
<path d="M416.763 141.054L416.724 140.855C416.962 140.808 440 136.286 442.839 133.723L442.975 133.874C440.106 136.474 417.713 140.869 416.763 141.054Z" fill="#F0F0F4"/>
<path opacity="0.1" d="M440.77 140.979C440.77 140.979 432.097 144.663 422.966 146.358C422.158 146.51 421.36 146.696 420.57 146.918C419.644 147.176 418.328 147.471 417.612 147.293C416.433 146.994 415.789 148.428 417.068 149.54L417.149 149.611C417.611 150.01 418.149 150.312 418.732 150.498C419.314 150.685 419.929 150.752 420.539 150.696L422.495 150.517C422.495 150.517 438.352 146.919 442.764 144.177C442.764 144.177 444.777 142.78 444.923 141.224C445.069 139.669 445.246 138.443 443.648 139.375C442.051 140.308 440.77 140.979 440.77 140.979Z" fill="black"/>
<path d="M440.964 140.778C440.641 140.914 432.127 144.489 423.16 146.152C422.352 146.303 421.553 146.489 420.763 146.712C419.84 146.971 418.522 147.266 417.805 147.087C416.614 146.789 415.983 148.223 417.261 149.335L417.299 149.368C417.775 149.781 418.329 150.094 418.93 150.287C419.531 150.48 420.165 150.55 420.794 150.493L422.676 150.321L422.707 150.321C423.251 150.198 438.619 146.682 442.955 143.995L442.972 143.995C443.107 143.897 444.983 142.546 445.122 141.047C445.268 139.492 445.446 138.266 443.846 139.198C442.327 140.083 441.097 140.737 440.983 140.797L440.964 140.778Z" fill="#F0F0F4"/>
<path opacity="0.1" d="M439.81 141.931C439.81 141.931 432.693 144.945 425.044 146.688C424.284 146.86 423.531 147.06 422.783 147.282C422.035 147.504 420.967 147.77 420.372 147.7C419.354 147.573 418.874 148.588 420.019 149.259L420.055 149.28C420.922 149.787 421.937 149.982 422.933 149.834L424.696 149.583C424.696 149.583 438.038 146.124 441.664 143.981C441.664 143.981 443.323 142.904 443.36 141.835C443.396 140.767 443.496 139.939 442.181 140.661C440.865 141.382 439.81 141.931 439.81 141.931Z" fill="black"/>
<path d="M440.011 141.725C439.859 141.791 432.813 144.757 425.249 146.482C424.489 146.654 423.734 146.855 422.986 147.076C422.239 147.298 421.172 147.565 420.575 147.494C419.557 147.367 419.077 148.38 420.225 149.053C421.113 149.574 422.155 149.775 423.176 149.623L424.892 149.372C425.167 149.301 438.26 145.894 441.853 143.785C441.91 143.747 443.511 142.689 443.546 141.639C443.581 140.59 443.683 139.732 442.367 140.465C441.051 141.198 440.056 141.706 439.996 141.735L440.011 141.725Z" fill="#636780"/>
<path opacity="0.1" d="M410.98 150.716C411.046 149.232 410.209 147.992 409.111 147.947C408.012 147.901 407.068 149.066 407.002 150.55C406.936 152.034 407.773 153.274 408.872 153.32C409.97 153.366 410.914 152.2 410.98 150.716Z" fill="black"/>
<path d="M410.922 150.704C410.988 149.222 410.151 147.984 409.054 147.938C407.957 147.893 407.015 149.057 406.949 150.539C406.884 152.021 407.72 153.259 408.817 153.305C409.914 153.35 410.857 152.186 410.922 150.704Z" fill="#F0F0F4"/>
<path opacity="0.1" d="M420.699 152.58C420.699 152.58 410.281 154.247 407.517 154.424C404.752 154.6 404.345 156.131 404.345 156.131C404.345 156.131 403.701 160.013 407.534 158.859L421.145 157.217C421.145 157.217 422.991 157.254 422.977 154.754L422.974 154.193C422.977 153.879 423.007 153.566 423.064 153.257C423.135 152.865 422.929 152.232 420.699 152.58Z" fill="black"/>
<path d="M420.902 152.374C420.902 152.374 410.485 154.041 407.721 154.216C404.956 154.39 404.556 155.925 404.556 155.925C404.556 155.925 403.912 159.807 407.745 158.653L421.359 157.012C421.359 157.012 423.202 157.049 423.188 154.548L423.185 153.987C423.188 153.673 423.218 153.36 423.274 153.051C423.348 152.659 423.133 152.026 420.902 152.374Z" fill="#F0F0F4"/>
<path d="M448.065 145.575C447.812 145.767 447.593 146.236 447.425 146.793L444.06 149.207C444.019 149.236 443.971 149.254 443.92 149.258C443.87 149.262 443.82 149.252 443.775 149.229C443.73 149.207 443.692 149.172 443.665 149.129C443.638 149.087 443.624 149.038 443.623 148.987L443.61 146.483C443.607 146.124 443.698 145.77 443.874 145.456C444.049 145.142 444.303 144.878 444.611 144.691L448.115 142.548C448.3 143.218 448.738 145.065 448.065 145.575Z" fill="#F0F0F4"/>
<path d="M424.211 152.688L424.068 155.22C424.05 155.473 424.088 155.726 424.181 155.961C424.274 156.196 424.418 156.408 424.604 156.58C424.79 156.751 425.012 156.879 425.255 156.954C425.497 157.029 425.753 157.048 426.004 157.011C431.75 156.049 437.268 154.024 442.271 151.041L442.687 145.865C442.699 145.739 442.678 145.612 442.626 145.496C442.574 145.381 442.492 145.281 442.389 145.207C442.286 145.133 442.165 145.087 442.039 145.074C441.912 145.06 441.784 145.08 441.668 145.132C438.821 146.423 431.189 149.736 426.336 150.397C425.772 150.476 425.251 150.747 424.864 151.165C424.477 151.582 424.246 152.12 424.211 152.688Z" fill="#636780"/>
<path d="M425.773 151.371L425.796 155.485C425.796 155.485 438.48 152.39 441.285 150.35L441.263 146.446C436.33 148.738 431.124 150.393 425.773 151.371Z" fill="#FFD37E"/>
<path d="M447.976 141.941C447.331 141.901 446.808 140.802 446.801 139.452C446.793 138.102 447.325 136.947 447.977 136.941C448.082 136.945 448.184 136.971 448.278 137.016C448.373 137.061 448.456 137.126 448.524 137.205C448.586 138.967 448.192 140.978 447.976 141.941Z" fill="#FFD37E"/>
<path d="M448.18 141.733C447.534 141.695 447.014 140.596 447.006 139.246C446.999 137.896 447.528 136.739 448.183 136.733C448.288 136.738 448.391 136.764 448.485 136.81C448.58 136.855 448.664 136.92 448.732 136.999C448.789 138.762 448.396 140.772 448.18 141.733Z" fill="#F0F0F4"/>
<path d="M389.899 159.617C390.024 182.066 380.511 182.63 368.1 182.732C358.184 182.814 354.069 172.58 353.999 159.912C353.928 147.244 357.057 136.979 366.97 136.897C376.883 136.816 389.829 146.951 389.899 159.617Z" fill="#636780"/>
<path opacity="0.2" d="M389.846 158.462C391.599 180.851 382.149 182.026 369.774 182.927C359.887 183.646 355.039 173.701 354.05 161.067C353.061 148.433 355.437 137.99 365.322 137.271C375.206 136.551 388.857 145.83 389.846 158.462Z" fill="black"/>
<path d="M368.317 183.033C375.207 182.531 379.991 171.882 379.002 159.246C378.013 146.611 371.626 136.775 364.735 137.276C357.844 137.778 353.06 148.427 354.049 161.062C355.038 173.698 361.426 183.534 368.317 183.033Z" fill="#636780"/>
<path d="M259.332 146.976C259.37 153.855 257.402 159.389 253.25 159.423C249.097 159.457 244.132 153.916 244.093 147.032C244.055 140.148 245.747 134.078 249.899 134.044C254.051 134.01 259.294 140.092 259.332 146.976Z" fill="#F0F0F4"/>
<path d="M259.327 146.709C259.33 147.231 259.318 147.743 259.293 148.247C259.241 149.57 259.053 150.884 258.734 152.17C258.074 154.709 256.854 156.479 255.062 156.829C254.851 156.869 254.637 156.89 254.422 156.891C253.473 156.868 252.551 156.578 251.762 156.054C250.045 154.981 248.456 152.966 247.64 150.437C247.335 149.508 247.145 148.545 247.074 147.569C247.054 147.303 247.043 147.033 247.041 146.763C247.01 144.889 247.187 143.017 247.57 141.181C247.787 140.063 248.19 138.989 248.761 138.002C249.487 136.845 250.457 136.152 251.704 136.142C252.637 136.172 253.541 136.468 254.309 136.996C255.457 137.763 256.434 138.757 257.181 139.916C258.538 141.925 259.283 144.284 259.327 146.709Z" fill="#636780"/>
<path d="M259.288 148.256C259.237 149.576 259.051 150.887 258.734 152.17C258.647 152.074 256.282 149.384 254.526 151.137C253.236 152.422 254.344 155.314 255.062 156.826C254.851 156.866 254.637 156.887 254.422 156.888C253.473 156.866 252.551 156.575 251.762 156.051L251.761 155.857C251.761 155.857 252.787 152.603 249.99 150.627C249.99 150.627 248.633 150.102 247.628 150.432C247.323 149.503 247.133 148.54 247.063 147.564C247.3 147.375 248.922 145.969 248.241 143.351C248.057 142.613 247.829 141.887 247.558 141.177C247.78 140.06 248.186 138.987 248.761 138.002C248.761 138.002 249.312 140.894 251.362 141.051C253.412 141.207 254.284 137.108 254.309 136.994C255.457 137.761 256.434 138.755 257.181 139.914C257.181 139.914 253.917 141.298 254.891 144.9C255.605 147.451 257.978 148.099 259.288 148.256Z" fill="#F0F0F4"/>
<path d="M252.71 148.823C253.55 148.698 254.057 147.42 253.843 145.968C253.629 144.517 252.775 143.442 251.935 143.568C251.096 143.693 250.589 144.971 250.803 146.423C251.017 147.874 251.871 148.948 252.71 148.823Z" fill="#636780"/>
<path d="M368.705 160.742C368.751 168.991 367.024 175.613 363.36 175.643C359.697 175.673 355.304 169.021 355.258 160.762C355.213 152.504 356.696 145.244 360.359 145.213C364.022 145.183 368.659 152.493 368.705 160.742Z" fill="#F0F0F4"/>
<path d="M368.702 160.432C368.705 161.065 368.696 161.679 368.674 162.276C368.63 163.85 368.466 165.418 368.186 166.968C367.61 170.01 366.548 172.125 364.953 172.542C364.768 172.587 364.579 172.611 364.389 172.613C363.623 172.619 362.816 172.26 362.041 171.602C360.516 170.312 359.117 167.88 358.383 164.859C358.114 163.73 357.949 162.579 357.888 161.42C357.87 161.102 357.858 160.78 357.857 160.452C357.824 158.216 357.978 155.98 358.315 153.768C358.501 152.459 358.858 151.179 359.379 149.963C360.019 148.579 360.873 147.751 361.973 147.742C362.713 147.736 363.503 148.107 364.274 148.772C365.194 149.569 366.084 150.783 366.821 152.279C368.045 154.823 368.687 157.608 368.702 160.432Z" fill="#636780"/>
<path d="M368.674 162.271C368.63 163.845 368.467 165.413 368.186 166.963C368.111 166.845 366.025 163.617 364.47 165.713C363.336 167.25 364.317 170.718 364.953 172.537C364.769 172.582 364.58 172.606 364.39 172.608C363.623 172.614 362.817 172.255 362.042 171.598L362.04 171.36C362.04 171.36 362.94 167.464 360.468 165.088C360.468 165.088 359.274 164.455 358.384 164.849C358.115 163.721 357.949 162.57 357.889 161.411C358.097 161.184 359.525 159.499 358.92 156.366C358.69 155.181 358.485 154.336 358.315 153.761C358.501 152.452 358.859 151.173 359.379 149.956C359.379 149.956 359.875 153.425 361.68 153.614C363.485 153.804 364.251 148.9 364.272 148.765C365.192 149.562 366.082 150.776 366.819 152.272C366.819 152.272 363.941 153.923 364.807 158.241C365.417 161.313 367.514 162.084 368.674 162.271Z" fill="#F0F0F4"/>
<path d="M362.192 163.306C362.941 163.239 363.424 161.77 363.271 160.025C363.118 158.28 362.387 156.92 361.638 156.987C360.889 157.054 360.406 158.524 360.559 160.269C360.712 162.013 361.443 163.373 362.192 163.306Z" fill="#636780"/>
<path opacity="0.2" d="M396.222 124.569L396.14 124.757C396.059 124.719 388.962 121.742 362.682 117.526C361.454 117.329 360.185 117.129 358.875 116.926C358.754 116.91 358.637 116.89 358.511 116.872C354.306 116.225 349.664 115.556 344.543 114.858L344.571 114.655C351.506 115.591 357.562 116.487 362.845 117.342C389.058 121.554 396.139 124.534 396.222 124.569Z" fill="black"/>
<path opacity="0.1" d="M262.911 86.7682C262.911 86.7682 265.266 82.7515 273.399 82.3301C273.399 82.3301 332.813 74.1633 370.395 81.84C370.395 81.84 373.608 83.2247 370.134 84.0807C366.661 84.9368 286.744 88.4502 262.911 86.7682Z" fill="black"/>
<path d="M262.908 86.3601C262.908 86.3601 265.263 82.3434 273.396 81.9197C273.396 81.9197 332.81 73.7553 370.393 81.432C370.393 81.432 373.605 82.8167 370.132 83.6727C366.659 84.5288 286.742 88.0422 262.908 86.3601Z" fill="white"/>
<path opacity="0.1" d="M257.443 103.345C261.088 94.6508 265.497 90.5171 266.894 89.361C267.169 89.1348 267.511 89.0068 267.867 88.9975L287.321 88.4774C287.584 88.4694 287.845 88.5271 288.079 88.6452C288.314 88.7633 288.515 88.9381 288.664 89.1537C288.556 88.8313 288.348 88.5521 288.069 88.3572C287.79 88.1624 287.455 88.0622 287.114 88.0715L267.66 88.5916C267.304 88.5994 266.961 88.7276 266.687 88.9551C265.291 90.1088 260.881 94.2425 257.236 102.937C257.102 103.253 257.048 103.598 257.079 103.94C257.111 104.282 257.226 104.611 257.416 104.897C257.224 104.396 257.234 103.84 257.443 103.345Z" fill="black"/>
<path opacity="0.1" d="M292.459 104.057L295.044 92.025C295.508 89.8476 297.302 88.2921 299.38 88.2561L324.439 87.8131C325.394 87.7987 326.322 88.1219 327.06 88.7254C326.674 88.313 326.206 87.9853 325.685 87.7631C325.165 87.5409 324.604 87.4291 324.037 87.4348L298.979 87.8778C296.898 87.9162 295.109 89.4716 294.643 91.649L292.046 103.678C291.828 104.649 291.879 105.659 292.196 106.601C292.512 107.542 293.081 108.379 293.84 109.021C293.22 108.37 292.769 107.577 292.529 106.712C292.288 105.846 292.264 104.935 292.459 104.057Z" fill="black"/>
<path opacity="0.1" d="M346.655 108.707L337.683 90.4491C337.556 90.1903 337.496 89.9037 337.509 89.6155C337.523 89.3273 337.608 89.0469 337.758 88.7999C337.909 88.553 338.118 88.3474 338.369 88.2022C338.619 88.0569 338.902 87.9767 339.191 87.9687C345.947 87.7899 363.702 87.1389 372.842 85.0604C372.264 84.6171 371.933 84.3709 371.933 84.3709C362.907 86.5196 344.757 87.1856 337.906 87.3652C337.617 87.3732 337.334 87.4535 337.084 87.5987C336.833 87.744 336.623 87.9495 336.473 88.1964C336.323 88.4434 336.237 88.7238 336.224 89.012C336.211 89.3002 336.271 89.5869 336.398 89.8457L345.372 108.096C345.739 108.842 346.249 109.509 346.875 110.057C347.501 110.605 348.23 111.024 349.019 111.29C348.002 110.67 347.182 109.774 346.655 108.707Z" fill="black"/>
<path d="M349.775 158.268L345.952 158.3L345.959 159.471L349.782 159.44L349.775 158.268Z" fill="#FFD37E"/>
<path opacity="0.2" d="M349.775 158.268L345.952 158.3L345.959 159.471L349.782 159.44L349.775 158.268Z" fill="black"/>
<path d="M271.678 147.223L266.982 148.068C267.011 148.23 267.058 148.388 267.12 148.541C267.214 148.776 272.349 148.315 272.349 148.315L271.854 148.218L271.678 147.223Z" fill="#FFD37E"/>
<path opacity="0.2" d="M271.678 147.223L266.982 148.068C267.011 148.23 267.058 148.388 267.12 148.541C267.214 148.776 272.349 148.315 272.349 148.315L271.854 148.218L271.678 147.223Z" fill="black"/>
<path opacity="0.1" d="M254.013 158.85C249.862 158.884 244.893 153.343 244.855 146.459C244.829 141.74 245.616 137.402 247.451 135.13C245.081 137.064 244.066 141.901 244.095 147.226C244.133 154.106 249.103 159.652 253.253 159.618C254.657 159.606 255.808 158.966 256.72 157.858C255.963 158.497 255.004 158.849 254.013 158.85Z" fill="black"/>
<path opacity="0.1" d="M364.172 174.72C360.454 174.751 355.993 168.085 355.947 159.817C355.916 154.149 356.601 148.942 358.252 146.219C356.123 148.536 355.233 154.342 355.269 160.738C355.315 169.006 359.775 175.672 363.494 175.642C364.751 175.631 365.782 174.864 366.596 173.538C365.91 174.293 365.103 174.713 364.172 174.72Z" fill="black"/>
<path opacity="0.1" d="M408.131 142.266C410.507 139.86 408.631 134.164 403.939 129.544C399.247 124.924 393.517 123.129 391.141 125.535C388.764 127.941 390.64 133.637 395.332 138.257C400.024 142.877 405.754 144.672 408.131 142.266Z" fill="black"/>
<path d="M408.334 142.061C410.711 139.655 408.834 133.959 404.142 129.339C399.451 124.719 393.72 122.924 391.344 125.33C388.967 127.736 390.843 133.432 395.535 138.052C400.227 142.672 405.957 144.467 408.334 142.061Z" fill="#DCE0ED"/>
<path opacity="0.1" d="M407.633 140.613C409.376 138.849 407.561 134.241 403.579 130.32C399.598 126.4 394.958 124.651 393.216 126.415C391.473 128.179 393.288 132.787 397.269 136.708C401.251 140.628 405.891 142.377 407.633 140.613Z" fill="black"/>
<path d="M407.632 140.407C409.374 138.643 407.559 134.035 403.578 130.114C399.597 126.194 394.957 124.445 393.214 126.209C391.472 127.973 393.287 132.581 397.268 136.502C401.249 140.422 405.889 142.171 407.632 140.407Z" fill="#F0F0F4"/>
<path opacity="0.1" d="M228.509 173.814C232.438 173.782 235.62 173.22 235.616 172.56C235.612 171.9 232.425 171.391 228.496 171.423C224.568 171.455 221.386 172.016 221.389 172.677C221.393 173.337 224.581 173.846 228.509 173.814Z" fill="#FFD37E"/>
<path d="M223.691 167.083C223.691 167.083 227.747 166.926 228.967 166.046C230.187 165.167 235.199 164.099 235.511 165.481C235.823 166.862 241.648 172.355 237.066 172.428C232.484 172.501 226.417 171.805 225.19 171.073C223.964 170.341 223.691 167.083 223.691 167.083Z" fill="#A8A8A8"/>
<path opacity="0.2" d="M237.145 171.944C232.563 172.017 226.496 171.321 225.272 170.59C224.339 170.034 223.957 168.012 223.826 167.08L223.69 167.081C223.69 167.081 223.965 170.34 225.189 171.069C226.413 171.798 232.483 172.499 237.064 172.423C238.386 172.413 238.84 171.935 238.813 171.225C238.632 171.662 238.129 171.927 237.145 171.944Z" fill="black"/>
<g opacity="0.1">
<path opacity="0.1" d="M366.263 115.662C366.166 115.841 365.468 116.265 364.618 116.733C364.536 116.115 364.477 115.648 364.464 115.504C364.411 114.975 365.532 112.596 365.532 112.596C365.532 112.596 367.687 109.679 367.634 109.243C367.582 108.807 368.464 107.547 368.464 107.547L370.414 104.354C370.306 104.597 370.269 104.865 370.306 105.127C370.343 105.389 370.453 105.636 370.624 105.839C371.221 106.606 370.734 108.157 370.734 108.157L370.866 110.104L370.867 110.299C370.798 110.368 370.483 110.672 369.786 111.307C369.144 111.892 369.259 112.068 369.333 112.115C369.187 112.377 369.368 112.421 369.368 112.421C369.425 112.42 369.482 112.415 369.539 112.405L369.383 112.551C368.189 113.681 366.437 115.345 366.263 115.662Z" fill="url(#paint0_linear)"/>
</g>
<path opacity="0.1" d="M324.835 177.113L324.597 177.06L324.835 177.113Z" fill="black"/>
<path opacity="0.1" d="M324.987 177.143L324.859 177.118L324.987 177.143Z" fill="black"/>
<path opacity="0.3" d="M357.458 166.01C357.486 166.287 357.5 166.56 357.51 166.797C357.519 167.101 357.635 167.392 357.839 167.618L357.853 167.632C357.927 167.071 357.959 166.505 357.949 165.94C357.899 166.014 357.685 166.022 357.458 166.01Z" fill="white"/>
<path d="M252.096 172.028C252.096 172.451 252.096 172.874 252.07 173.291C252.009 174.917 251.821 176.535 251.507 178.129C249.952 186.019 245.463 192.152 239.824 193.963C238.703 194.326 237.535 194.511 236.36 194.511C227.669 194.511 220.625 184.437 220.625 172.028C220.625 159.62 227.669 149.546 236.36 149.546C244.512 149.546 251.218 158.406 252.015 169.755C252.07 170.502 252.096 171.262 252.096 172.028Z" fill="#36334A"/>
<path opacity="0.1" d="M252.096 173.206C252.036 174.848 251.848 176.482 251.535 178.092C249.985 186.06 245.512 192.254 239.893 194.083C235.542 191.976 232.314 184.08 232.314 174.66C232.314 163.628 236.747 154.684 242.218 154.684C246.809 154.684 250.672 160.992 251.792 169.551C251.947 170.725 252.049 171.951 252.096 173.206Z" fill="black"/>
<path d="M173.867 121.787C173.867 121.787 215.881 112.501 238.055 121.034C238.055 121.034 241.322 122.79 238.055 125.802C238.055 125.802 241.145 129.315 235.749 130.57L214.31 131.988L173.867 127.558V121.787Z" fill="#3D3B3B"/>
<path opacity="0.1" d="M181.061 123.159C181.061 123.159 217.318 115.512 236.454 122.539C236.454 122.539 239.278 123.987 236.454 126.466C236.454 126.466 239.12 129.363 234.464 130.393L215.963 131.559L181.061 127.917V123.159Z" fill="white"/>
<path d="M222.423 136.819L219.618 130.808C219.618 130.808 220.848 124.726 210.854 122.938C210.3 120.285 207.79 118.284 204.777 118.284C201.837 118.284 199.379 120.187 198.743 122.742C197.308 122.875 195.779 123.055 194.143 123.293L191.858 136.429L191.573 135.818C191.573 135.818 193.024 128.634 179.943 127.584C180.656 126.658 181.049 125.496 181.055 124.295C181.055 121.112 178.281 118.534 174.862 118.534C171.443 118.534 168.669 121.112 168.669 124.295C168.678 125.603 169.141 126.861 169.968 127.822C168.745 127.947 167.455 128.108 166.098 128.303L163.527 143.082L175.446 144.835L194.377 141.829L192.701 138.235L203.492 139.823L222.423 136.819Z" fill="#FFD37E"/>
<path opacity="0.2" d="M222.423 136.819L219.618 130.808C219.618 130.808 220.848 124.726 210.854 122.938C210.3 120.285 207.79 118.284 204.777 118.284C201.837 118.284 199.379 120.187 198.743 122.742C197.308 122.875 195.779 123.055 194.143 123.293L191.858 136.429L191.573 135.818C191.573 135.818 193.024 128.634 179.943 127.584C180.656 126.658 181.049 125.496 181.055 124.295C181.055 121.112 178.281 118.534 174.862 118.534C171.443 118.534 168.669 121.112 168.669 124.295C168.678 125.603 169.141 126.861 169.968 127.822C168.745 127.947 167.455 128.108 166.098 128.303L163.527 143.082L175.446 144.835L194.377 141.829L192.701 138.235L203.492 139.823L222.423 136.819Z" fill="black"/>
<path d="M181.885 123.546C181.885 123.546 179.995 112.537 188.738 112.291C197.481 112.046 194.646 128.237 194.646 128.237C194.646 128.237 201.262 129.709 201.735 132.407C202.208 135.106 178.813 135.842 178.813 135.842L181.885 123.546Z" fill="#FFD37E"/>
<path d="M166.674 182.289C166.674 195.42 157.515 206.074 146.217 206.074C134.92 206.074 125.761 195.42 125.761 182.289C125.761 169.157 135.034 156.397 146.334 156.397C157.633 156.397 166.674 169.152 166.674 182.289Z" fill="#36334A"/>
<path opacity="0.1" d="M146.218 203.076C155.281 203.076 162.628 194.16 162.628 183.163C162.628 172.165 155.281 163.249 146.218 163.249C137.155 163.249 129.808 172.165 129.808 183.163C129.808 194.16 137.155 203.076 146.218 203.076Z" fill="black"/>
<path d="M55.8503 203.932C67.148 203.932 76.3066 193.291 76.3066 180.165C76.3066 167.039 67.148 156.397 55.8503 156.397C44.5526 156.397 35.394 167.039 35.394 180.165C35.394 193.291 44.5526 203.932 55.8503 203.932Z" fill="#36334A"/>
<path d="M90.6934 123.423C90.6934 123.423 81.2577 123.904 81.718 129.194C82.1782 134.484 89.7729 130.637 89.7729 130.637L90.6934 123.423Z" fill="#36334A"/>
<path d="M170.792 132.322L174.751 104.567C174.751 104.567 175.69 101.117 163.022 101.117C163.022 101.117 122.44 98.4072 112.119 102.842C112.119 102.842 100.156 107.523 83.5005 131.669C83.5005 131.669 169.15 133.8 170.792 132.322Z" fill="#3D426C"/>
<path d="M169.372 103.295L162.115 133.701L157.564 133.584L136.029 133.031L87.9967 131.795C87.8633 129.392 110.609 104.531 110.609 104.531L169.372 103.295Z" fill="#36334A"/>
<path opacity="0.2" d="M135.652 133.141L137.619 125.044C137.619 125.044 135.742 113.826 144.426 113.576C153.111 113.326 150.294 129.82 150.294 129.82C150.294 129.82 156.28 131.187 157.233 133.701L135.652 133.141Z" fill="#FFD37E"/>
<path d="M252.034 170.29C250.631 155.989 241.863 152.907 241.863 152.907C233.447 152.414 227.835 186.194 227.835 186.194L163.072 192.358C163.072 192.358 165.294 163.633 149.629 158.948C133.964 154.263 129.873 187.92 129.171 192.604C128.47 197.289 34.7156 192.111 32.1438 190.139C29.572 188.166 30.5072 169.18 31.2086 167.701C31.91 166.222 33.7804 159.564 33.7804 159.564C33.7804 157.976 34.5005 155.969 35.099 154.576C35.5199 153.59 35.8846 152.907 35.8846 152.907C37.9163 140.756 48.4655 137.815 49.1739 137.62H49.2113C52.0169 134.661 77.9688 132.688 77.9688 132.688L87.7885 130.716L167.625 132.37L171.022 132.442L211.61 130.383L239.058 128.99C245.371 128.99 248.644 145.757 248.644 145.757C254.489 160.551 252.034 170.29 252.034 170.29Z" fill="#3D426C"/>
<path opacity="0.1" d="M120.415 155.68C126.581 153.055 130.321 147.616 128.767 143.532C127.214 139.448 120.955 138.265 114.789 140.89C108.622 143.515 104.882 148.954 106.436 153.038C107.989 157.122 114.248 158.304 120.415 155.68Z" fill="black"/>
<path d="M119.947 154.689C126.114 152.064 129.854 146.626 128.3 142.542C126.747 138.458 120.488 137.275 114.321 139.9C108.154 142.525 104.415 147.964 105.968 152.047C107.522 156.131 113.781 157.314 119.947 154.689Z" fill="#F2F2F2"/>
<path opacity="0.1" d="M49.7809 137.983C49.659 140.699 48.4808 144.126 46.361 147.428C42.9507 152.742 38.2738 155.87 35.394 154.954C35.8242 153.967 36.197 153.283 36.197 153.283C38.2738 141.114 49.0568 138.168 49.7809 137.983Z" fill="black"/>
<path d="M48.8821 137.555C48.764 140.271 47.6226 143.698 45.5691 147C42.2654 152.314 37.7346 155.442 34.9448 154.526C35.3616 153.538 35.7227 152.854 35.7227 152.854C37.7346 140.686 48.1806 137.74 48.8821 137.555Z" fill="#F2F2F2"/>
<path d="M81.8045 144.835H63.3058L62.3691 142.265H84.8486L81.8045 144.835Z" fill="#22264C"/>
<path d="M77.6555 164.962H47.0835V174.384H77.6555V164.962Z" fill="#22264C"/>
<path opacity="0.1" d="M110.251 183.377C112.609 183.377 114.522 181.364 114.522 178.88C114.522 176.397 112.609 174.384 110.251 174.384C107.892 174.384 105.979 176.397 105.979 178.88C105.979 181.364 107.892 183.377 110.251 183.377Z" fill="black"/>
<path d="M109.801 182.52C112.16 182.52 114.072 180.603 114.072 178.238C114.072 175.873 112.16 173.955 109.801 173.955C107.442 173.955 105.53 175.873 105.53 178.238C105.53 180.603 107.442 182.52 109.801 182.52Z" fill="#F2F2F2"/>
<path d="M218.423 155.56C215.852 163.959 215.618 177.053 215.618 177.053L214.683 180.511L169.1 185.946C169.1 185.946 169.333 161.736 170.035 150.372C170.528 142.355 168.698 135.569 167.573 132.266L170.97 132.337L211.55 130.275C218.329 135.297 220.73 148.017 218.423 155.56Z" fill="#3D426C"/>
<path d="M208.179 140.406C208.024 140.418 207.872 140.467 207.735 140.55C207.597 140.634 207.476 140.75 207.379 140.891C207.283 141.031 207.212 141.194 207.173 141.368C207.134 141.542 207.127 141.724 207.152 141.901C207.173 142.05 207.226 142.19 207.305 142.31C207.384 142.429 207.488 142.524 207.606 142.587C208.34 143.01 213.225 142.062 215.077 141.683C215.351 141.632 215.603 141.477 215.792 141.242C215.982 141.008 216.1 140.707 216.126 140.387C216.149 140.014 216.031 139.696 215.558 139.696L208.179 140.406Z" fill="#F2F2F2"/>
<path d="M167.573 131.346C167.573 131.346 168.728 136.811 174.268 135.072L176.115 127.371L172.422 125.136L167.573 131.346Z" fill="#36334A"/>
<path d="M174.39 120.378C176.965 118.809 181.049 117.438 185.089 120.732C185.93 121.414 186.523 122.368 186.773 123.439C187.023 124.51 186.916 125.636 186.468 126.636C185.145 129.579 182.007 132.772 174.678 128.949C173.959 128.573 173.345 128.015 172.894 127.327L172.857 127.269C172.502 126.718 172.26 126.099 172.145 125.448C172.03 124.798 172.045 124.131 172.188 123.486C172.332 122.842 172.601 122.234 172.979 121.7C173.358 121.166 173.838 120.716 174.39 120.378Z" fill="#36334A"/>
<path d="M146.218 187.231C148.825 187.231 150.938 184.93 150.938 182.092C150.938 179.254 148.825 176.953 146.218 176.953C143.611 176.953 141.497 179.254 141.497 182.092C141.497 184.93 143.611 187.231 146.218 187.231Z" fill="#F2F2F2"/>
<path d="M242.879 178.238C244.245 178.238 245.352 176.033 245.352 173.313C245.352 170.593 244.245 168.388 242.879 168.388C241.513 168.388 240.406 170.593 240.406 173.313C240.406 176.033 241.513 178.238 242.879 178.238Z" fill="#F2F2F2"/>
<path d="M146.443 167.104H145.993C144.503 167.104 143.295 168.418 143.295 170.04V172.732C143.295 174.354 144.503 175.668 145.993 175.668H146.443C147.932 175.668 149.14 174.354 149.14 172.732V170.04C149.14 168.418 147.932 167.104 146.443 167.104Z" fill="#36334A"/>
<path d="M242.797 157.254C243.014 157.254 243.229 157.3 243.43 157.391C243.631 157.481 243.814 157.614 243.968 157.781C244.122 157.948 244.244 158.146 244.327 158.364C244.41 158.582 244.453 158.816 244.453 159.053V163.164C244.453 163.981 244.154 164.766 243.621 165.344C243.089 165.922 242.366 166.247 241.613 166.247C241.174 166.247 240.753 166.058 240.442 165.72C240.132 165.383 239.957 164.925 239.957 164.448V160.337C239.957 159.519 240.256 158.735 240.789 158.157C241.321 157.579 242.043 157.254 242.797 157.254Z" fill="#36334A"/>
<path d="M242.952 188.944C242.158 188.944 241.396 188.635 240.834 188.084C240.273 187.533 239.957 186.786 239.957 186.007V183.316C239.957 182.537 240.273 181.79 240.834 181.239C241.396 180.689 242.158 180.379 242.952 180.379C244.599 180.379 244.449 181.701 244.449 183.316V186.007C244.447 187.623 244.604 188.944 242.952 188.944Z" fill="#36334A"/>
<path d="M235.911 168.817C236.626 168.817 237.312 169.126 237.818 169.677C238.324 170.227 238.608 170.974 238.608 171.753V175.424C238.608 175.943 238.419 176.441 238.082 176.808C237.744 177.175 237.287 177.381 236.81 177.381C236.094 177.381 235.408 177.072 234.902 176.521C234.397 175.971 234.112 175.224 234.112 174.445V170.774C234.112 170.255 234.302 169.757 234.639 169.39C234.976 169.023 235.434 168.817 235.911 168.817Z" fill="#36334A"/>
<path d="M231.864 169.245C231.864 169.687 231.864 170.129 231.837 170.565C231.774 172.266 231.579 173.958 231.253 175.625C231.091 175.653 230.927 175.668 230.762 175.668C229.981 175.668 229.233 175.344 228.68 174.765C228.128 174.187 227.818 173.403 227.818 172.585V169.759C227.818 168.941 228.128 168.157 228.68 167.578C229.233 167 229.981 166.675 230.762 166.675C231.019 166.675 231.275 166.71 231.523 166.781C231.611 166.806 231.7 166.835 231.783 166.868C231.837 167.649 231.864 168.443 231.864 169.245Z" fill="#36334A"/>
<path d="M158.374 177.381H157.89C156.285 177.381 154.985 178.696 154.985 180.318V183.01C154.985 184.631 156.285 185.946 157.89 185.946H158.374C159.978 185.946 161.279 184.631 161.279 183.01V180.318C161.279 178.696 159.978 177.381 158.374 177.381Z" fill="#36334A"/>
<path d="M135.445 177.381H134.961C133.356 177.381 132.056 178.696 132.056 180.318V183.01C132.056 184.631 133.356 185.946 134.961 185.946H135.445C137.049 185.946 138.35 184.631 138.35 183.01V180.318C138.35 178.696 137.049 177.381 135.445 177.381Z" fill="#36334A"/>
<path d="M146.685 190.229H146.2C144.596 190.229 143.295 191.543 143.295 193.165V195.857C143.295 197.479 144.596 198.794 146.2 198.794H146.685C148.289 198.794 149.59 197.479 149.59 195.857V193.165C149.59 191.543 148.289 190.229 146.685 190.229Z" fill="#36334A"/>
<path d="M150.885 14.5413L146.392 17.2758L149.119 12.5128C148.347 11.9213 147.391 11.5938 146.404 11.5818H146.331C146.019 11.5863 145.707 11.564 145.399 11.5151L143.876 12.4405L144.528 11.3012C143.448 10.9397 142.515 10.2586 141.864 9.35594L139.14 11.0233L140.86 8.0193C139.267 6.18245 137.119 5.05701 134.754 5.05701C131.92 5.05701 129.395 6.67432 127.765 9.19477C127.284 9.95157 126.601 10.5717 125.787 10.9917C124.973 11.4116 124.057 11.6163 123.133 11.5846H122.983C119.853 11.5846 117.317 14.9915 117.317 19.1904C117.317 23.3893 119.865 26.799 122.995 26.799C123.682 26.7956 124.358 26.6325 124.966 26.3238C126.031 25.8264 127.196 25.5573 128.381 25.5352C129.565 25.5132 130.74 25.7386 131.824 26.196C132.741 26.5898 133.735 26.7934 134.74 26.7934C135.744 26.7934 136.738 26.5898 137.655 26.196C138.731 25.7482 139.894 25.5278 141.067 25.5498C142.239 25.5719 143.393 25.8359 144.449 26.3238C145.052 26.6299 145.722 26.7929 146.404 26.799C149.533 26.799 152.069 23.3921 152.069 19.1904C152.088 17.5698 151.681 15.9709 150.885 14.5413Z" fill="#F2F2F2"/>
<path d="M201.477 8.49939L198.843 10.1028L200.441 7.32392C199.989 6.97357 199.429 6.77796 198.849 6.76814H198.805C198.622 6.7706 198.439 6.75759 198.258 6.72924L197.366 7.28502L197.748 6.6153C197.116 6.40373 196.569 6.00601 196.185 5.47874L194.587 6.45135L195.597 4.68953C195.172 4.16255 194.631 3.73302 194.011 3.43212C193.392 3.13122 192.71 2.96651 192.016 2.94995C190.355 2.94995 188.872 3.90033 187.917 5.3787C187.633 5.81923 187.233 6.17983 186.757 6.42387C186.281 6.66791 185.746 6.78668 185.207 6.76814H185.117C183.282 6.76814 181.797 8.76616 181.797 11.2144C181.797 13.6626 183.282 15.6745 185.117 15.6745C185.521 15.6738 185.919 15.5784 186.275 15.3966C186.9 15.1053 187.583 14.9477 188.277 14.9347C188.972 14.9218 189.661 15.0538 190.297 15.3216C190.835 15.5515 191.417 15.6703 192.006 15.6703C192.595 15.6703 193.178 15.5515 193.716 15.3216C194.347 15.0591 195.03 14.93 195.717 14.9429C196.405 14.9559 197.082 15.1106 197.702 15.3966C198.059 15.5771 198.456 15.6725 198.86 15.6745C200.696 15.6745 202.184 13.6792 202.184 11.2144C202.188 10.2669 201.945 9.3335 201.477 8.49939Z" fill="#F2F2F2"/>
</g>
<defs>
<linearGradient id="paint0_linear" x1="4536.92" y1="6609.76" x2="4714.53" y2="6608.83" gradientUnits="userSpaceOnUse">
<stop stop-color="#808080" stop-opacity="0.25"/>
<stop offset="0.54" stop-color="#808080" stop-opacity="0.12"/>
<stop offset="1" stop-color="#808080" stop-opacity="0.1"/>
</linearGradient>
<clipPath id="clip0">
<rect width="463" height="303" fill="white"/>
</clipPath>
</defs>
</svg>
