<svg width="623" height="463" viewBox="0 0 623 463" fill="none" xmlns="http://www.w3.org/2000/svg">
<g clip-path="url(#clip0)">
<path d="M174.948 104.759C200.358 104.759 220.957 86.4766 220.957 63.9238C220.957 41.3709 200.358 23.0883 174.948 23.0883C149.538 23.0883 128.939 41.3709 128.939 63.9238C128.939 86.4766 149.538 104.759 174.948 104.759Z" fill="#FF6584"/>
<path d="M443.609 75.8299H388.422V31.3008L443.609 75.8299Z" fill="#3F3D56"/>
<path d="M450.057 74.3722H172.429V414.806H450.057V74.3722Z" fill="#E6E6E6"/>
<path d="M232.789 98.2415H200.127V159.327H232.789V98.2415Z" fill="white"/>
<path d="M283.311 98.2415H250.648V159.327H283.311V98.2415Z" fill="white"/>
<path d="M228.484 184.822H195.822V245.908H228.484V184.822Z" fill="white"/>
<path d="M283.311 184.822H250.648V245.908H283.311V184.822Z" fill="white"/>
<path d="M228.484 264.933H195.822V326.018H228.484V264.933Z" fill="white"/>
<path d="M282.08 263.841H249.418V324.927H282.08V263.841Z" fill="white"/>
<path d="M329.554 353.857H296.892V414.943H329.554V353.857Z" fill="#CCCCCC"/>
<path d="M378.901 263.841H346.238V324.927H378.901V263.841Z" fill="white"/>
<path d="M433.727 263.841H401.064V324.927H433.727V263.841Z" fill="white"/>
<path d="M380.131 184.175H347.469V245.261H380.131V184.175Z" fill="white"/>
<path d="M434.956 184.175H402.294V245.261H434.956V184.175Z" fill="white"/>
<path d="M380.131 98.2415H347.469V159.327H380.131V98.2415Z" fill="white"/>
<path d="M434.956 98.2415H402.294V159.327H434.956V98.2415Z" fill="white"/>
<path d="M450.057 153.059H172.429V162.377H450.057V153.059Z" fill="#3F3D56"/>
<path d="M450.057 225.533H172.429V230.71H450.057V225.533Z" fill="#3F3D56"/>
<path d="M450.057 208.968H172.429V214.144H450.057V208.968Z" fill="#3F3D56"/>
<path d="M199.842 330.103V288.689H194.009V330.103H199.842Z" fill="#3F3D56"/>
<path d="M232.504 330.103V288.689H226.671V330.103H232.504Z" fill="#3F3D56"/>
<path d="M265.166 330.103V288.689H259.333V330.103H265.166Z" fill="#3F3D56"/>
<path d="M297.828 330.103V288.689H291.996V330.103H297.828Z" fill="#3F3D56"/>
<path d="M330.49 330.103V288.689H324.658V330.103H330.49Z" fill="#3F3D56"/>
<path d="M363.153 330.103V288.689H357.321V330.103H363.153Z" fill="#3F3D56"/>
<path d="M395.815 330.103V288.689H389.983V330.103H395.815Z" fill="#3F3D56"/>
<path d="M428.478 330.103V288.689H422.645V330.103H428.478Z" fill="#3F3D56"/>
<path d="M200.425 251.417V210.003H194.592V251.417H200.425Z" fill="#3F3D56"/>
<path d="M233.087 251.417V210.003H227.254V251.417H233.087Z" fill="#3F3D56"/>
<path d="M265.75 251.417V210.003H259.917V251.417H265.75Z" fill="#3F3D56"/>
<path d="M298.412 251.417V210.003H292.58V251.417H298.412Z" fill="#3F3D56"/>
<path d="M331.074 251.417V210.003H325.242V251.417H331.074Z" fill="#3F3D56"/>
<path d="M363.736 251.417V210.003H357.904V251.417H363.736Z" fill="#3F3D56"/>
<path d="M396.398 251.417V210.003H390.566V251.417H396.398Z" fill="#3F3D56"/>
<path d="M429.061 251.417V210.003H423.228V251.417H429.061Z" fill="#3F3D56"/>
<path d="M200.425 159.271V117.857H194.592V159.271H200.425Z" fill="#3F3D56"/>
<path d="M233.087 159.271V117.857H227.254V159.271H233.087Z" fill="#3F3D56"/>
<path d="M265.75 159.271V117.857H259.917V159.271H265.75Z" fill="#3F3D56"/>
<path d="M298.412 159.271V117.857H292.58V159.271H298.412Z" fill="#3F3D56"/>
<path d="M331.074 159.271V117.857H325.242V159.271H331.074Z" fill="#3F3D56"/>
<path d="M363.736 159.271V117.857H357.904V159.271H363.736Z" fill="#3F3D56"/>
<path d="M396.398 159.271V117.857H390.566V159.271H396.398Z" fill="#3F3D56"/>
<path d="M429.061 159.271V117.857H423.228V159.271H429.061Z" fill="#3F3D56"/>
<path d="M450.057 132.352H172.429V137.528H450.057V132.352Z" fill="#3F3D56"/>
<path d="M450.057 115.786H172.429V120.963H450.057V115.786Z" fill="#3F3D56"/>
<path d="M450.057 243.134H172.429V252.452H450.057V243.134Z" fill="#3F3D56"/>
<path d="M462.833 70.5416H159.653V84.4271H462.833V70.5416Z" fill="#3F3D56"/>
<path d="M232.851 367.066V353.857H214.992V367.066H231.362H232.851Z" fill="white"/>
<path d="M231.362 377.633H214.992V390.842H232.851V377.633H231.362Z" fill="white"/>
<path d="M262.615 353.857H244.757V367.066H262.615V353.857Z" fill="white"/>
<path d="M262.615 377.633H244.757V390.842H262.615V377.633Z" fill="white"/>
<path d="M378.507 367.066V353.857H360.648V367.066H377.019H378.507Z" fill="white"/>
<path d="M377.019 377.633H360.648V390.842H378.507V377.633H377.019Z" fill="white"/>
<path d="M408.271 353.857H390.412V367.066H408.271V353.857Z" fill="white"/>
<path d="M408.271 377.633H390.412V390.842H408.271V377.633Z" fill="white"/>
<path d="M450.057 321.821H172.429V331.139H450.057V321.821Z" fill="#3F3D56"/>
<path d="M450.057 305.255H172.429V310.432H450.057V305.255Z" fill="#3F3D56"/>
<path d="M450.057 288.689H172.429V293.866H450.057V288.689Z" fill="#3F3D56"/>
<path d="M256.479 410.369C256.479 410.081 256.475 409.794 256.466 409.509C256.216 401.876 247.686 399.806 243.113 403.419C241.67 402.307 239.823 401.695 237.912 401.695C236 401.695 234.153 402.307 232.71 403.419C228.118 399.863 219.757 401.786 219.481 409.332C219.471 409.617 219.465 409.903 219.465 410.192C219.478 411.778 219.588 413.364 219.793 414.94H256.155C256.353 413.422 256.461 411.897 256.479 410.369Z" fill="#FFD37E"/>
<path d="M400.996 410.369C400.997 410.081 400.993 409.794 400.983 409.509C400.734 401.876 392.204 399.806 387.631 403.419C386.187 402.307 384.34 401.695 382.429 401.695C380.518 401.695 378.671 402.307 377.228 403.419C372.635 399.863 364.275 401.786 363.999 409.332C363.989 409.617 363.983 409.903 363.982 410.192C363.996 411.778 364.105 413.364 364.311 414.94H400.673C400.87 413.422 400.978 411.897 400.996 410.369Z" fill="#FFD37E"/>
<path d="M600.421 415.456H594.798L596.672 317.956H598.547L600.421 415.456Z" fill="#E6E6E6"/>
<path d="M605.107 256.573L614.184 244.121C611.492 237.521 608.383 231.061 604.871 224.771L599.001 228.979L603.649 222.604C599.22 214.865 595.734 209.99 595.734 209.99C595.734 209.99 577.529 235.453 571.447 262.413L583.095 278.391L570.2 269.146C569.74 272.287 569.504 275.45 569.492 278.617C569.492 310.546 581.241 336.43 595.734 336.43C610.228 336.43 621.977 310.546 621.977 278.617C621.977 268.718 619.454 258.362 615.973 248.783L605.107 256.573Z" fill="#E6E6E6"/>
<path d="M580.62 279.083H460.647V357.488H460.72V373.098L478.308 357.488H580.62V279.083Z" fill="#FFD37E"/>
<path d="M428.902 446.531H322.462V450.265H428.902V446.531Z" fill="#E6E6E6"/>
<path d="M623 446.531H515.984V450.265H623V446.531Z" fill="#E6E6E6"/>
<path d="M235.517 446.531H128.939V450.265H235.517V446.531Z" fill="#E6E6E6"/>
<path d="M622.562 414.858H0V415.9H622.562V414.858Z" fill="#3F3D56"/>
<path d="M488.289 432.839L500.823 432.845L500.824 431.079L488.29 431.073L488.289 432.839Z" fill="#3F3D56"/>
<path d="M397.668 431.472L400.254 432.003L498.536 432.049L499.419 430.222C500.961 427.087 501.49 423.633 500.947 420.247C500.524 417.723 499.463 415.215 497.054 414.126L492.693 388.343L438.319 388.256L417.282 403.316C417.282 403.316 407.358 403.158 401.967 409.115C400.022 411.33 398.874 414.014 398.671 416.816L398.459 419.915L397.668 431.472Z" fill="#FFD37E"/>
<path d="M419.254 441.812C425.957 441.812 431.39 436.989 431.39 431.04C431.39 425.092 425.957 420.269 419.254 420.269C412.552 420.269 407.118 425.092 407.118 431.04C407.118 436.989 412.552 441.812 419.254 441.812Z" fill="#3F3D56"/>
<path d="M419.255 436.71C422.782 436.71 425.642 434.171 425.642 431.04C425.642 427.909 422.782 425.371 419.255 425.371C415.727 425.371 412.867 427.909 412.867 431.04C412.867 434.171 415.727 436.71 419.255 436.71Z" fill="#CCCCCC"/>
<path d="M479.139 441.84C485.841 441.84 491.275 437.018 491.275 431.069C491.275 425.12 485.841 420.297 479.139 420.297C472.436 420.297 467.003 425.12 467.003 431.069C467.003 437.018 472.436 441.84 479.139 441.84Z" fill="#3F3D56"/>
<path d="M479.138 436.738C482.666 436.738 485.526 434.2 485.526 431.069C485.526 427.938 482.666 425.4 479.138 425.4C475.611 425.4 472.751 427.938 472.751 431.069C472.751 434.2 475.611 436.738 479.138 436.738Z" fill="#CCCCCC"/>
<path d="M425.64 401.556L454.998 401.567H458.581L464.632 401.571V401.179L464.636 396.457L464.64 391.154H460.615L457.031 391.151L450.683 391.147H447.1L439.771 391.143L425.64 401.556Z" fill="white"/>
<path d="M469.409 401.575L484.925 401.582L484.929 398.88V394.158L484.933 391.166H482.661L479.078 391.162L469.413 391.158L469.409 401.575Z" fill="white"/>
<path d="M462.634 412.699L464.624 412.7L464.626 409.345L462.636 409.344L462.634 412.699Z" fill="#3F3D56"/>
<path d="M433.597 406.328L433.598 404.562L429.818 404.56L429.816 406.326L433.597 406.328Z" fill="#3F3D56"/>
<path d="M432.202 405.336L431.983 405.336C430.881 405.336 429.823 404.946 429.044 404.254C428.264 403.561 427.827 402.623 427.827 401.644C427.828 400.665 428.267 399.727 429.047 399.035C429.827 398.343 430.885 397.955 431.988 397.955L432.207 397.955L432.202 405.336Z" fill="#3F3D56"/>
<path d="M398.459 419.915C399.964 420.06 401.478 419.729 402.734 418.981C403.991 418.233 404.91 417.115 405.329 415.824C405.749 414.533 405.641 413.153 405.026 411.926C404.411 410.698 403.328 409.703 401.967 409.115C400.022 411.33 398.874 414.013 398.672 416.816L398.459 419.915Z" fill="#3F3D56"/>
<path d="M457.031 391.151L464.632 401.179L464.636 396.457L460.616 391.154L457.031 391.151Z" fill="#F2F2F2"/>
<path d="M479.077 391.162L484.928 398.88V394.158L482.661 391.166L479.077 391.162Z" fill="#F2F2F2"/>
<path d="M447.1 391.147L454.998 401.567H458.581L450.683 391.147H447.1Z" fill="#F2F2F2"/>
<path d="M287.758 0.652292L287.677 0.691501C286.801 1.11668 285.819 1.34099 284.821 1.3441C283.822 1.34721 282.839 1.12901 281.96 0.709296C281.909 0.685038 281.859 0.661084 281.809 0.637435C280.929 0.220909 279.947 0.00448045 278.951 0.0075346C277.954 0.0105888 276.974 0.233031 276.098 0.654936L276.022 0.691501C275.147 1.11668 274.165 1.34099 273.167 1.3441C272.168 1.34721 271.185 1.12901 270.306 0.709296C270.253 0.684112 270.201 0.659256 270.149 0.634724C269.28 0.220107 268.309 0.00235116 267.323 0.000801915C266.336 -0.000747331 265.364 0.21396 264.494 0.625845C261.835 1.89686 258.24 4.06998 258.256 6.52418C258.257 6.62123 258.263 6.71819 258.274 6.81468C258.584 9.36338 267.95 10.0128 273.095 8.81166C276.93 9.58841 280.914 9.58841 284.749 8.81166C289.872 10.032 299.429 9.33286 299.708 6.75492C299.719 6.65833 299.724 6.56133 299.723 6.4643C299.707 4.00877 296.081 1.85842 293.405 0.605296C292.532 0.199953 291.56 -0.00784312 290.575 0.000355602C289.589 0.00855432 288.622 0.232491 287.758 0.652292Z" fill="#E6E6E6"/>
<path d="M545.788 84.8015L545.707 84.8407C544.831 85.2659 543.849 85.4902 542.851 85.4933C541.853 85.4964 540.869 85.2782 539.99 84.8585C539.939 84.8342 539.889 84.8103 539.839 84.7866C538.96 84.3701 537.978 84.1537 536.981 84.1567C535.985 84.1598 535.004 84.3822 534.128 84.8041L534.053 84.8407C533.177 85.2659 532.195 85.4902 531.197 85.4933C530.198 85.4964 529.215 85.2782 528.336 84.8585C528.283 84.8333 528.231 84.8084 528.179 84.7839C527.31 84.3693 526.339 84.1515 525.353 84.15C524.366 84.1484 523.395 84.3631 522.524 84.775C519.865 86.046 516.27 88.2192 516.286 90.6733C516.287 90.7704 516.293 90.8674 516.305 90.9639C516.614 93.5126 525.98 94.162 531.125 92.9608C534.961 93.7376 538.944 93.7376 542.779 92.9608C547.903 94.1812 557.459 93.482 557.739 90.9041C557.749 90.8075 557.754 90.7105 557.753 90.6135C557.738 88.1579 554.111 86.0076 551.435 84.7545C550.562 84.3491 549.59 84.1413 548.605 84.1495C547.62 84.1577 546.652 84.3817 545.788 84.8015Z" fill="#E6E6E6"/>
<path d="M93.9335 89.4989L93.8524 89.538C92.9765 89.9632 91.9948 90.1875 90.9965 90.1906C89.9981 90.1938 89.0147 89.9756 88.1355 89.5558C88.0848 89.5316 88.0344 89.5076 87.9843 89.484C87.1051 89.0675 86.1232 88.851 85.1266 88.8541C84.13 88.8571 83.1498 89.0796 82.2739 89.5015L82.1982 89.538C81.3223 89.9632 80.3407 90.1875 79.3423 90.1906C78.344 90.1938 77.3606 89.9756 76.4813 89.5558C76.4287 89.5307 76.3764 89.5058 76.3245 89.4813C75.4556 89.0667 74.4848 88.8489 73.4984 88.8474C72.5119 88.8458 71.5403 89.0605 70.6698 89.4724C68.0107 90.7434 64.4159 92.9165 64.4317 95.3707C64.4323 95.4678 64.4385 95.5647 64.4503 95.6612C64.7595 98.2099 74.1255 98.8593 79.2707 97.6582C83.1061 98.435 87.0894 98.435 90.9249 97.6582C96.0481 98.8786 105.605 98.1794 105.884 95.6015C105.894 95.5049 105.899 95.4079 105.899 95.3108C105.883 92.8553 102.256 90.705 99.5806 89.4518C98.7077 89.0465 97.7355 88.8387 96.7504 88.8469C95.7653 88.8551 94.7977 89.0791 93.9335 89.4989Z" fill="#E6E6E6"/>
<path d="M77.237 452.236H64.7031V454.002H77.237V452.236Z" fill="#3F3D56"/>
<path d="M167.859 452.631L165.272 453.162L66.9908 453.209L66.107 451.381C64.5656 448.247 64.0366 444.793 64.579 441.407C65.0023 438.883 66.063 436.375 68.4721 435.285L72.8335 409.502L127.208 409.416L148.245 424.476C148.245 424.476 158.168 424.318 163.56 430.275C165.504 432.49 166.653 435.173 166.855 437.976L167.068 441.074L167.859 452.631Z" fill="#FFD37E"/>
<path d="M146.272 462.972C152.974 462.972 158.408 458.149 158.408 452.2C158.408 446.251 152.974 441.429 146.272 441.429C139.569 441.429 134.136 446.251 134.136 452.2C134.136 458.149 139.569 462.972 146.272 462.972Z" fill="#3F3D56"/>
<path d="M146.272 457.869C149.8 457.869 152.66 455.331 152.66 452.2C152.66 449.069 149.8 446.531 146.272 446.531C142.744 446.531 139.885 449.069 139.885 452.2C139.885 455.331 142.744 457.869 146.272 457.869Z" fill="#CCCCCC"/>
<path d="M86.388 463C93.0905 463 98.5239 458.177 98.5239 452.228C98.5239 446.28 93.0905 441.457 86.388 441.457C79.6854 441.457 74.252 446.28 74.252 452.228C74.252 458.177 79.6854 463 86.388 463Z" fill="#3F3D56"/>
<path d="M86.3884 457.898C89.916 457.898 92.7757 455.36 92.7757 452.229C92.7757 449.098 89.916 446.559 86.3884 446.559C82.8607 446.559 80.001 449.098 80.001 452.229C80.001 455.36 82.8607 457.898 86.3884 457.898Z" fill="#CCCCCC"/>
<path d="M139.887 422.715L110.529 422.727H106.946L100.895 422.731V422.339L100.891 417.617L100.887 412.314H104.912L108.496 412.31L114.843 412.306H118.427L125.756 412.302L139.887 422.715Z" fill="white"/>
<path d="M96.1176 422.735L80.6022 422.742L80.598 420.04V415.318L80.5938 412.325H82.8655L86.4492 412.322L96.1134 412.318L96.1176 422.735Z" fill="white"/>
<path d="M102.889 430.502H100.899V433.857H102.889V430.502Z" fill="#3F3D56"/>
<path d="M135.713 427.484L135.712 425.718L131.932 425.72L131.933 427.486L135.713 427.484Z" fill="#3F3D56"/>
<path d="M133.322 419.114H133.541C134.087 419.114 134.628 419.209 135.132 419.395C135.637 419.58 136.095 419.852 136.481 420.195C136.867 420.538 137.174 420.944 137.383 421.392C137.592 421.84 137.699 422.32 137.699 422.804C137.699 423.783 137.261 424.722 136.481 425.414C135.702 426.106 134.644 426.495 133.541 426.495H133.322V419.114H133.322Z" fill="#3F3D56"/>
<path d="M167.068 441.075C165.564 441.22 164.05 440.889 162.793 440.141C161.536 439.392 160.617 438.275 160.198 436.984C159.779 435.693 159.886 434.313 160.501 433.085C161.116 431.858 162.199 430.863 163.56 430.275C165.505 432.49 166.653 435.173 166.855 437.976L167.068 441.075Z" fill="#3F3D56"/>
<path d="M108.495 412.31L100.895 422.339L100.891 417.617L104.912 412.314L108.495 412.31Z" fill="#F2F2F2"/>
<path d="M86.4489 412.322L80.5977 420.04V415.318L82.8652 412.325L86.4489 412.322Z" fill="#F2F2F2"/>
<path d="M118.427 412.306L110.529 422.727H106.945L114.843 412.306H118.427Z" fill="#F2F2F2"/>
<path d="M516.431 334.996L501.11 317.513L510.019 311.363L517.273 319.64L541.779 296.681L549.973 303.572L516.431 334.996Z" fill="white"/>
<path d="M4.44531 298.922H124.418V377.327H124.345V392.937L106.758 377.327H4.44531V298.922Z" fill="#FFD37E"/>
<path d="M61.0315 356.702L45.7109 339.219L54.6207 333.068L61.8743 341.346L86.3794 318.387L94.574 325.277L61.0315 356.702Z" fill="white"/>
</g>
<defs>
<clipPath id="clip0">
<rect width="623" height="463" fill="white"/>
</clipPath>
</defs>
</svg>
