<svg width="578" height="405" viewBox="0 0 578 405" fill="none" xmlns="http://www.w3.org/2000/svg">
<g clip-path="url(#clip0)">
<path opacity="0.1" d="M330.889 405C366.456 405 395.289 399.116 395.289 391.857C395.289 384.599 366.456 378.714 330.889 378.714C295.322 378.714 266.489 384.599 266.489 391.857C266.489 399.116 295.322 405 330.889 405Z" fill="#FFD37E"/>
<path opacity="0.1" d="M562.526 343.302C549.732 353.443 531.525 357.639 513.917 360.29L510.953 360.722C480.177 365.109 448.781 366.003 417.532 366.887C330.375 369.352 242.992 371.811 156.066 366.129C117.624 363.618 78.2306 359.221 44.5385 344.19L43.661 343.794C43.2249 343.598 42.7887 343.402 42.3526 343.196C36.3705 340.468 30.6402 337.262 25.2228 333.613C15.6017 327.056 7.65685 319.054 3.45847 309.561C-3.12023 294.671 0.358284 277.934 7.87228 263.375C15.3863 248.816 26.6836 235.704 36.4255 221.994C39.284 217.977 41.9953 213.811 44.5175 209.538C60.2811 182.746 68.0999 151.741 51.5743 125.922C49.3931 122.63 47.0377 119.446 44.5175 116.383C40.4872 111.363 36.3887 106.343 33.6196 100.786C27.1617 87.8536 28.5489 73.3101 30.903 59.4945C34.0557 41.1256 39.862 21.341 57.9008 9.86476C76.6438 -2.0532 103.248 -1.45078 126.509 2.83648C162.676 9.45813 196.059 23.3189 229.756 35.8192C263.453 48.3195 298.774 59.7054 335.824 60.9303C368.539 62.0197 406.703 53.902 428.425 32.777C449.522 12.2694 489.168 10.7182 517.752 23.103C545.029 34.9206 562.668 59.9313 561.365 84.9118C559.705 116.087 532.502 141.053 510.974 167.595C507.396 172.007 503.97 176.47 500.843 181.009C490.639 195.833 483.424 213.64 490.45 229.644C494.391 238.605 501.91 245.443 510.974 251.412C531.283 264.781 559.316 273.777 571.927 292.492C582.788 308.637 578.763 330.425 562.526 343.302Z" fill="#FFD37E"/>
<path d="M511.004 359.351C527.548 359.351 540.96 356.888 540.96 353.849C540.96 350.81 527.548 348.347 511.004 348.347C494.46 348.347 481.048 350.81 481.048 353.849C481.048 356.888 494.46 359.351 511.004 359.351Z" fill="#FFD37E"/>
<path d="M510.506 355.872C512.433 355.872 513.995 353.919 513.995 351.51C513.995 349.1 512.433 347.147 510.506 347.147C508.579 347.147 507.017 349.1 507.017 351.51C507.017 353.919 508.579 355.872 510.506 355.872Z" fill="#3F3D56"/>
<path d="M510.506 350.541C512.433 350.541 513.995 348.588 513.995 346.178C513.995 343.769 512.433 341.816 510.506 341.816C508.579 341.816 507.017 343.769 507.017 346.178C507.017 348.588 508.579 350.541 510.506 350.541Z" fill="#3F3D56"/>
<path d="M510.506 345.204C512.433 345.204 513.995 343.251 513.995 340.842C513.995 338.432 512.433 336.479 510.506 336.479C508.579 336.479 507.017 338.432 507.017 340.842C507.017 343.251 508.579 345.204 510.506 345.204Z" fill="#3F3D56"/>
<path d="M510.506 339.873C512.433 339.873 513.995 337.92 513.995 335.51C513.995 333.101 512.433 331.148 510.506 331.148C508.579 331.148 507.017 333.101 507.017 335.51C507.017 337.92 508.579 339.873 510.506 339.873Z" fill="#3F3D56"/>
<path d="M510.506 334.541C512.433 334.541 513.995 332.588 513.995 330.179C513.995 327.769 512.433 325.816 510.506 325.816C508.579 325.816 507.017 327.769 507.017 330.179C507.017 332.588 508.579 334.541 510.506 334.541Z" fill="#3F3D56"/>
<path d="M510.506 329.21C512.433 329.21 513.995 327.257 513.995 324.847C513.995 322.438 512.433 320.485 510.506 320.485C508.579 320.485 507.017 322.438 507.017 324.847C507.017 327.257 508.579 329.21 510.506 329.21Z" fill="#3F3D56"/>
<path d="M510.506 323.879C512.433 323.879 513.995 321.925 513.995 319.516C513.995 317.107 512.433 315.153 510.506 315.153C508.579 315.153 507.017 317.107 507.017 319.516C507.017 321.925 508.579 323.879 510.506 323.879Z" fill="#3F3D56"/>
<path d="M523.563 283.029C524.04 282.45 524.474 281.839 524.861 281.202L515.697 279.766L525.607 279.836C526.561 277.86 527.081 275.718 527.136 273.542C527.191 271.367 526.78 269.203 525.927 267.185L512.628 273.787L524.892 265.177C523.746 263.275 522.202 261.618 520.356 260.312C518.51 259.005 516.402 258.076 514.163 257.583C511.924 257.09 509.603 257.044 507.344 257.446C505.086 257.849 502.939 258.692 501.037 259.924C499.135 261.155 497.519 262.748 496.29 264.602C495.062 266.457 494.246 268.534 493.896 270.703C493.545 272.873 493.667 275.088 494.253 277.21C494.838 279.333 495.876 281.317 497.301 283.039C496.556 283.941 495.917 284.917 495.393 285.951L507.29 291.86L494.605 287.793C493.713 290.309 493.493 292.997 493.964 295.615C494.434 298.233 495.581 300.697 497.301 302.784C495.363 305.139 494.158 307.967 493.823 310.945C493.488 313.924 494.038 316.932 495.408 319.627C496.778 322.321 498.914 324.593 501.572 326.182C504.23 327.771 507.302 328.614 510.437 328.614C513.572 328.614 516.645 327.771 519.302 326.182C521.96 324.593 524.096 322.321 525.466 319.627C526.837 316.932 527.386 313.924 527.051 310.945C526.716 307.967 525.511 305.139 523.573 302.784C525.892 299.971 527.152 296.494 527.152 292.914C527.152 289.333 525.892 285.857 523.573 283.044L523.563 283.029Z" fill="#FFD37E"/>
<path opacity="0.1" d="M493.723 292.899C493.718 296.48 494.979 299.957 497.301 302.769C495.363 305.124 494.158 307.952 493.823 310.93C493.489 313.909 494.038 316.917 495.408 319.612C496.778 322.306 498.914 324.578 501.572 326.167C504.23 327.756 507.302 328.599 510.437 328.599C513.573 328.599 516.645 327.756 519.303 326.167C521.96 324.578 524.096 322.306 525.467 319.612C526.837 316.917 527.386 313.909 527.051 310.93C526.717 307.952 525.511 305.124 523.574 302.769C525.802 300.053 493.723 291.107 493.723 292.899Z" fill="black"/>
<path d="M70.7944 338.317C70.7944 341.123 59.3342 343.442 44.5216 343.774H43.6441C43.208 343.578 42.7719 343.382 42.3357 343.176C36.3598 340.454 30.6348 337.255 25.2217 333.613C28.821 333.211 32.9143 332.94 37.3071 332.85H37.9009C38.8572 332.85 39.8293 332.82 40.8119 332.82C41.453 332.82 42.0888 332.82 42.7141 332.82H43.3341C43.7334 332.82 44.1275 332.82 44.5164 332.82C59.3342 333.186 70.7944 335.535 70.7944 338.317Z" fill="#FFD37E"/>
<path d="M40.3337 340.34C42.2607 340.34 43.8228 338.387 43.8228 335.977C43.8228 333.568 42.2607 331.615 40.3337 331.615C38.4068 331.615 36.8447 333.568 36.8447 335.977C36.8447 338.387 38.4068 340.34 40.3337 340.34Z" fill="#3F3D56"/>
<path d="M40.3337 335.008C42.2607 335.008 43.8228 333.055 43.8228 330.646C43.8228 328.236 42.2607 326.283 40.3337 326.283C38.4068 326.283 36.8447 328.236 36.8447 330.646C36.8447 333.055 38.4068 335.008 40.3337 335.008Z" fill="#3F3D56"/>
<path d="M40.3337 329.677C42.2607 329.677 43.8228 327.724 43.8228 325.314C43.8228 322.905 42.2607 320.952 40.3337 320.952C38.4068 320.952 36.8447 322.905 36.8447 325.314C36.8447 327.724 38.4068 329.677 40.3337 329.677Z" fill="#3F3D56"/>
<path d="M40.3337 324.345C42.2607 324.345 43.8228 322.392 43.8228 319.983C43.8228 317.574 42.2607 315.62 40.3337 315.62C38.4068 315.62 36.8447 317.574 36.8447 319.983C36.8447 322.392 38.4068 324.345 40.3337 324.345Z" fill="#3F3D56"/>
<path d="M40.3337 319.014C42.2607 319.014 43.8228 317.061 43.8228 314.651C43.8228 312.242 42.2607 310.289 40.3337 310.289C38.4068 310.289 36.8447 312.242 36.8447 314.651C36.8447 317.061 38.4068 319.014 40.3337 319.014Z" fill="#3F3D56"/>
<path d="M40.3337 313.683C42.2607 313.683 43.8228 311.729 43.8228 309.32C43.8228 306.911 42.2607 304.957 40.3337 304.957C38.4068 304.957 36.8447 306.911 36.8447 309.32C36.8447 311.729 38.4068 313.683 40.3337 313.683Z" fill="#3F3D56"/>
<path d="M40.3337 308.346C42.2607 308.346 43.8228 306.393 43.8228 303.983C43.8228 301.574 42.2607 299.621 40.3337 299.621C38.4068 299.621 36.8447 301.574 36.8447 303.983C36.8447 306.393 38.4068 308.346 40.3337 308.346Z" fill="#3F3D56"/>
<path d="M53.3911 267.497C53.8683 266.918 54.3037 266.309 54.6942 265.674L45.525 264.249L55.4404 264.319C56.3919 262.343 56.9107 260.202 56.9649 258.027C57.0191 255.852 56.6076 253.69 55.7556 251.673L42.4616 258.264L54.7257 249.65C53.5777 247.751 52.0326 246.099 50.1868 244.796C48.341 243.493 46.2341 242.567 43.9973 242.077C41.7606 241.586 39.442 241.541 37.1862 241.944C34.9303 242.347 32.7855 243.189 30.8855 244.419C28.9855 245.649 27.371 247.239 26.1427 249.091C24.9144 250.944 24.0985 253.018 23.7461 255.184C23.3936 257.351 23.5121 259.563 24.0941 261.684C24.6761 263.805 25.7092 265.789 27.1289 267.512C26.3874 268.415 25.7481 269.391 25.2215 270.423L37.1178 276.297L24.4333 272.246C23.5453 274.762 23.3268 277.45 23.7974 280.067C24.268 282.683 25.4129 285.147 27.1289 287.236C25.1911 289.591 23.986 292.419 23.6513 295.398C23.3165 298.376 23.8657 301.385 25.2359 304.079C26.6062 306.773 28.7422 309.045 31.4 310.634C34.0577 312.224 37.1298 313.067 40.2652 313.067C43.4006 313.067 46.4728 312.224 49.1305 310.634C51.7882 309.045 53.9243 306.773 55.2945 304.079C56.6648 301.385 57.2139 298.376 56.8792 295.398C56.5444 292.419 55.3393 289.591 53.4016 287.236C55.7199 284.423 56.9804 280.947 56.9804 277.366C56.9804 273.786 55.7199 270.31 53.4016 267.497H53.3911Z" fill="#FFD37E"/>
<path opacity="0.1" d="M23.5557 277.366C23.5495 280.947 24.8085 284.424 27.1288 287.236C25.191 289.591 23.9859 292.419 23.6512 295.398C23.3164 298.376 23.8656 301.385 25.2358 304.079C26.6061 306.773 28.7421 309.045 31.3999 310.634C34.0576 312.224 37.1297 313.066 40.2651 313.066C43.4005 313.066 46.4727 312.224 49.1304 310.634C51.7881 309.045 53.9242 306.773 55.2945 304.079C56.6647 301.385 57.2138 298.376 56.8791 295.398C56.5443 292.419 55.3392 289.591 53.4015 287.236C55.6294 284.52 23.5557 275.574 23.5557 277.366Z" fill="black"/>
<g opacity="0.2">
<path opacity="0.2" d="M160.706 278.767C160.706 279.239 160.653 279.701 160.601 280.153C156.523 278.586 152.509 276.925 148.557 275.168C146.455 274.903 144.5 273.992 142.987 272.572C141.837 272.02 140.691 271.448 139.551 270.87C139.808 270.351 140.099 269.848 140.423 269.364C142.63 266.021 145.993 263.927 149.697 264.043C153.402 264.158 156.607 266.442 158.593 269.896C160.115 272.619 160.845 275.683 160.706 278.767Z" fill="#3F3D56"/>
<path opacity="0.2" d="M161.315 261.236C161.239 264.312 160.309 267.313 158.619 269.931C156.407 273.265 153.049 275.358 149.345 275.243C149.087 275.243 148.819 275.213 148.583 275.193C146.481 274.928 144.526 274.017 143.013 272.597C141.986 271.668 141.12 270.589 140.449 269.399C138.963 266.668 138.236 263.618 138.337 260.542C138.439 257.465 139.365 254.465 141.027 251.829C143.239 248.485 146.597 246.392 150.301 246.507C154.006 246.623 157.211 248.907 159.197 252.361C160.719 255.086 161.451 258.15 161.315 261.236Z" fill="#3F3D56"/>
<path opacity="0.2" d="M161.873 243.67C162.135 235.736 157.206 229.149 150.862 228.958C144.519 228.766 139.163 235.043 138.901 242.977C138.639 250.911 143.568 257.498 149.912 257.689C156.255 257.881 161.61 251.604 161.873 243.67Z" fill="#3F3D56"/>
<path opacity="0.2" d="M162.452 226.113C162.714 218.179 157.785 211.592 151.441 211.4C145.098 211.209 139.742 217.485 139.48 225.419C139.218 233.353 144.147 239.94 150.491 240.131C156.834 240.323 162.19 234.046 162.452 226.113Z" fill="#3F3D56"/>
<path opacity="0.2" d="M163.032 208.555C163.294 200.621 158.365 194.034 152.021 193.842C145.678 193.651 140.323 199.927 140.06 207.861C139.798 215.795 144.727 222.382 151.071 222.574C157.414 222.765 162.77 216.489 163.032 208.555Z" fill="#3F3D56"/>
<path opacity="0.2" d="M112.511 86.7642C111.006 84.8074 109.644 82.7544 108.433 80.6195L138.762 76.7941L106.142 76.0411C103.227 69.4397 101.753 62.3396 101.809 55.1751C101.865 48.0106 103.45 40.9324 106.468 34.3734L149.555 57.391L110.067 27.7969C114.063 21.6762 119.334 16.4063 125.552 12.315C131.77 8.22368 138.803 5.39842 146.214 4.01493C153.624 2.63143 161.252 2.71929 168.625 4.27304C175.998 5.82678 182.958 8.81318 189.071 13.0465C195.185 17.2799 200.321 22.6696 204.161 28.8805C208.001 35.0915 210.463 41.9908 211.392 49.1494C212.322 56.3081 211.7 63.5729 209.566 70.4922C207.431 77.4115 203.83 83.8372 198.985 89.3697C201.326 92.4136 203.318 95.6888 204.928 99.139L165.114 117.403L207.324 105.269C209.979 113.641 210.409 122.513 208.574 131.084C206.74 139.654 202.698 147.653 196.815 154.356C202.943 162.301 206.608 171.733 207.391 181.575C208.173 191.416 206.04 201.269 201.237 210.006C196.434 218.744 189.154 226.014 180.23 230.985C171.306 235.956 161.097 238.427 150.772 238.116C140.447 237.805 130.422 234.724 121.843 229.226C113.265 223.728 106.479 216.034 102.261 207.024C98.0442 198.014 96.5659 188.053 97.9955 178.278C99.4251 168.504 103.705 159.311 110.346 151.751C103.023 142.258 99.2539 130.689 99.6427 118.903C100.031 107.117 104.556 95.7976 112.49 86.7642H112.511Z" fill="#FFD37E"/>
<path opacity="0.1" d="M209.682 122.217C209.311 134.003 204.786 145.324 196.84 154.346C202.966 162.291 206.628 171.722 207.409 181.562C208.189 191.402 206.056 201.253 201.253 209.989C196.45 218.725 189.172 225.993 180.249 230.964C171.327 235.934 161.12 238.406 150.797 238.096C140.474 237.786 130.45 234.708 121.871 229.212C113.293 223.716 106.506 216.026 102.286 207.019C98.0667 198.012 96.5848 188.053 98.0099 178.279C99.435 168.506 103.71 159.313 110.345 151.751C103.288 142.589 209.877 116.318 209.682 122.217Z" fill="black"/>
</g>
<g opacity="0.2">
<path opacity="0.2" d="M419.408 241.226C419.408 241.562 419.371 241.888 419.334 242.23C416.423 241.129 413.566 239.947 410.764 238.686C409.268 238.495 407.876 237.847 406.797 236.838C405.982 236.442 405.163 236.035 404.354 235.628C404.537 235.26 404.744 234.903 404.974 234.559C406.55 232.179 408.935 230.693 411.573 230.774C414.211 230.854 416.491 232.481 417.905 234.94C418.982 236.871 419.501 239.04 419.408 241.226Z" fill="#3F3D56"/>
<path opacity="0.2" d="M419.838 228.731C419.785 230.92 419.123 233.057 417.92 234.921C416.344 237.29 413.958 238.781 411.32 238.701L410.795 238.666C409.299 238.475 407.907 237.827 406.828 236.818C406.099 236.154 405.484 235.385 405.004 234.539C403.951 232.597 403.435 230.429 403.507 228.243C403.578 226.056 404.235 223.924 405.414 222.049C406.991 219.669 409.381 218.178 412.014 218.258C414.647 218.339 416.938 219.965 418.346 222.425C419.422 224.363 419.937 226.539 419.838 228.731Z" fill="#3F3D56"/>
<path opacity="0.2" d="M420.26 216.25C420.447 210.605 416.94 205.919 412.426 205.782C407.913 205.646 404.103 210.112 403.916 215.757C403.729 221.402 407.237 226.088 411.75 226.225C416.263 226.361 420.073 221.895 420.26 216.25Z" fill="#3F3D56"/>
<path opacity="0.2" d="M420.668 203.757C420.855 198.112 417.348 193.426 412.834 193.289C408.321 193.153 404.511 197.619 404.324 203.264C404.138 208.909 407.645 213.595 412.158 213.731C416.672 213.868 420.482 209.402 420.668 203.757Z" fill="#3F3D56"/>
<path opacity="0.2" d="M421.082 191.264C421.269 185.619 417.762 180.932 413.249 180.796C408.735 180.66 404.925 185.126 404.738 190.771C404.552 196.415 408.059 201.102 412.572 201.238C417.086 201.375 420.896 196.909 421.082 191.264Z" fill="#3F3D56"/>
<path opacity="0.2" d="M385.111 104.606C384.039 103.215 383.069 101.754 382.211 100.233L403.796 97.5125L380.566 96.9753C378.491 92.2776 377.44 87.2248 377.479 82.1259C377.518 77.027 378.645 71.9893 380.792 67.321L411.431 83.6818L383.372 62.6321C386.204 58.2538 389.95 54.4805 394.378 51.5482C398.805 48.6159 403.818 46.5875 409.102 45.5898C414.387 44.5922 419.831 44.6467 425.093 45.75C430.354 46.8532 435.322 48.9815 439.684 52.0019C444.045 55.0222 447.708 58.8696 450.444 63.3037C453.179 67.7378 454.927 72.6632 455.58 77.7721C456.232 82.881 455.775 88.0636 454.236 92.996C452.697 97.9284 450.11 102.505 446.637 106.438C448.306 108.606 449.725 110.939 450.872 113.396L422.555 126.394L452.595 117.759C454.489 123.716 454.797 130.03 453.493 136.129C452.188 142.228 449.311 147.92 445.123 152.69C449.483 158.343 452.09 165.055 452.646 172.057C453.201 179.06 451.683 186.07 448.265 192.287C444.847 198.504 439.667 203.677 433.317 207.214C426.967 210.751 419.703 212.509 412.357 212.288C405.01 212.067 397.877 209.875 391.773 205.963C385.668 202.051 380.839 196.578 377.838 190.167C374.836 183.757 373.783 176.669 374.799 169.714C375.815 162.759 378.858 156.217 383.582 150.837C378.378 144.082 375.699 135.852 375.977 127.469C376.254 119.085 379.471 111.034 385.111 104.606Z" fill="#FFD37E"/>
<path opacity="0.1" d="M454.266 129.818C454.003 138.208 450.781 146.268 445.123 152.69C449.483 158.343 452.09 165.055 452.646 172.057C453.201 179.06 451.683 186.07 448.265 192.287C444.847 198.504 439.667 203.677 433.317 207.214C426.967 210.751 419.703 212.509 412.357 212.288C405.01 212.067 397.877 209.875 391.773 205.963C385.668 202.051 380.839 196.578 377.838 190.167C374.836 183.757 373.783 176.669 374.799 169.714C375.815 162.759 378.858 156.217 383.582 150.837C378.548 144.311 454.403 125.621 454.266 129.818Z" fill="black"/>
</g>
<g opacity="0.2">
<path opacity="0.2" d="M307.391 202.043C307.391 202.379 307.349 202.706 307.312 203.047C304.401 201.946 301.545 200.765 298.742 199.503C297.247 199.312 295.857 198.664 294.78 197.655C293.961 197.259 293.146 196.852 292.337 196.446C292.518 196.077 292.723 195.72 292.952 195.376C294.528 193.002 296.919 191.511 299.551 191.591C302.184 191.671 304.47 193.298 305.883 195.758C306.962 197.687 307.482 199.857 307.391 202.043Z" fill="#3F3D56"/>
<path opacity="0.2" d="M307.779 189.548C307.727 191.737 307.065 193.874 305.861 195.738C304.285 198.107 301.899 199.598 299.262 199.518C299.078 199.518 298.904 199.518 298.736 199.483C297.241 199.292 295.851 198.644 294.774 197.635C294.042 196.973 293.425 196.204 292.946 195.356C291.891 193.414 291.375 191.246 291.448 189.059C291.521 186.872 292.179 184.74 293.361 182.866C294.937 180.486 297.323 178.995 299.961 179.076C302.598 179.156 304.879 180.782 306.266 183.242C307.349 185.178 307.872 187.355 307.779 189.548Z" fill="#3F3D56"/>
<path opacity="0.2" d="M307.8 176.581C307.978 170.934 304.461 166.25 299.945 166.121C295.43 165.991 291.625 170.465 291.448 176.113C291.271 181.76 294.787 186.444 299.303 186.573C303.819 186.703 307.623 182.229 307.8 176.581Z" fill="#3F3D56"/>
<path opacity="0.2" d="M308.618 164.573C308.804 158.928 305.297 154.242 300.784 154.106C296.27 153.969 292.46 158.435 292.274 164.08C292.087 169.725 295.594 174.411 300.108 174.548C304.621 174.684 308.431 170.218 308.618 164.573Z" fill="#3F3D56"/>
<path opacity="0.2" d="M309.036 152.075C309.222 146.431 305.715 141.744 301.202 141.608C296.688 141.471 292.878 145.937 292.692 151.582C292.505 157.227 296.012 161.914 300.525 162.05C305.039 162.186 308.849 157.72 309.036 152.075Z" fill="#3F3D56"/>
<path opacity="0.2" d="M273.068 65.4032C271.997 64.011 271.028 62.55 270.167 61.0305L291.753 58.3096L268.507 57.7724C266.431 53.0748 265.381 48.0216 265.42 42.9225C265.46 37.8234 266.589 32.7857 268.738 28.1181L299.388 44.499L271.334 23.4493C274.174 19.0895 277.924 15.335 282.349 12.4195C286.774 9.50395 291.78 7.48982 297.055 6.50246C302.33 5.51509 307.761 5.57563 313.01 6.6803C318.26 7.78497 323.215 9.91013 327.567 12.9235C331.92 15.9369 335.577 19.7739 338.31 24.1958C341.044 28.6178 342.795 33.5299 343.456 38.6265C344.116 43.723 343.672 48.895 342.15 53.8203C340.628 58.7456 338.061 63.319 334.609 67.2556C336.28 69.423 337.701 71.7557 338.849 74.2136L310.543 87.2109L340.578 78.5762C342.472 84.5329 342.78 90.8468 341.476 96.9461C340.171 103.045 337.294 108.737 333.106 113.507C337.461 119.163 340.062 125.875 340.612 132.876C341.163 139.877 339.641 146.885 336.22 153.099C332.799 159.313 327.617 164.482 321.267 168.016C314.917 171.549 307.654 173.305 300.309 173.081C292.964 172.858 285.833 170.665 279.73 166.752C273.628 162.84 268.801 157.367 265.801 150.957C262.8 144.548 261.748 137.462 262.764 130.508C263.779 123.554 266.822 117.014 271.544 111.634C266.335 104.877 263.654 96.6443 263.93 88.2568C264.207 79.8692 267.425 71.8137 273.068 65.3831V65.4032Z" fill="#FFD37E"/>
<path opacity="0.1" d="M342.223 90.6348C341.96 99.0252 338.738 107.085 333.08 113.507C337.439 119.162 340.044 125.874 340.598 132.877C341.151 139.88 339.631 146.891 336.211 153.107C332.791 159.323 327.609 164.494 321.257 168.03C314.906 171.565 307.641 173.321 300.295 173.097C292.948 172.874 285.815 170.679 279.712 166.765C273.609 162.851 268.782 157.375 265.783 150.964C262.783 144.552 261.733 137.463 262.752 130.508C263.771 123.554 266.818 117.013 271.544 111.634C266.505 105.133 342.36 86.4379 342.223 90.6348Z" fill="black"/>
</g>
<path d="M510.952 251.417V360.722C480.176 365.109 448.78 366.003 417.531 366.887C330.374 369.352 242.991 371.811 156.065 366.129C117.623 363.618 78.2295 359.221 44.5373 344.19V209.528C44.6635 116.655 44.138 209.528 44.5373 116.373V82.9438C44.5373 81.0665 45.3179 79.2661 46.7074 77.9386C48.0968 76.6111 49.9813 75.8654 51.9463 75.8654H503.543C505.508 75.8654 507.392 76.6111 508.782 77.9386C510.171 79.2661 510.952 81.0665 510.952 82.9438V167.6C511.267 251.196 510.742 167.861 510.952 251.417Z" fill="#343857"/>
<path opacity="0.3" d="M371.911 109.315H183.578C182.063 109.315 180.835 110.488 180.835 111.935V121.032C180.835 122.479 182.063 123.653 183.578 123.653H371.911C373.426 123.653 374.654 122.479 374.654 121.032V111.935C374.654 110.488 373.426 109.315 371.911 109.315Z" fill="#FFD37E"/>
<path d="M361.481 117.081H361.161L361.04 116.986C361.441 116.528 361.662 115.951 361.665 115.354C361.659 114.865 361.501 114.388 361.211 113.984C360.922 113.58 360.514 113.267 360.038 113.084C359.563 112.901 359.042 112.857 358.54 112.957C358.038 113.056 357.579 113.296 357.219 113.645C356.86 113.994 356.616 114.437 356.52 114.918C356.424 115.399 356.478 115.896 356.677 116.347C356.876 116.798 357.211 117.183 357.638 117.453C358.066 117.723 358.567 117.866 359.08 117.864C359.702 117.862 360.304 117.653 360.782 117.272L360.898 117.367V117.659L362.9 119.576L363.499 119.004L361.481 117.081ZM359.08 117.081C358.722 117.082 358.372 116.982 358.074 116.793C357.776 116.603 357.544 116.334 357.406 116.019C357.268 115.703 357.232 115.356 357.301 115.02C357.37 114.685 357.542 114.377 357.794 114.135C358.047 113.893 358.369 113.728 358.72 113.661C359.071 113.594 359.434 113.628 359.765 113.758C360.096 113.889 360.378 114.11 360.577 114.394C360.776 114.678 360.882 115.012 360.882 115.354C360.883 115.581 360.838 115.806 360.748 116.016C360.658 116.225 360.525 116.416 360.358 116.577C360.19 116.737 359.991 116.864 359.771 116.951C359.552 117.038 359.317 117.082 359.08 117.081Z" fill="#444053"/>
<path opacity="0.7" d="M132.552 247.597H119.72C118.269 247.597 117.093 248.72 117.093 250.107V251.06C117.093 252.447 118.269 253.571 119.72 253.571H132.552C134.003 253.571 135.179 252.447 135.179 251.06V250.107C135.179 248.72 134.003 247.597 132.552 247.597Z" fill="#3F3D56"/>
<path opacity="0.3" d="M142.598 262.532H119.72C118.269 262.532 117.093 263.655 117.093 265.042V265.996C117.093 267.382 118.269 268.506 119.72 268.506H142.598C144.049 268.506 145.226 267.382 145.226 265.996V265.042C145.226 263.655 144.049 262.532 142.598 262.532Z" fill="#FFD37E"/>
<path opacity="0.3" d="M170.736 255.067H119.72C118.269 255.067 117.093 256.19 117.093 257.577V258.53C117.093 259.917 118.269 261.041 119.72 261.041H170.736C172.187 261.041 173.364 259.917 173.364 258.53V257.577C173.364 256.19 172.187 255.067 170.736 255.067Z" fill="#FFD37E"/>
<path d="M86.4737 262.346C86.0772 262.342 85.6837 262.413 85.3159 262.554C84.948 262.696 84.613 262.905 84.3299 263.17C84.0468 263.436 83.8213 263.752 83.6662 264.1C83.5111 264.449 83.4295 264.824 83.4261 265.202C83.4138 265.71 83.1942 266.193 82.8144 266.549C82.4345 266.904 81.9243 267.104 81.3926 267.105C81.878 267.692 82.4947 268.168 83.1975 268.498C83.9002 268.828 84.6713 269.004 85.4543 269.013C85.9836 269.018 86.5088 268.924 86.9999 268.735C87.491 268.546 87.9384 268.267 88.3165 267.913C88.6947 267.56 88.9962 267.138 89.2038 266.673C89.4114 266.208 89.5211 265.708 89.5266 265.202C89.5225 264.823 89.4403 264.449 89.2846 264.1C89.129 263.751 88.9029 263.435 88.6194 263.17C88.3359 262.905 88.0005 262.695 87.6324 262.554C87.2642 262.413 86.8705 262.342 86.4737 262.346ZM100.414 253.43L99.0479 252.15C98.8572 251.971 98.6006 251.87 98.3332 251.87C98.0659 251.87 97.8093 251.971 97.6186 252.15L88.5072 260.684L91.3027 263.305L100.404 254.77C100.498 254.684 100.574 254.58 100.625 254.466C100.677 254.351 100.705 254.227 100.706 254.102C100.707 253.977 100.681 253.853 100.631 253.738C100.581 253.622 100.507 253.518 100.414 253.43Z" fill="#FFD37E"/>
<path opacity="0.7" d="M132.552 173.528H119.72C118.269 173.528 117.093 174.652 117.093 176.038V176.992C117.093 178.379 118.269 179.502 119.72 179.502H132.552C134.003 179.502 135.179 178.379 135.179 176.992V176.038C135.179 174.652 134.003 173.528 132.552 173.528Z" fill="#3F3D56"/>
<path opacity="0.3" d="M142.598 188.464H119.72C118.269 188.464 117.093 189.587 117.093 190.974V191.927C117.093 193.314 118.269 194.438 119.72 194.438H142.598C144.049 194.438 145.226 193.314 145.226 191.927V190.974C145.226 189.587 144.049 188.464 142.598 188.464Z" fill="#FFD37E"/>
<path opacity="0.3" d="M170.736 180.993H119.72C118.269 180.993 117.093 182.117 117.093 183.504V184.457C117.093 185.844 118.269 186.967 119.72 186.967H170.736C172.187 186.967 173.364 185.844 173.364 184.457V183.504C173.364 182.117 172.187 180.993 170.736 180.993Z" fill="#FFD37E"/>
<path d="M100.456 189.839L92.4796 182.168C92.8753 181.182 92.9613 180.106 92.727 179.074C92.4928 178.041 91.9484 177.096 91.1607 176.355C90.3245 175.562 89.255 175.033 88.0952 174.837C86.9355 174.642 85.7409 174.789 84.6713 175.26L88.4441 178.885L85.8168 181.395L81.9705 177.791C81.459 178.813 81.294 179.963 81.4984 181.08C81.7027 182.196 82.2663 183.224 83.1107 184.021C83.877 184.776 84.8594 185.299 85.9351 185.524C87.0108 185.749 88.132 185.666 89.1587 185.286L97.1193 192.962C97.1984 193.042 97.2937 193.105 97.3994 193.149C97.5051 193.192 97.619 193.215 97.7341 193.215C97.8492 193.215 97.9631 193.192 98.0688 193.149C98.1745 193.105 98.2698 193.042 98.3489 192.962L100.367 191.024C100.464 190.959 100.546 190.875 100.605 190.776C100.664 190.678 100.699 190.568 100.708 190.454C100.716 190.341 100.698 190.228 100.654 190.122C100.611 190.016 100.543 189.921 100.456 189.844V189.839Z" fill="#FFD37E"/>
<path opacity="0.7" d="M283.23 247.597H270.399C268.948 247.597 267.771 248.72 267.771 250.107V251.06C267.771 252.447 268.948 253.571 270.399 253.571H283.23C284.681 253.571 285.858 252.447 285.858 251.06V250.107C285.858 248.72 284.681 247.597 283.23 247.597Z" fill="#3F3D56"/>
<path opacity="0.3" d="M293.277 262.532H270.399C268.948 262.532 267.771 263.655 267.771 265.042V265.996C267.771 267.382 268.948 268.506 270.399 268.506H293.277C294.728 268.506 295.904 267.382 295.904 265.996V265.042C295.904 263.655 294.728 262.532 293.277 262.532Z" fill="#FFD37E"/>
<path opacity="0.3" d="M321.415 255.067H270.399C268.948 255.067 267.771 256.19 267.771 257.577V258.53C267.771 259.917 268.948 261.041 270.399 261.041H321.415C322.866 261.041 324.042 259.917 324.042 258.53V257.577C324.042 256.19 322.866 255.067 321.415 255.067Z" fill="#FFD37E"/>
<path d="M241.415 264.063C240.623 264.493 239.727 264.719 238.816 264.719C237.905 264.719 237.01 264.493 236.218 264.063C234.184 264.66 232.939 266.618 232.477 268.35H245.151C244.693 266.618 243.453 264.66 241.415 264.063ZM238.819 254.841C237.915 254.841 237.032 255.097 236.281 255.576C235.53 256.056 234.945 256.737 234.6 257.535C234.254 258.332 234.164 259.21 234.341 260.056C234.517 260.902 234.953 261.68 235.592 262.29C236.231 262.9 237.045 263.315 237.931 263.483C238.817 263.65 239.736 263.563 240.57 263.232C241.404 262.901 242.117 262.341 242.618 261.623C243.119 260.905 243.386 260.061 243.385 259.198C243.384 258.042 242.902 256.934 242.046 256.117C241.19 255.3 240.029 254.841 238.819 254.841ZM238.819 262.522C238.133 262.509 237.466 262.306 236.9 261.936C236.333 261.567 235.892 261.048 235.629 260.443H242.008C241.746 261.048 241.304 261.567 240.738 261.936C240.171 262.306 239.504 262.509 238.819 262.522Z" fill="#FFD37E"/>
<path d="M248.062 261.738C247.396 262.097 246.656 262.314 245.894 262.374C245.132 262.434 244.366 262.335 243.648 262.085C243.324 262.62 242.917 263.104 242.439 263.521C243.504 263.985 244.4 264.742 245.014 265.694H251.798C251.588 264.782 251.133 263.937 250.478 263.244C249.823 262.55 248.99 262.031 248.062 261.738ZM245.466 252.511C244.699 252.511 243.945 252.695 243.272 253.046C242.599 253.396 242.029 253.903 241.614 254.519C242.304 254.901 242.901 255.418 243.368 256.036C243.834 256.653 244.159 257.358 244.32 258.104H248.655C248.391 258.707 247.948 259.223 247.382 259.59C246.816 259.958 246.15 260.16 245.466 260.172C245.093 260.171 244.723 260.106 244.373 259.981C244.312 260.335 244.217 260.683 244.089 261.021C244.534 261.157 244.999 261.225 245.466 261.221C246.677 261.221 247.838 260.762 248.695 259.944C249.551 259.125 250.032 258.016 250.032 256.859C250.032 255.702 249.551 254.592 248.695 253.774C247.838 252.956 246.677 252.496 245.466 252.496V252.511Z" fill="#FFD37E"/>
<path opacity="0.7" d="M132.552 303.15H119.72C118.269 303.15 117.093 304.274 117.093 305.66V306.614C117.093 308 118.269 309.124 119.72 309.124H132.552C134.003 309.124 135.179 308 135.179 306.614V305.66C135.179 304.274 134.003 303.15 132.552 303.15Z" fill="#3F3D56"/>
<path opacity="0.3" d="M142.598 318.085H119.72C118.269 318.085 117.093 319.209 117.093 320.595V321.549C117.093 322.935 118.269 324.059 119.72 324.059H142.598C144.049 324.059 145.226 322.935 145.226 321.549V320.595C145.226 319.209 144.049 318.085 142.598 318.085Z" fill="#FFD37E"/>
<path opacity="0.3" d="M170.736 310.62H119.72C118.269 310.62 117.093 311.744 117.093 313.13V314.084C117.093 315.47 118.269 316.594 119.72 316.594H170.736C172.187 316.594 173.364 315.47 173.364 314.084V313.13C173.364 311.744 172.187 310.62 170.736 310.62Z" fill="#FFD37E"/>
<path d="M92.7794 305.038H87.6195C87.3931 305.035 87.1685 305.075 86.9583 305.155C86.7481 305.236 86.5566 305.355 86.3946 305.506C86.2326 305.657 86.1033 305.837 86.0142 306.036C85.925 306.234 85.8777 306.448 85.875 306.664V307.016H85.5492C85.3229 307.013 85.0982 307.053 84.888 307.133C84.6779 307.214 84.4863 307.333 84.3243 307.484C84.1623 307.635 84.033 307.815 83.9439 308.014C83.8547 308.212 83.8074 308.426 83.8047 308.642V320.505C83.8074 320.946 83.9921 321.369 84.3187 321.681C84.6452 321.993 85.0874 322.169 85.5492 322.172H94.5239C94.75 322.169 94.9734 322.124 95.1811 322.039C95.3889 321.953 95.577 321.83 95.7347 321.675C95.8923 321.52 96.0165 321.337 96.1 321.136C96.1834 320.936 96.2246 320.721 96.2211 320.505V320.194H96.5942C96.8203 320.191 97.0436 320.146 97.2514 320.061C97.4592 319.975 97.6473 319.852 97.805 319.697C97.9626 319.542 98.0868 319.359 98.1702 319.158C98.2537 318.958 98.2949 318.743 98.2914 318.527V310.309L92.7794 305.038ZM92.7794 306.875L96.3735 310.309H92.7794V306.875ZM94.8497 320.505C94.8541 320.593 94.8225 320.678 94.7616 320.744C94.7008 320.81 94.6155 320.85 94.5239 320.856H85.5492C85.4538 320.851 85.3638 320.813 85.2967 320.748C85.2297 320.683 85.1904 320.596 85.1866 320.505V308.642C85.1934 308.556 85.2348 308.475 85.3024 308.417C85.37 308.359 85.4584 308.328 85.5492 308.331H85.875V318.873C85.875 319.787 86.3269 320.209 87.2779 320.209H94.8497V320.505ZM96.9148 318.527C96.9205 318.614 96.8901 318.7 96.8301 318.766C96.7701 318.831 96.6853 318.872 96.5942 318.878H87.6195C87.5241 318.874 87.4341 318.835 87.367 318.77C87.3 318.705 87.2607 318.618 87.2569 318.527V306.664C87.2636 306.578 87.3051 306.497 87.3727 306.439C87.4403 306.381 87.5287 306.35 87.6195 306.353H91.3975V311.629H96.9148V318.527Z" fill="#FFD37E"/>
<path opacity="0.7" d="M283.23 173.528H270.399C268.948 173.528 267.771 174.652 267.771 176.038V176.992C267.771 178.379 268.948 179.502 270.399 179.502H283.23C284.681 179.502 285.858 178.379 285.858 176.992V176.038C285.858 174.652 284.681 173.528 283.23 173.528Z" fill="#3F3D56"/>
<path opacity="0.3" d="M293.277 188.464H270.399C268.948 188.464 267.771 189.587 267.771 190.974V191.927C267.771 193.314 268.948 194.438 270.399 194.438H293.277C294.728 194.438 295.904 193.314 295.904 191.927V190.974C295.904 189.587 294.728 188.464 293.277 188.464Z" fill="#FFD37E"/>
<path opacity="0.3" d="M321.415 180.993H270.399C268.948 180.993 267.771 182.117 267.771 183.504V184.457C267.771 185.844 268.948 186.967 270.399 186.967H321.415C322.866 186.967 324.042 185.844 324.042 184.457V183.504C324.042 182.117 322.866 180.993 321.415 180.993Z" fill="#FFD37E"/>
<path d="M240.3 177.399H234.321C233.832 177.4 233.365 177.587 233.02 177.917C232.675 178.247 232.481 178.695 232.481 179.161V188.825C232.481 189.291 232.675 189.738 233.02 190.067C233.365 190.397 233.833 190.582 234.321 190.582H249.958C250.446 190.582 250.914 190.397 251.259 190.067C251.603 189.738 251.797 189.291 251.797 188.825V181.124C251.796 180.658 251.602 180.212 251.257 179.883C250.912 179.554 250.445 179.368 249.958 179.367H242.139L240.3 177.389V177.399Z" fill="#FFD37E"/>
<path opacity="0.7" d="M432.034 247.597H419.202C417.751 247.597 416.575 248.72 416.575 250.107V251.06C416.575 252.447 417.751 253.571 419.202 253.571H432.034C433.485 253.571 434.661 252.447 434.661 251.06V250.107C434.661 248.72 433.485 247.597 432.034 247.597Z" fill="#3F3D56"/>
<path opacity="0.3" d="M442.081 262.532H419.202C417.751 262.532 416.575 263.655 416.575 265.042V265.996C416.575 267.382 417.751 268.506 419.202 268.506H442.081C443.532 268.506 444.708 267.382 444.708 265.996V265.042C444.708 263.655 443.532 262.532 442.081 262.532Z" fill="#FFD37E"/>
<path opacity="0.3" d="M470.219 255.067H419.202C417.751 255.067 416.575 256.19 416.575 257.577V258.53C416.575 259.917 417.751 261.041 419.202 261.041H470.219C471.67 261.041 472.846 259.917 472.846 258.53V257.577C472.846 256.19 471.67 255.067 470.219 255.067Z" fill="#FFD37E"/>
<path d="M400.885 255.669L397.328 255.508L397.117 253.294C397.106 253.182 397.071 253.073 397.015 252.974C396.958 252.874 396.882 252.787 396.79 252.716C396.698 252.645 396.593 252.592 396.479 252.56C396.366 252.529 396.247 252.519 396.13 252.531L383.377 253.535C383.26 253.54 383.145 253.568 383.039 253.616C382.933 253.664 382.838 253.732 382.761 253.816C382.683 253.9 382.623 253.998 382.585 254.104C382.548 254.21 382.533 254.322 382.541 254.434L383.45 264.148C383.478 264.372 383.598 264.577 383.783 264.717C383.968 264.857 384.204 264.921 384.438 264.896L385.085 264.851L384.985 266.738C384.981 266.863 385.002 266.986 385.048 267.102C385.095 267.218 385.164 267.325 385.254 267.415C385.343 267.505 385.45 267.577 385.569 267.627C385.688 267.678 385.816 267.705 385.946 267.707L400.181 268.35C400.441 268.366 400.698 268.284 400.895 268.12C401.092 267.957 401.213 267.725 401.232 267.476L401.831 256.633C401.835 256.51 401.814 256.388 401.769 256.273C401.723 256.158 401.655 256.053 401.567 255.964C401.479 255.874 401.374 255.802 401.257 255.751C401.14 255.701 401.013 255.673 400.885 255.669ZM385.584 255.89L385.279 261.442L384.522 262.446L383.829 255.112V255.066C383.842 254.968 383.89 254.876 383.964 254.806C384.038 254.736 384.135 254.691 384.239 254.68L395.494 253.801C395.598 253.792 395.702 253.819 395.787 253.879C395.871 253.938 395.929 254.025 395.951 254.123L396.061 255.388L386.603 254.956C386.472 254.953 386.342 254.975 386.219 255.021C386.097 255.066 385.986 255.134 385.891 255.221C385.796 255.308 385.72 255.412 385.668 255.526C385.615 255.641 385.586 255.764 385.584 255.89ZM399.981 265.649L396.303 261.548L394.69 262.963L391.711 259.635L386.419 265.017L386.871 256.819C386.896 256.706 386.964 256.606 387.06 256.538C387.157 256.469 387.277 256.437 387.397 256.447L399.955 257.029C400.071 257.032 400.181 257.076 400.264 257.154C400.347 257.231 400.396 257.335 400.402 257.446L399.981 265.649Z" fill="#FFD37E"/>
<path d="M397.712 260.443C397.985 260.444 398.253 260.368 398.481 260.223C398.709 260.079 398.887 259.873 398.992 259.632C399.097 259.391 399.126 259.125 399.073 258.868C399.02 258.612 398.889 258.376 398.696 258.191C398.503 258.006 398.257 257.88 397.988 257.828C397.72 257.777 397.442 257.803 397.189 257.903C396.936 258.002 396.72 258.172 396.568 258.389C396.416 258.606 396.335 258.862 396.335 259.123C396.336 259.472 396.482 259.806 396.739 260.053C396.997 260.3 397.346 260.441 397.712 260.443Z" fill="#FFD37E"/>
<path opacity="0.7" d="M433.285 173.528H420.453C419.002 173.528 417.826 174.652 417.826 176.038V176.992C417.826 178.379 419.002 179.502 420.453 179.502H433.285C434.736 179.502 435.912 178.379 435.912 176.992V176.038C435.912 174.652 434.736 173.528 433.285 173.528Z" fill="#3F3D56"/>
<path opacity="0.3" d="M443.332 188.464H420.453C419.002 188.464 417.826 189.587 417.826 190.974V191.927C417.826 193.314 419.002 194.438 420.453 194.438H443.332C444.783 194.438 445.959 193.314 445.959 191.927V190.974C445.959 189.587 444.783 188.464 443.332 188.464Z" fill="#FFD37E"/>
<path opacity="0.3" d="M471.47 180.993H420.453C419.002 180.993 417.826 182.117 417.826 183.504V184.457C417.826 185.844 419.002 186.967 420.453 186.967H471.47C472.921 186.967 474.097 185.844 474.097 184.457V183.504C474.097 182.117 472.921 180.993 471.47 180.993Z" fill="#FFD37E"/>
<path d="M400.69 181.671C402.214 181.671 403.449 180.491 403.449 179.036C403.449 177.58 402.214 176.4 400.69 176.4C399.167 176.4 397.932 177.58 397.932 179.036C397.932 180.491 399.167 181.671 400.69 181.671Z" fill="#FFD37E"/>
<path d="M398.573 182.143L393.097 185.627L385.51 180.798V179.036L393.097 183.87L397.459 181.094C397.047 180.5 396.824 179.805 396.814 179.093C396.805 178.381 397.01 177.681 397.406 177.078H385.284C384.795 177.079 384.327 177.265 383.981 177.595C383.636 177.925 383.441 178.373 383.439 178.84V189.824C383.441 190.291 383.636 190.738 383.981 191.068C384.327 191.399 384.795 191.585 385.284 191.586H400.921C401.41 191.585 401.877 191.398 402.222 191.068C402.567 190.738 402.76 190.29 402.76 189.824V182.193C402.131 182.575 401.4 182.776 400.654 182.771C399.908 182.765 399.18 182.554 398.557 182.163L398.573 182.143Z" fill="#FFD37E"/>
<path d="M267.793 377.032C275.361 377.032 281.497 375.906 281.497 374.517C281.497 373.128 275.361 372.002 267.793 372.002C260.224 372.002 254.089 373.128 254.089 374.517C254.089 375.906 260.224 377.032 267.793 377.032Z" fill="#FFD37E"/>
<path d="M267.567 375.441C268.449 375.441 269.164 374.549 269.164 373.448C269.164 372.347 268.449 371.455 267.567 371.455C266.685 371.455 265.97 372.347 265.97 373.448C265.97 374.549 266.685 375.441 267.567 375.441Z" fill="#3F3D56"/>
<path d="M267.567 373.001C268.449 373.001 269.164 372.109 269.164 371.008C269.164 369.907 268.449 369.015 267.567 369.015C266.685 369.015 265.97 369.907 265.97 371.008C265.97 372.109 266.685 373.001 267.567 373.001Z" fill="#3F3D56"/>
<path d="M267.567 370.561C268.449 370.561 269.164 369.669 269.164 368.568C269.164 367.468 268.449 366.575 267.567 366.575C266.685 366.575 265.97 367.468 265.97 368.568C265.97 369.669 266.685 370.561 267.567 370.561Z" fill="#3F3D56"/>
<path d="M267.567 368.122C268.449 368.122 269.164 367.229 269.164 366.128C269.164 365.028 268.449 364.135 267.567 364.135C266.685 364.135 265.97 365.028 265.97 366.128C265.97 367.229 266.685 368.122 267.567 368.122Z" fill="#3F3D56"/>
<path d="M267.567 365.687C268.449 365.687 269.164 364.794 269.164 363.694C269.164 362.593 268.449 361.701 267.567 361.701C266.685 361.701 265.97 362.593 265.97 363.694C265.97 364.794 266.685 365.687 267.567 365.687Z" fill="#3F3D56"/>
<path d="M267.567 363.247C268.449 363.247 269.164 362.355 269.164 361.254C269.164 360.153 268.449 359.261 267.567 359.261C266.685 359.261 265.97 360.153 265.97 361.254C265.97 362.355 266.685 363.247 267.567 363.247Z" fill="#3F3D56"/>
<path d="M267.567 360.807C268.449 360.807 269.164 359.915 269.164 358.814C269.164 357.713 268.449 356.821 267.567 356.821C266.685 356.821 265.97 357.713 265.97 358.814C265.97 359.915 266.685 360.807 267.567 360.807Z" fill="#3F3D56"/>
<path d="M273.536 342.127C273.755 341.862 273.953 341.582 274.129 341.289L269.926 340.631L274.455 340.666C274.889 339.762 275.126 338.783 275.152 337.789C275.177 336.795 274.99 335.806 274.602 334.883L268.523 337.895L274.129 333.954C273.605 333.084 272.899 332.326 272.054 331.729C271.21 331.131 270.246 330.707 269.222 330.481C268.198 330.256 267.136 330.235 266.103 330.42C265.07 330.604 264.088 330.99 263.218 331.554C262.349 332.117 261.61 332.846 261.049 333.695C260.487 334.544 260.115 335.494 259.956 336.486C259.796 337.479 259.853 338.492 260.122 339.462C260.39 340.433 260.866 341.34 261.518 342.127C261.18 342.54 260.888 342.986 260.646 343.457L266.09 346.158L260.31 344.301C259.902 345.45 259.8 346.679 260.015 347.876C260.23 349.073 260.754 350.199 261.539 351.153C260.653 352.23 260.102 353.523 259.949 354.885C259.796 356.247 260.047 357.623 260.673 358.855C261.3 360.087 262.277 361.125 263.492 361.852C264.707 362.579 266.112 362.964 267.545 362.964C268.979 362.964 270.384 362.579 271.599 361.852C272.814 361.125 273.791 360.087 274.417 358.855C275.044 357.623 275.295 356.247 275.142 354.885C274.989 353.523 274.437 352.23 273.551 351.153C274.612 349.865 275.189 348.274 275.189 346.635C275.189 344.996 274.612 343.405 273.551 342.117L273.536 342.127Z" fill="#FFD37E"/>
<path opacity="0.1" d="M259.89 346.64C259.884 348.279 260.46 349.872 261.524 351.158C260.638 352.235 260.087 353.528 259.933 354.89C259.78 356.252 260.031 357.628 260.658 358.86C261.284 360.092 262.261 361.131 263.476 361.857C264.691 362.584 266.096 362.969 267.53 362.969C268.963 362.969 270.368 362.584 271.583 361.857C272.799 361.131 273.775 360.092 274.402 358.86C275.028 357.628 275.279 356.252 275.126 354.89C274.973 353.528 274.422 352.235 273.536 351.158C274.56 349.913 259.89 345.822 259.89 346.64Z" fill="black"/>
<path d="M395.142 195.903C394.917 195.47 394.741 195.016 394.616 194.548C394.564 194.011 394.785 193.303 394.285 193.042C394.007 192.896 393.618 193.007 393.371 192.816C393.219 192.646 393.125 192.436 393.103 192.214C392.981 191.793 392.721 191.42 392.362 191.149C392.003 190.878 391.563 190.724 391.106 190.707C391.632 189.347 393.565 189.016 394.417 187.816C394.842 187.218 394.706 186.119 393.954 186.114C393.772 186.12 393.593 186.163 393.429 186.239L390.628 187.344C390.088 187.546 389.562 187.779 389.052 188.042C387.512 188.88 386.362 190.241 385.326 191.621C384.347 192.841 383.566 194.195 383.009 195.637C382.696 196.526 382.529 197.456 382.515 198.393C382.515 198.489 382.515 198.584 382.515 198.675C382.058 198.75 381.685 198.941 381.207 199.031L380.119 201.777C379.975 202.236 379.734 202.661 379.41 203.027C379.169 203.237 378.913 203.43 378.643 203.604C378.091 204.055 377.663 204.627 377.396 205.272C377.129 205.917 377.032 206.615 377.114 207.304C376.13 207.673 375.33 208.386 374.875 209.297C374.42 210.209 374.345 211.252 374.665 212.214C373.849 212.383 373.092 212.748 372.465 213.275C371.839 213.803 371.364 214.474 371.087 215.226C371.011 215.572 370.851 215.895 370.619 216.17C370.263 216.431 369.821 216.561 369.374 216.536C368.144 216.612 367.072 217.54 365.963 217.038C364.701 216.473 363.289 216.284 361.912 216.496C361.628 216.561 361.336 216.586 361.045 216.572C360.797 216.53 360.557 216.45 360.336 216.336C359.837 216.053 359.294 215.848 358.728 215.728C358.444 215.67 358.149 215.693 357.878 215.792C357.608 215.892 357.373 216.065 357.204 216.29C356.815 215.884 356.584 215.357 356.232 214.92C356.074 214.688 355.852 214.502 355.591 214.382C355.329 214.262 355.038 214.214 354.75 214.242C355.118 213.926 354.75 213.293 354.261 213.183C353.769 213.142 353.273 213.159 352.785 213.233C351.503 213.233 350.515 212.109 349.27 211.812C348.124 211.546 346.595 211.868 346.007 210.884C345.823 210.567 345.77 210.156 345.481 209.92C345.415 209.654 345.288 209.405 345.108 209.192C344.635 208.69 343.842 208.61 343.132 208.63C342.352 208.651 341.579 208.777 340.836 209.006C340.836 208.921 340.789 208.825 340.757 208.725C340.307 207.474 339.406 206.417 338.214 205.743C337.289 205.222 336.286 204.839 335.24 204.608C335.24 204.518 335.24 204.433 335.24 204.342C335.223 203.075 335.429 201.814 335.85 200.612C335.892 200.482 335.944 200.351 335.991 200.221C338.378 199.625 340.556 198.437 342.306 196.777C344.056 195.117 345.316 193.043 345.956 190.768C346.596 188.493 346.595 186.096 345.953 183.821C345.31 181.546 344.049 179.474 342.297 177.816C342.293 177.545 342.256 177.275 342.187 177.012C342.033 176.436 341.746 175.901 341.346 175.446C340.705 174.081 339.706 173.478 338.43 172.906C338.062 172.74 337.673 172.58 337.263 172.404C335.229 171.53 333.264 170.245 330.958 170.25C328.856 170.25 326.827 171.36 324.747 171.319H324.589H324.437H324.248C323.664 171.254 322.965 171.124 322.582 171.55C322.458 171.719 322.359 171.903 322.288 172.098C322.258 172.162 322.223 172.224 322.182 172.283C322.105 172.407 322.015 172.523 321.914 172.63C321.242 173.333 320.112 173.634 319.182 174.106C317.08 175.135 315.704 177.233 315.157 179.432C314.611 181.631 314.8 183.95 315.21 186.179C315.42 187.294 315.872 188.559 316.702 189.262C316.702 189.262 309.677 194.036 310.959 194.714C311.658 195.085 314.569 193.323 317.075 191.641C317.101 191.742 317.122 191.847 317.154 191.947C317.453 193.019 317.836 194.068 318.299 195.085C318.825 196.285 319.581 197.595 320.89 197.942C321.179 198.018 321.478 198.051 321.778 198.037H322.009C322.074 199.874 321.871 201.711 321.405 203.494C320.643 203.452 319.887 203.652 319.256 204.061C319.016 204.286 318.713 204.44 318.383 204.503C318.043 204.463 317.726 204.315 317.485 204.081C316.542 203.432 315.396 203.11 314.236 203.169C313.076 203.227 311.972 203.663 311.106 204.403C308.563 206.697 308.852 211.175 305.851 212.912C305.032 213.389 303.981 213.645 303.497 214.443C303.381 214.698 303.246 214.945 303.093 215.181C302.894 215.394 302.651 215.565 302.378 215.683C301.512 216.054 300.688 216.508 299.919 217.038C299.535 217.308 299.211 217.648 298.968 218.04C298.725 218.432 298.568 218.866 298.505 219.318C298.494 219.978 298.642 220.633 298.936 221.23C299.384 222.281 299.933 223.289 300.576 224.242C300.227 224.674 299.999 225.184 299.914 225.723C299.704 227.134 300.408 228.525 300.486 229.95C300.555 231.195 300.14 232.41 299.908 233.635C298.984 238.425 300.754 243.274 302.536 247.822C302.88 248.562 303.093 249.351 303.166 250.157C303.214 251.663 302.326 253.003 302.079 254.469C301.553 257.552 303.933 260.453 303.986 263.571C303.986 265.012 303.534 266.472 303.912 267.863C304.159 268.792 304.764 269.59 305.195 270.458C305.951 271.995 306.156 273.737 306.881 275.288C307.748 276.976 309.032 278.437 310.622 279.545C311.532 282.301 310.239 285.63 310.622 288.581C311.116 288.394 311.616 288.227 312.12 288.079C311.807 292.467 312.966 296.835 315.43 300.55C316.245 301.764 317.201 302.899 317.816 304.219C318.215 305.16 318.526 306.133 318.746 307.126C319.625 310.63 320.501 314.131 321.373 317.628C322.088 320.465 322.808 323.351 322.592 326.263C322.445 328.271 321.909 330.565 323.212 332.172C323.526 332.477 323.79 332.826 323.995 333.206C324.122 333.653 324.122 334.124 323.995 334.572C323.358 337.957 322.923 341.375 322.692 344.808C322.398 345.184 322.104 345.566 321.836 345.942C319.676 348.954 318.636 352.574 317.795 356.143C316.245 363.157 315.338 370.285 315.084 377.449C314.002 378.387 313.071 379.471 312.32 380.667C311.19 382.675 311.043 385.035 310.922 387.314C310.874 387.683 310.917 388.058 311.048 388.408C311.336 388.802 311.749 389.098 312.225 389.252L312.877 389.548C312.735 390.05 312.609 390.552 312.498 391.079C311.668 390.185 310.192 388.77 309.939 389.804C309.109 393.264 308.658 396.797 308.594 400.346C308.565 400.482 308.569 400.623 308.607 400.757C308.645 400.892 308.715 401.015 308.812 401.119C308.91 401.222 309.031 401.303 309.166 401.353C309.302 401.404 309.448 401.424 309.593 401.41C313.202 402.021 316.862 402.32 320.527 402.304C323.496 402.304 326.46 402.073 329.418 401.857L332.45 401.636C335.568 401.477 338.67 401.109 341.735 400.537C343.075 400.256 344.457 399.859 345.465 398.961C346.474 398.062 346.968 396.526 346.275 395.386C345.429 394.011 343.453 393.91 341.803 393.689C340.168 393.47 338.583 392.988 337.116 392.264C336.785 392.103 336.464 391.922 336.144 391.762C336.228 391.762 336.317 391.722 336.396 391.691C337.815 391.235 338.944 390.185 340.279 389.558C341.856 388.83 343.595 388.664 345.308 388.458C347.021 388.253 348.786 387.956 350.21 387.023C351.545 386.149 352.491 384.558 352.181 383.062C352.159 382.956 352.131 382.852 352.097 382.75C351.571 381.129 349.732 380.24 348.019 379.839C346.306 379.437 344.446 379.196 343.059 378.142L342.854 377.986C342.738 377.891 342.617 377.8 342.491 377.705C342.797 377.212 342.938 376.641 342.896 376.069C342.822 375.17 342.276 374.377 341.903 373.558C341.172 371.927 341.115 370.104 340.915 368.342C340.421 363.91 338.997 359.632 337.925 355.29C337.804 354.788 337.689 354.286 337.573 353.784C338.619 351.709 339.9 349.749 341.393 347.94C343.102 345.901 344.354 343.548 345.071 341.027C345.292 340.254 345.455 339.471 345.623 338.683C347.522 329.617 349.315 320.535 351.004 311.438C351.283 310.142 351.443 308.825 351.482 307.503C351.924 306.303 352.163 305.044 352.191 303.773C352.685 301.93 353.184 299.997 352.78 298.792C352.496 297.939 352.354 295.022 352.196 292.226C352.242 290.727 352.147 289.226 351.913 287.743C351.865 287.487 351.813 287.241 351.755 286.985C351.724 286.834 351.692 286.709 351.66 286.608C351.439 285.768 351.129 284.95 350.736 284.169C350.535 283.701 350.303 283.247 350.042 282.808C349.886 282.549 349.71 282.3 349.517 282.065C350.61 282.11 351.701 282.207 352.785 282.356C353.048 282.391 353.373 282.412 353.536 282.206C353.604 282.088 353.637 281.954 353.631 281.819C353.682 280.634 353.387 279.46 352.78 278.426C352.359 277.713 351.776 277.02 351.792 276.202C351.82 275.82 351.918 275.446 352.081 275.097L353.536 271.362C354.771 268.204 354.183 264.545 354.824 261.231C355.324 258.642 355.643 256.024 355.78 253.395C355.901 251.151 355.827 248.716 354.414 246.919C354.006 246.485 353.653 246.006 353.363 245.493C353.158 244.948 353.072 244.369 353.111 243.791C353.086 240.274 353.16 236.759 353.331 233.249C359.519 233.083 365.681 232.411 371.749 231.241C372.466 231.123 373.169 230.942 373.85 230.698C374.601 230.355 375.306 229.929 375.952 229.428C378.017 228.003 380.114 226.552 381.685 224.634C383.551 222.308 384.724 219.543 385.079 216.632C386.572 215.311 387.365 213.434 388.111 211.612C388.48 210.842 388.715 210.019 388.805 209.177C388.842 208.313 388.248 207.41 388.416 206.561C388.703 205.1 389.475 203.765 390.618 202.756C390.861 202.591 391.045 202.357 391.143 202.088C391.177 201.864 391.134 201.635 391.022 201.436L390.975 201.36C391.122 201.275 391.259 201.185 391.401 201.094C391.889 200.763 392.357 200.396 392.814 200.04C393.513 199.537 394.131 198.938 394.648 198.263C394.903 197.927 395.079 197.542 395.165 197.135C395.25 196.727 395.242 196.307 395.142 195.903ZM327.721 388.323C327.595 388.323 327.469 388.323 327.348 388.353C326.887 388.416 326.438 388.539 326.013 388.719L325.913 388.77C326.491 387.575 327.038 386.36 327.532 385.125C327.589 384.979 327.642 384.834 327.7 384.683L327.637 385.506C327.528 386.444 327.556 387.392 327.721 388.323Z" fill="url(#paint0_linear)"/>
<path d="M335.24 205.377C335.292 207.324 335.986 209.212 336.091 211.16C330.085 211.446 324.153 208.65 318.226 209.513C319.891 208.484 320.779 206.632 321.305 204.809C321.97 202.454 322.168 200 321.888 197.575C321.872 197.442 321.847 197.309 321.814 197.179C321.594 196.225 321.021 194.874 321.173 194.126C321.378 193.122 322.356 193.328 323.238 193.383C325.927 193.587 328.604 193.922 331.257 194.387C331.95 194.503 338.682 196.109 338.787 195.944C337.604 197.752 336.626 199.675 335.87 201.682C335.445 202.871 335.232 204.12 335.24 205.377Z" fill="#EE8E9E"/>
<path d="M394.643 199.352C394.127 200.026 393.509 200.621 392.809 201.119C392.352 201.476 391.884 201.842 391.396 202.169C390.524 202.813 389.485 203.218 388.39 203.338C386.961 203.429 383.918 202.626 383.03 201.456C382.65 200.868 382.467 200.183 382.505 199.493C382.519 198.56 382.686 197.635 382.999 196.752C383.555 195.309 384.336 193.955 385.316 192.736C386.367 191.36 387.502 190.01 389.042 189.176C389.552 188.914 390.078 188.681 390.618 188.479L393.419 187.384C393.582 187.306 393.761 187.262 393.944 187.254C394.695 187.254 394.832 188.358 394.406 188.95C393.555 190.145 391.637 190.457 391.096 191.827C391.55 191.841 391.988 191.991 392.346 192.257C392.705 192.523 392.966 192.891 393.093 193.308C393.114 193.529 393.208 193.738 393.361 193.905C393.608 194.091 393.997 193.986 394.275 194.131C394.774 194.382 394.554 195.09 394.606 195.637C394.731 196.102 394.907 196.553 395.132 196.983C395.236 197.388 395.247 197.81 395.162 198.219C395.078 198.629 394.9 199.015 394.643 199.352Z" fill="#EE8E9E"/>
<path d="M311.805 394.814C312.267 394.372 313.024 394.448 313.67 394.543C317.138 395.065 320.642 395.336 324.153 395.351C324.594 393.303 323.317 391.335 322.908 389.257C322.848 388.724 322.707 388.203 322.487 387.71C321.993 386.807 320.879 386.39 319.834 386.204C317.947 385.823 314.994 385.155 313.938 386.977C312.672 389.141 312.267 392.374 311.805 394.814Z" fill="#65617D"/>
<path d="M350.21 387.068C348.786 387.997 347.02 388.283 345.307 388.494C343.594 388.704 341.834 388.865 340.279 389.593C338.944 390.225 337.814 391.26 336.396 391.711C335.079 392.058 333.692 392.079 332.365 391.772C330.789 391.486 329.076 390.933 328.22 389.618C327.452 388.453 327.531 386.972 327.636 385.602C327.762 384.051 327.883 382.489 327.999 380.933C327.994 380.539 328.099 380.151 328.304 379.809C329.454 378.202 332.255 380.476 333.753 380.476C336.128 380.476 338.676 379.241 340.384 377.74C340.537 377.59 340.714 377.465 340.909 377.369C341.587 377.078 342.265 377.615 342.864 378.082L343.069 378.237C344.456 379.286 346.316 379.502 348.029 379.929C349.742 380.356 351.576 381.209 352.107 382.826C352.142 382.926 352.17 383.028 352.191 383.132C352.49 384.613 351.529 386.194 350.21 387.068Z" fill="#3F3D56"/>
<path d="M350.21 387.068C348.786 387.997 347.02 388.283 345.307 388.494C343.594 388.704 341.834 388.865 340.279 389.593C338.944 390.225 337.814 391.26 336.396 391.711C335.079 392.058 333.692 392.079 332.365 391.772C330.789 391.486 329.076 390.933 328.22 389.618C327.452 388.453 327.531 386.972 327.636 385.602C327.762 384.051 327.883 382.489 327.999 380.933C327.994 380.539 328.099 380.151 328.304 379.809C329.454 378.202 332.255 380.476 333.753 380.476C336.128 380.476 338.676 379.241 340.384 377.74C340.537 377.59 340.714 377.465 340.909 377.369C341.587 377.078 342.265 377.615 342.864 378.082L343.069 378.237C344.456 379.286 346.316 379.502 348.029 379.929C349.742 380.356 351.576 381.209 352.107 382.826C352.142 382.926 352.17 383.028 352.191 383.132C352.49 384.613 351.529 386.194 350.21 387.068Z" fill="#434175"/>
<path d="M350.21 387.59C348.786 388.519 347.02 388.81 345.307 389.021C343.594 389.232 341.834 389.387 340.279 390.115C338.944 390.748 337.814 391.782 336.396 392.234C335.079 392.58 333.692 392.601 332.365 392.294C330.67 391.954 329.182 390.994 328.22 389.618C327.452 388.453 327.531 386.972 327.636 385.602C327.762 384.051 327.883 382.489 327.999 380.933C327.994 380.539 328.099 380.151 328.304 379.809C329.454 378.202 332.255 380.476 333.753 380.476C336.128 380.476 338.676 379.241 340.384 377.74C340.537 377.59 340.714 377.465 340.909 377.369C341.587 377.078 342.265 377.615 342.864 378.082C342.471 379.248 341.91 380.356 341.198 381.375C340.623 382.238 339.852 382.966 338.942 383.506C338.033 384.047 337.008 384.385 335.944 384.497C334.893 384.573 333.795 384.372 332.791 384.633C331.787 384.894 330.81 385.898 331.173 386.852C331.535 387.806 332.781 387.981 333.8 388.037C335.244 388.195 336.707 388.097 338.114 387.746C338.955 387.479 339.727 387.038 340.541 386.711C344.02 385.336 348.423 386.104 351.292 383.775C351.566 383.538 351.86 383.323 352.17 383.132C352.932 384.633 351.529 386.741 350.21 387.59Z" fill="#E8EAF2"/>
<path opacity="0.05" d="M350.21 387.59C348.786 388.519 347.02 388.81 345.307 389.021C343.594 389.232 341.834 389.387 340.279 390.115C338.944 390.748 337.814 391.782 336.396 392.234C335.079 392.58 333.692 392.601 332.365 392.294C330.67 391.954 329.182 390.994 328.22 389.618C327.452 388.453 327.531 386.972 327.636 385.602C327.762 384.051 327.883 382.489 327.999 380.933C327.994 380.539 328.099 380.151 328.304 379.809C329.454 378.202 332.255 380.476 333.753 380.476C336.128 380.476 338.676 379.241 340.384 377.74C340.537 377.59 340.714 377.465 340.909 377.369C341.587 377.078 342.265 377.615 342.864 378.082C342.471 379.248 341.91 380.356 341.198 381.375C340.623 382.238 339.852 382.966 338.942 383.506C338.033 384.047 337.008 384.385 335.944 384.497C334.893 384.573 333.795 384.372 332.791 384.633C331.787 384.894 330.81 385.898 331.173 386.852C331.535 387.806 332.781 387.981 333.8 388.037C335.244 388.195 336.707 388.097 338.114 387.746C338.955 387.479 339.727 387.038 340.541 386.711C344.02 385.336 348.423 386.104 351.292 383.775C351.566 383.538 351.86 383.323 352.17 383.132C352.932 384.633 351.529 386.741 350.21 387.59Z" fill="black"/>
<path d="M312.456 285.871C311.356 291.064 312.407 296.463 315.388 300.931C316.202 302.136 317.159 303.271 317.774 304.581C318.173 305.518 318.485 306.487 318.704 307.478L321.331 317.92C322.046 320.741 322.765 323.612 322.55 326.509C322.403 328.517 321.867 330.791 323.17 332.388C323.484 332.691 323.747 333.038 323.953 333.417C324.079 333.861 324.079 334.329 323.953 334.772C322.618 342.358 321.625 350.285 324.037 357.619C326.228 364.271 326.354 371.641 328.214 378.378C328.365 379.234 328.763 380.032 329.365 380.682C329.864 381.08 330.461 381.349 331.099 381.465C333.842 382.093 336.737 381.36 339.291 380.23C341.088 379.432 343.022 378.036 342.869 376.154C342.796 375.255 342.249 374.467 341.876 373.644C341.146 372.022 341.088 370.215 340.888 368.458C340.394 364.05 338.97 359.793 337.898 355.486C336.827 351.178 336.091 346.665 337 342.318C338.861 333.327 341.837 324.581 345.864 316.263C346.041 315.821 346.319 315.423 346.679 315.098C347.082 314.878 347.467 314.628 347.83 314.35C348.107 313.937 348.287 313.471 348.355 312.985C348.754 311.609 349.931 310.59 350.735 309.385C352.748 306.333 352.112 302.422 352.038 298.818C351.965 295.304 352.49 291.789 351.891 288.315C351.292 284.841 349.243 281.317 345.749 280.253C344.02 279.716 342.149 279.841 340.342 280.012C330.763 280.916 321.452 282.577 312.456 285.871Z" fill="#696791"/>
<path opacity="0.1" d="M312.456 286.373C311.356 291.566 312.407 296.965 315.388 301.433C316.202 302.638 317.159 303.773 317.774 305.083C318.173 306.02 318.485 306.989 318.704 307.979L321.331 318.421C322.046 321.243 322.765 324.114 322.55 327.011C322.403 329.019 321.867 331.293 323.17 332.89C323.484 333.193 323.747 333.54 323.953 333.919C324.079 334.363 324.079 334.831 323.953 335.274C322.618 342.86 321.625 350.787 324.037 358.121C326.228 364.773 326.354 372.143 328.214 378.88C328.365 379.736 328.763 380.534 329.365 381.184C329.864 381.582 330.461 381.851 331.099 381.967C333.842 382.595 336.737 381.862 339.291 380.732C341.088 379.934 343.022 378.538 342.869 376.656C342.796 375.757 342.249 374.969 341.876 374.146C341.146 372.524 341.088 370.717 340.888 368.96C340.394 364.552 338.97 360.295 337.898 355.988C336.827 351.68 336.091 347.167 337 342.82C338.861 333.829 341.837 325.083 345.864 316.765C346.041 316.323 346.319 315.925 346.679 315.6C347.082 315.38 347.467 315.13 347.83 314.852C348.107 314.439 348.287 313.973 348.355 313.487C348.754 312.111 349.931 311.092 350.735 309.887C352.748 306.835 352.112 302.924 352.038 299.32C351.965 295.805 352.49 292.291 351.891 288.817C351.292 285.343 349.243 281.819 345.749 280.755C344.02 280.218 342.149 280.343 340.342 280.514C330.763 281.418 321.452 283.079 312.456 286.373Z" fill="black"/>
<path d="M351.487 307.854C351.459 309.216 351.299 310.572 351.009 311.905C349.317 320.942 347.517 329.978 345.607 339.014C345.439 339.798 345.276 340.581 345.056 341.349C344.336 343.858 343.084 346.199 341.378 348.227C333.417 357.71 332.729 371.48 328.409 382.916C328.115 383.689 327.826 384.467 327.516 385.23C326.735 387.167 325.846 389.062 324.852 390.908C324.743 391.175 324.561 391.409 324.327 391.586C324.059 391.717 323.759 391.774 323.46 391.752C319.572 391.77 315.732 390.935 312.236 389.312C311.737 389.134 311.317 388.799 311.043 388.363C310.911 388.015 310.868 387.641 310.917 387.274C311.038 385.01 311.185 382.66 312.315 380.667C313.066 379.476 313.998 378.396 315.079 377.464C315.33 370.337 316.238 363.244 317.79 356.269C318.631 352.715 319.671 349.125 321.831 346.123C323.407 343.904 325.708 341.715 325.425 339.04C325.304 337.865 324.789 336.404 325.787 335.716C326.223 335.41 326.87 335.37 327.169 334.938C327.287 334.734 327.353 334.508 327.364 334.275C327.569 332.44 327.448 330.585 327.006 328.788C326.643 327.613 326.357 326.418 326.15 325.209C326.053 324.602 326.086 323.983 326.248 323.389C326.41 322.796 326.696 322.239 327.09 321.755C327.143 319.31 327.09 316.775 327.127 314.335C327.229 312.945 327.106 311.548 326.765 310.193C326.575 309.556 326.276 308.943 326.129 308.291C325.603 305.946 326.928 303.135 325.341 301.262C324.679 300.489 323.659 300.103 322.792 299.546C321.092 298.367 319.858 296.674 319.293 294.741C318.728 292.819 318.393 290.842 318.294 288.848C318.244 288.426 318.244 287.999 318.294 287.577C318.32 287.357 318.38 287.143 318.473 286.94C318.967 285.881 320.291 285.469 321.473 285.198C328.978 283.479 336.671 282.62 344.388 282.638C347.247 280.78 348.85 281.448 350.063 283.411C350.73 284.613 351.27 285.876 351.676 287.181C352.202 288.777 352.265 297.723 352.801 299.315C353.484 301.398 351.461 305.665 351.487 307.854Z" fill="#696791"/>
<path d="M299.866 226.557C299.656 227.963 300.36 229.343 300.439 230.764C300.507 232.004 300.092 233.214 299.861 234.434C298.936 239.193 300.707 244.017 302.488 248.545C302.832 249.28 303.045 250.063 303.119 250.865C303.166 252.341 302.278 253.696 302.031 255.157C301.506 258.224 303.886 261.106 303.939 264.193C303.939 265.624 303.487 267.08 303.865 268.461C304.112 269.384 304.716 270.182 305.142 271.041C305.904 272.547 306.109 274.304 306.834 275.845C308.142 278.631 310.953 280.454 313.633 282.125C315.152 281.623 316.786 281.066 317.637 279.756C318.005 279.111 318.242 278.406 318.336 277.678C318.914 274.5 318.893 271.257 318.862 268.034C318.919 265.26 318.773 262.485 318.425 259.73C317.9 256.216 316.697 252.853 315.84 249.404C314.789 245.061 314.217 240.573 312.54 236.401C311.064 232.742 308.773 229.454 306.356 226.301C305.436 225.101 304.706 223.384 302.919 223.66C302.16 223.785 301.46 224.13 300.914 224.648C300.368 225.166 300.002 225.833 299.866 226.557Z" fill="#434175"/>
<path opacity="0.05" d="M299.866 225.553C299.656 226.958 300.36 228.339 300.439 229.76C300.507 231 300.092 232.209 299.861 233.429C298.936 238.189 300.707 243.013 302.488 247.541C302.832 248.275 303.045 249.059 303.119 249.861C303.166 251.337 302.278 252.692 302.031 254.153C301.506 257.22 303.886 260.102 303.939 263.189C303.939 264.62 303.487 266.076 303.865 267.456C304.112 268.38 304.716 269.178 305.142 270.037C305.904 271.543 306.109 273.3 306.834 274.841C308.142 277.627 310.953 279.45 313.633 281.121C315.152 280.619 316.786 280.062 317.637 278.752C318.005 278.107 318.242 277.402 318.336 276.673C318.914 273.496 318.893 270.253 318.862 267.03C318.919 264.256 318.773 261.481 318.425 258.726C317.9 255.212 316.697 251.849 315.84 248.4C314.789 244.057 314.217 239.569 312.54 235.397C311.064 231.738 308.773 228.449 306.356 225.297C305.436 224.097 304.706 222.38 302.919 222.656C302.16 222.781 301.46 223.126 300.914 223.644C300.368 224.162 300.002 224.829 299.866 225.553Z" fill="black"/>
<path opacity="0.1" d="M338.739 195.929C337.556 197.737 336.578 199.66 335.823 201.667C334.74 201.922 333.628 202.05 332.512 202.048C328.177 202.048 325.114 199.694 322.566 196.717C322.345 195.763 320.989 194.874 321.126 194.126C321.331 193.122 322.308 193.328 323.191 193.383C325.88 193.587 328.556 193.922 331.209 194.387C331.903 194.468 338.634 196.094 338.739 195.929Z" fill="black"/>
<path d="M332.513 201.687C340.177 201.687 346.39 195.751 346.39 188.428C346.39 181.106 340.177 175.17 332.513 175.17C324.849 175.17 318.636 181.106 318.636 188.428C318.636 195.751 324.849 201.687 332.513 201.687Z" fill="#EE8E9E"/>
<path opacity="0.1" d="M350.047 283.421C347.646 283.285 345.224 283.381 342.817 283.471C341.309 283.487 339.805 283.635 338.324 283.913C336.501 284.309 334.799 285.103 333.002 285.6C330.122 286.398 327.085 286.433 324.106 286.714C322.147 286.894 320.201 287.186 318.278 287.587C318.304 287.368 318.364 287.153 318.457 286.95C318.951 285.891 320.275 285.479 321.457 285.208C328.962 283.489 336.655 282.63 344.372 282.648C347.231 280.815 348.834 281.458 350.047 283.421Z" fill="black"/>
<path d="M340.589 210.136C339.985 210.803 339.171 211.541 338.277 211.326C337.952 211.219 337.647 211.063 337.374 210.864C335.797 209.86 333.811 209.649 331.93 209.358C328.136 208.812 324.389 208.007 320.717 206.948C319.649 206.579 318.53 206.362 317.396 206.305C315.047 206.305 312.961 207.811 311.49 209.558C310.018 211.305 308.967 213.359 307.522 215.131C306.472 216.396 305.263 217.51 304.301 218.821C301.874 222.129 301.348 226.446 301.979 230.442C302.609 234.439 304.275 238.209 305.936 241.929C306.815 244.101 307.895 246.194 309.162 248.184C308.605 251.196 308.899 254.71 310.412 257.421C310.901 258.31 311.505 259.173 311.668 260.167C311.742 260.837 311.714 261.513 311.584 262.175L310.875 266.974C310.659 268.435 310.444 269.896 310.165 271.352C309.64 274.008 308.967 276.874 310.255 279.294C311.794 282.176 310.176 285.866 310.581 289.078C314.923 287.475 319.473 286.444 324.106 286.011C327.085 285.73 330.122 285.695 333.002 284.897C334.799 284.395 336.501 283.606 338.325 283.205C339.805 282.928 341.309 282.782 342.817 282.768C346.143 282.643 349.49 282.512 352.801 282.979C353.064 283.019 353.389 283.039 353.552 282.833C353.62 282.719 353.655 282.589 353.652 282.457C353.702 281.279 353.407 280.11 352.801 279.083C352.38 278.375 351.797 277.683 351.813 276.869C351.841 276.489 351.939 276.117 352.102 275.77L353.558 272.055C354.792 268.917 354.204 265.273 354.845 261.979C355.345 259.404 355.664 256.799 355.801 254.183C355.922 251.949 355.849 249.529 354.435 247.742C354.027 247.31 353.674 246.833 353.384 246.321C353.179 245.78 353.093 245.204 353.132 244.63C353.1 240.158 353.228 235.687 353.515 231.216C352.286 229.102 350.999 226.943 349.769 224.83C348.335 222.37 346.884 219.86 346.306 217.099C345.923 215.276 345.933 213.394 345.66 211.551C345.63 211.082 345.461 210.631 345.171 210.251C344.904 210.028 344.588 209.862 344.247 209.766C343.906 209.67 343.547 209.645 343.196 209.694C342.308 209.712 341.429 209.861 340.589 210.136Z" fill="#434175"/>
<path opacity="0.1" d="M391.396 202.169C390.524 202.813 389.485 203.218 388.39 203.338C386.961 203.429 383.918 202.626 383.03 201.456C382.65 200.868 382.467 200.183 382.505 199.493C382.699 199.434 382.9 199.397 383.104 199.382C384.657 199.221 386.226 199.282 387.759 199.563C389.273 199.915 390.733 200.793 391.369 202.154L391.396 202.169Z" fill="black"/>
<path d="M345.223 230.844C346.069 231.848 346.947 232.882 348.145 233.48C349.527 234.162 351.151 234.178 352.701 234.147C359.096 234.012 365.466 233.34 371.738 232.139C372.454 232.022 373.158 231.842 373.84 231.602C374.589 231.259 375.294 230.834 375.942 230.337C378.007 228.921 380.103 227.476 381.674 225.563C383.54 223.254 384.713 220.503 385.069 217.606C386.561 216.296 387.354 214.423 388.101 212.621C388.47 211.856 388.704 211.039 388.794 210.201C388.831 209.343 388.237 208.444 388.405 207.601C388.691 206.144 389.464 204.816 390.607 203.815C390.85 203.65 391.034 203.417 391.132 203.148C391.165 202.925 391.123 202.698 391.012 202.5C390.371 201.14 388.91 200.266 387.396 199.91C385.861 199.626 384.29 199.565 382.736 199.729C382.218 199.823 381.709 199.954 381.212 200.12L380.124 202.846C379.98 203.304 379.739 203.728 379.415 204.091C379.174 204.302 378.918 204.495 378.648 204.669C378.096 205.115 377.668 205.684 377.402 206.326C377.135 206.968 377.038 207.662 377.119 208.349C376.138 208.713 375.339 209.419 374.884 210.326C374.43 211.232 374.353 212.27 374.67 213.228C373.854 213.396 373.097 213.762 372.47 214.289C371.844 214.816 371.369 215.488 371.092 216.24C371.015 216.584 370.855 216.906 370.624 217.179C370.272 217.438 369.838 217.573 369.394 217.561C368.165 217.631 367.093 218.565 365.984 218.063C364.721 217.5 363.31 217.311 361.933 217.52C361.649 217.585 361.357 217.611 361.066 217.596C360.818 217.554 360.578 217.475 360.357 217.36C359.856 217.081 359.314 216.878 358.749 216.757C358.465 216.699 358.17 216.722 357.899 216.822C357.628 216.921 357.394 217.095 357.225 217.32C356.836 216.913 356.605 216.391 356.253 215.954C356.095 215.722 355.873 215.536 355.612 215.416C355.35 215.297 355.059 215.248 354.771 215.276C355.139 214.965 354.771 214.338 354.282 214.222C353.79 214.187 353.294 214.203 352.806 214.272C351.524 214.272 350.536 213.153 349.291 212.862C348.145 212.596 346.616 212.917 346.027 211.938C345.823 211.592 345.78 211.12 345.428 210.934C345.187 210.82 344.912 210.79 344.651 210.849C343.838 210.951 343.048 211.18 342.312 211.526C341.109 216.045 341.74 220.683 342.654 225.232C342.992 227.282 343.877 229.215 345.223 230.844Z" fill="#434175"/>
<path opacity="0.1" d="M345.187 246.934L339.213 258.45C339.859 257.381 341.22 256.944 342.297 256.286C343.657 255.343 344.68 254.021 345.224 252.501C345.765 250.987 346.143 249.425 346.354 247.837C346.475 247.11 346.727 246.085 346.354 245.423C345.692 245.558 345.471 246.397 345.187 246.934Z" fill="black"/>
<path opacity="0.1" d="M327.994 256.718C326.644 257.993 324.994 258.932 323.512 260.062C320.044 262.702 317.575 266.317 315.163 269.866C314.481 270.794 313.908 271.791 313.455 272.838C313.739 273.069 314.159 272.838 314.443 272.592L319.135 268.656C319.715 268.209 320.243 267.704 320.712 267.15C321.526 266.101 321.889 264.796 322.63 263.696C323.435 262.644 324.396 261.709 325.483 260.92C326.56 260.037 331.51 256.036 330.306 254.479C329.418 254.881 328.704 256.036 327.994 256.718Z" fill="black"/>
<path d="M338.246 206.807C336.707 205.995 335.023 205.466 333.28 205.246C332.247 205.023 331.184 204.95 330.127 205.03C329.15 205.146 328.21 205.507 327.227 205.532C325.845 205.607 324.526 205.07 323.191 204.724C321.857 204.378 320.317 204.222 319.198 205.01C318.958 205.235 318.655 205.389 318.326 205.452C317.986 205.408 317.671 205.26 317.427 205.03C316.483 204.385 315.338 204.065 314.179 204.123C313.02 204.182 311.916 204.615 311.048 205.351C308.505 207.631 308.794 212.084 305.794 213.816C304.974 214.318 303.923 214.543 303.44 215.322C303.323 215.574 303.187 215.819 303.035 216.055C302.837 216.269 302.593 216.44 302.32 216.557C301.455 216.925 300.631 217.378 299.861 217.907C299.477 218.173 299.154 218.511 298.911 218.9C298.668 219.29 298.511 219.722 298.448 220.171C298.437 220.829 298.584 221.48 298.879 222.074C300.338 225.493 302.87 228.396 306.127 230.386C309.383 232.375 313.204 233.352 317.065 233.183C317.751 233.221 318.429 233.019 318.972 232.616C319.258 232.307 319.484 231.952 319.639 231.567C321.042 228.761 323.675 226.687 325.346 224.037C326.339 222.445 326.98 220.663 328.02 219.097C329.597 216.722 331.982 214.965 334.326 213.263C335.65 212.304 337.116 211.295 338.776 211.361C340.253 211.421 341.33 211.496 340.784 209.769C340.334 208.524 339.434 207.474 338.246 206.807Z" fill="#434175"/>
<path opacity="0.05" d="M338.246 206.807C336.707 205.995 335.023 205.466 333.28 205.246C332.247 205.023 331.184 204.95 330.127 205.03C329.15 205.146 328.21 205.507 327.227 205.532C325.845 205.607 324.526 205.07 323.191 204.724C321.857 204.378 320.317 204.222 319.198 205.01C318.958 205.235 318.655 205.389 318.326 205.452C317.986 205.408 317.671 205.26 317.427 205.03C316.483 204.385 315.338 204.065 314.179 204.123C313.02 204.182 311.916 204.615 311.048 205.351C308.505 207.631 308.794 212.084 305.794 213.816C304.974 214.318 303.923 214.543 303.44 215.322C303.323 215.574 303.187 215.819 303.035 216.055C302.837 216.269 302.593 216.44 302.32 216.557C301.455 216.925 300.631 217.378 299.861 217.907C299.477 218.173 299.154 218.511 298.911 218.9C298.668 219.29 298.511 219.722 298.448 220.171C298.437 220.829 298.584 221.48 298.879 222.074C300.338 225.493 302.87 228.396 306.127 230.386C309.383 232.375 313.204 233.352 317.065 233.183C317.751 233.221 318.429 233.019 318.972 232.616C319.258 232.307 319.484 231.952 319.639 231.567C321.042 228.761 323.675 226.687 325.346 224.037C326.339 222.445 326.98 220.663 328.02 219.097C329.597 216.722 331.982 214.965 334.326 213.263C335.65 212.304 337.116 211.295 338.776 211.361C340.253 211.421 341.33 211.496 340.784 209.769C340.334 208.524 339.434 207.474 338.246 206.807Z" fill="black"/>
<path d="M345.471 398.971C344.462 399.869 343.08 400.261 341.74 400.537C338.676 401.109 335.573 401.477 332.455 401.636L329.424 401.857C326.465 402.073 323.502 402.289 320.533 402.299C316.865 402.31 313.204 402.007 309.593 401.395C309.427 401.39 309.264 401.351 309.115 401.282C308.966 401.212 308.833 401.114 308.726 400.994C308.613 400.792 308.567 400.563 308.595 400.336C308.658 396.804 309.109 393.287 309.94 389.844C310.281 388.433 312.935 391.601 313.056 391.737C313.33 392.106 313.691 392.409 314.109 392.621C314.528 392.833 314.994 392.948 315.467 392.956C318.52 393.117 321.941 391.345 324.363 389.769C324.884 389.399 325.436 389.072 326.013 388.79C326.438 388.609 326.887 388.487 327.348 388.428C328.919 388.289 330.498 388.594 331.888 389.307C333.711 390.17 335.309 391.41 337.142 392.319C338.611 393.038 340.195 393.517 341.83 393.735C343.479 393.95 345.455 394.056 346.301 395.421C346.974 396.551 346.469 398.077 345.471 398.971Z" fill="#434175"/>
<path d="M345.471 399.493C344.462 400.391 343.08 400.783 341.74 401.059C338.676 401.632 335.573 401.999 332.455 402.159L329.423 402.379C326.465 402.595 323.501 402.811 320.533 402.821C316.865 402.834 313.204 402.532 309.593 401.918C309.427 401.913 309.265 401.875 309.116 401.806C308.966 401.738 308.833 401.641 308.726 401.521C308.441 401.16 308.212 400.761 308.048 400.336C308.111 396.822 309.099 393.283 309.939 389.844C310.281 388.433 312.935 391.601 313.055 391.737C313.329 392.106 313.69 392.409 314.109 392.621C314.528 392.833 314.993 392.948 315.467 392.957C318.52 393.117 321.941 391.345 324.363 389.769C324.884 389.399 325.436 389.072 326.013 388.79C326.438 388.609 326.887 388.487 327.348 388.428C326.954 390.527 323.806 393.062 322.177 393.835C318.888 395.396 314.979 394.613 311.311 394.799C311.042 394.794 310.776 394.854 310.539 394.975C310.102 395.256 310.076 395.853 310.087 396.355C310.118 397.189 310.228 398.173 310.99 398.594C311.37 398.77 311.788 398.854 312.209 398.84C321.253 399.218 330.314 398.914 339.307 397.932C340.82 397.836 342.309 397.519 343.721 396.993C344.645 396.58 345.506 396.05 346.28 395.416C347.436 396.28 346.469 398.599 345.471 399.493Z" fill="#E8EAF2"/>
<path d="M337.914 188.288C337.862 189.658 338.839 192.304 336.154 191.576C334.578 191.134 334.105 189.322 332.077 189.724C330.048 190.125 329.575 192.52 328.892 194.081C328.334 195.322 327.469 196.414 326.37 197.265C325.272 198.115 323.973 198.697 322.587 198.961C322.015 199.089 321.42 199.089 320.848 198.961C319.539 198.604 318.793 197.314 318.257 196.119C317.794 195.107 317.411 194.063 317.112 192.997C316.9 192.247 316.762 191.481 316.697 190.708C316.652 190.181 316.652 189.652 316.697 189.126C316.938 186.009 318.798 183.167 321.173 181.018C323.548 178.87 326.428 177.314 329.292 175.782C330.224 175.229 331.232 174.8 332.287 174.507C333.325 174.309 334.388 174.269 335.44 174.387C336.829 174.441 338.195 174.748 339.464 175.29C339.984 175.535 340.461 175.855 340.878 176.239C341.474 176.765 341.901 177.443 342.108 178.192C342.633 180.2 341.277 182.023 340.184 183.614C339.186 185.025 337.983 186.521 337.914 188.288Z" fill="#434175"/>
<path opacity="0.1" d="M383.057 217.711C382.484 216.331 380.077 212.51 380.771 211.185C381.496 212.164 382.111 213.214 382.605 214.318C383.057 215.397 382.699 216.833 383.057 217.711Z" fill="black"/>
<path opacity="0.1" d="M340.216 183.609C341.309 182.018 342.654 180.2 342.139 178.187C341.884 177.299 341.33 176.515 340.563 175.958C340.741 176.252 340.875 176.568 340.962 176.897C341.487 178.905 340.132 180.722 339.039 182.319C338.067 183.734 336.863 185.235 336.79 186.998C336.737 188.368 337.72 191.014 335.035 190.286C333.458 189.844 332.986 188.032 330.952 188.433C328.919 188.835 328.456 191.225 327.768 192.791C327.21 194.032 326.345 195.125 325.246 195.975C324.148 196.826 322.849 197.407 321.462 197.671C320.89 197.798 320.295 197.798 319.723 197.671C319.428 197.588 319.151 197.457 318.903 197.284C319.313 198.066 320.023 198.666 320.884 198.961C321.458 199.086 322.055 199.086 322.629 198.961C324.015 198.695 325.313 198.111 326.411 197.26C327.51 196.41 328.375 195.317 328.934 194.076C329.623 192.51 330.069 190.13 332.119 189.724C334.168 189.317 334.599 191.129 336.201 191.571C338.886 192.314 337.904 189.653 337.956 188.283C338.04 186.526 339.249 185.025 340.216 183.609Z" fill="black"/>
<path opacity="0.1" d="M340.809 180.883C340.561 181.274 340.287 181.649 339.99 182.007C339.423 182.691 338.788 183.32 338.093 183.885C337.678 184.226 337.252 184.543 336.811 184.844C335.987 185.399 335.121 185.894 334.22 186.325C331.553 187.511 328.777 188.46 325.928 189.161L320.39 190.702C319.707 191.204 318.462 192.078 317.09 192.997C316.879 192.247 316.74 191.481 316.675 190.707C316.63 190.181 316.63 189.652 316.675 189.126C316.917 186.009 318.777 183.167 321.152 181.018C323.527 178.87 326.407 177.314 329.27 175.782C330.203 175.229 331.211 174.8 332.265 174.507C333.303 174.309 334.367 174.269 335.418 174.387C336.808 174.441 338.174 174.748 339.443 175.29C339.963 175.535 340.439 175.855 340.857 176.239C341.17 176.679 341.41 177.164 341.566 177.675C341.913 178.754 341.429 179.909 340.809 180.883Z" fill="black"/>
<path d="M340.81 180.527C340.561 180.917 340.288 181.293 339.99 181.651C339.423 182.335 338.788 182.963 338.093 183.529C337.678 183.87 337.252 184.186 336.811 184.487C335.986 185.04 335.12 185.535 334.221 185.968C331.553 187.154 328.778 188.104 325.929 188.805L320.391 190.341C318.457 191.742 311.983 196.32 310.896 195.748C309.613 195.075 316.639 190.321 316.639 190.321L316.959 190.557C315.908 189.939 315.383 188.509 315.162 187.269C314.752 185.05 314.558 182.751 315.11 180.557C315.661 178.363 317.038 176.284 319.135 175.26C320.065 174.798 321.195 174.492 321.867 173.789C321.968 173.683 322.058 173.567 322.135 173.443C322.176 173.386 322.211 173.326 322.24 173.262C322.311 173.067 322.41 172.883 322.534 172.715C322.918 172.293 323.617 172.419 324.2 172.489H324.389C324.493 172.494 324.596 172.494 324.699 172.489C326.801 172.534 328.803 171.425 330.91 171.425C333.217 171.425 335.182 172.7 337.216 173.574C337.626 173.749 338.014 173.91 338.382 174.076C339.853 174.728 340.957 175.426 341.535 177.278C341.913 178.403 341.43 179.563 340.81 180.527Z" fill="#FFD37E"/>
<path opacity="0.1" d="M324.699 172.519C324.815 172.706 324.857 172.927 324.816 173.141C324.776 173.355 324.656 173.548 324.479 173.684C324.223 173.859 323.921 173.961 323.606 173.98C323.38 174.01 323.152 174.026 322.923 174.03C322.616 174.053 322.307 174.003 322.025 173.885C321.97 173.857 321.917 173.825 321.867 173.789C321.968 173.683 322.058 173.567 322.135 173.443C322.188 173.483 322.24 173.473 322.445 173.443C322.826 173.426 323.204 173.365 323.57 173.262C323.721 173.223 323.864 173.157 323.99 173.067C324.178 172.914 324.316 172.714 324.389 172.489L324.699 172.519Z" fill="black"/>
<path opacity="0.1" d="M316.775 190.271C317.069 190.445 317.396 190.562 317.737 190.612C317.98 190.671 318.228 190.71 318.478 190.728C319.115 190.697 319.735 190.525 320.291 190.226" fill="black"/>
</g>
<defs>
<linearGradient id="paint0_linear" x1="346.837" y1="402.299" x2="346.837" y2="170.245" gradientUnits="userSpaceOnUse">
<stop stop-color="#808080" stop-opacity="0.25"/>
<stop offset="0.54" stop-color="#808080" stop-opacity="0.12"/>
<stop offset="1" stop-color="#808080" stop-opacity="0.1"/>
</linearGradient>
<clipPath id="clip0">
<rect width="578" height="405" fill="white"/>
</clipPath>
</defs>
</svg>
