<svg width="507" height="330" viewBox="0 0 507 330" fill="none" xmlns="http://www.w3.org/2000/svg">
<g clip-path="url(#clip0)">
<path d="M65.7808 304.794L64.4833 300.108C62.1826 299.216 59.8287 298.443 57.4329 297.793L57.2691 299.97L56.6048 297.571C53.6336 296.794 51.6123 296.452 51.6123 296.452C51.6123 296.452 54.3426 305.958 60.0692 313.226L66.742 314.299L61.5581 314.983C62.2787 315.777 63.0532 316.528 63.8769 317.233C72.2075 324.313 81.4862 327.561 84.6015 324.488C87.7168 321.415 83.4889 313.185 75.1584 306.105C72.4495 303.91 69.3892 302.109 66.0841 300.763L65.7808 304.794Z" fill="#3D426C"/>
<path d="M78.121 299.706L79.6556 295.081C78.1901 293.228 76.6117 291.452 74.9277 289.762L73.5581 291.548L74.3438 289.18C72.2389 287.109 70.7017 285.859 70.7017 285.859C70.7017 285.859 67.6723 295.289 68.4716 304.221L73.5779 308.297L68.7539 306.43C68.9227 307.45 69.1615 308.46 69.4687 309.453C72.6031 319.456 78.7123 326.628 83.1139 325.472C87.5156 324.316 88.5429 315.269 85.4085 305.266C84.3287 302.105 82.7261 299.115 80.6566 296.398L78.121 299.706Z" fill="#3D426C"/>
<path d="M170.884 303.656L169.664 299.252C167.502 298.413 165.289 297.686 163.038 297.075L162.884 299.122L162.259 296.867C159.467 296.137 157.567 295.815 157.567 295.815C157.567 295.815 160.133 304.75 165.515 311.581L171.787 312.589L166.915 313.232C167.592 313.978 168.32 314.685 169.094 315.347C176.924 322.001 185.645 325.054 188.573 322.166C191.501 319.278 187.527 311.542 179.698 304.888C177.152 302.825 174.275 301.132 171.169 299.867L170.884 303.656Z" fill="#3D426C"/>
<path d="M182.482 298.874L183.925 294.526C182.547 292.785 181.064 291.116 179.481 289.527L178.194 291.206L178.932 288.98C176.954 287.034 175.509 285.859 175.509 285.859C175.509 285.859 172.662 294.722 173.413 303.117L178.212 306.948L173.678 305.193C173.837 306.152 174.061 307.101 174.35 308.035C177.296 317.437 183.038 324.177 187.175 323.091C191.312 322.004 192.278 313.502 189.332 304.1C188.317 301.129 186.811 298.318 184.865 295.765L182.482 298.874Z" fill="#3D426C"/>
<path d="M375.72 306.028L375.105 303.809C374.016 303.386 372.901 303.02 371.766 302.712L371.689 303.743L371.374 302.607C369.967 302.239 369.009 302.077 369.009 302.077C369.875 304.903 371.227 307.585 373.015 310.021L376.175 310.53L373.72 310.854C374.061 311.23 374.428 311.586 374.818 311.919C378.764 315.273 383.158 316.811 384.634 315.356C386.109 313.9 384.107 310.002 380.161 306.649C378.878 305.609 377.429 304.756 375.863 304.119L375.72 306.028Z" fill="#3D426C"/>
<path d="M381.564 303.618L382.291 301.428C381.597 300.55 380.85 299.709 380.052 298.908L379.403 299.754L379.775 298.633C378.778 297.652 378.05 297.06 378.05 297.06C377.196 299.889 376.839 302.825 376.994 305.756L379.413 307.687L377.128 306.803C377.208 307.286 377.321 307.764 377.466 308.235C378.951 312.972 381.844 316.369 383.929 315.822C386.014 315.274 386.5 310.989 385.016 306.252C384.505 304.755 383.746 303.338 382.765 302.052L381.564 303.618Z" fill="#3D426C"/>
<path d="M428.678 302.194L427.87 299.275C426.437 298.719 424.97 298.237 423.478 297.833L423.376 299.189L422.962 297.695C421.111 297.211 419.852 296.998 419.852 296.998C419.852 296.998 421.553 302.919 425.12 307.447L429.277 308.115L426.048 308.542C426.497 309.036 426.979 309.504 427.492 309.943C432.682 314.354 438.462 316.377 440.403 314.463C442.344 312.549 439.71 307.421 434.52 303.011C432.833 301.644 430.926 300.521 428.867 299.683L428.678 302.194Z" fill="#3D426C"/>
<path d="M436.366 299.024L437.322 296.143C436.409 294.989 435.426 293.882 434.377 292.829L433.523 293.942L434.013 292.467C432.702 291.177 431.744 290.398 431.744 290.398C431.744 290.398 429.857 296.273 430.355 301.837L433.536 304.376L430.531 303.213C430.636 303.849 430.784 304.478 430.976 305.097C432.928 311.328 436.734 315.796 439.476 315.076C442.218 314.356 442.858 308.72 440.906 302.488C440.233 300.519 439.235 298.656 437.946 296.964L436.366 299.024Z" fill="#E6E6E6"/>
<path d="M328.2 290.563L331.872 286.665C331.318 284.282 330.617 281.929 329.773 279.619L327.598 280.818L329.478 278.822C328.404 275.974 327.495 274.151 327.495 274.151C327.495 274.151 320.105 282.137 316.678 291.15L319.73 297.135L315.912 293.412C315.596 294.473 315.353 295.55 315.185 296.639C313.526 307.616 316.098 317.012 320.929 317.623C325.759 318.235 331.019 309.832 332.678 298.854C333.115 295.35 332.962 291.805 332.226 288.343L328.2 290.563Z" fill="#3D426C"/>
<path d="M340.585 297.312L345.929 295.713C346.8 293.411 347.528 291.066 348.11 288.688L345.571 288.685L348.308 287.867C348.996 284.921 349.247 282.93 349.247 282.93C349.247 282.93 338.412 286.269 330.39 292.362L329.624 298.93L328.458 293.936C327.588 294.695 326.772 295.502 326.013 296.354C318.396 304.967 315.293 314.226 319.083 317.036C322.873 319.846 332.12 315.142 339.737 306.529C342.09 303.736 343.961 300.63 345.285 297.318L340.585 297.312Z" fill="#3D426C"/>
<path d="M390.108 306.051L391.741 304.317C391.495 303.258 391.183 302.211 390.808 301.184L389.84 301.717L390.676 300.829C390.199 299.563 389.795 298.752 389.795 298.752C387.762 301.022 386.138 303.574 384.983 306.312L386.341 308.974L384.643 307.318C384.502 307.79 384.394 308.269 384.319 308.753C383.582 313.636 384.726 317.814 386.874 318.086C389.022 318.358 391.362 314.621 392.099 309.738C392.294 308.18 392.226 306.603 391.899 305.064L390.108 306.051Z" fill="#3D426C"/>
<path d="M395.616 309.053L397.993 308.342C398.38 307.318 398.704 306.275 398.963 305.217L397.834 305.216L399.051 304.852C399.357 303.542 399.469 302.656 399.469 302.656C396.448 303.638 393.616 305.054 391.082 306.851L390.741 309.772L390.223 307.551C389.836 307.889 389.473 308.248 389.135 308.627C385.748 312.457 384.368 316.575 386.053 317.825C387.739 319.075 391.851 316.982 395.239 313.152C396.285 311.91 397.118 310.528 397.706 309.055L395.616 309.053Z" fill="#3D426C"/>
<path d="M0.305542 330C0.305542 330 399.545 292.321 507 330H0.305542Z" fill="#7C7D82"/>
<path d="M507 100.107C506.218 44.625 475.304 0 437.278 0C414.427 0 394.142 16.1161 381.423 41.0192L396.378 75.3753L375.71 54.1992C370.496 68.5277 367.538 84.8866 367.538 102.261C367.495 115.43 369.266 128.552 372.809 141.316L412.889 135.4L377.02 153.763C388.705 183.095 410.063 203.128 434.681 204.45L429.937 322.625L444.619 323.105L441.481 204.331C476.537 201.275 504.618 160.253 506.868 108.914L482.642 96.5118L507 100.107Z" fill="#3D426C" fill-opacity="0.9"/>
<path d="M253.107 96.7402L272.4 99.8471L278.831 70.3337L263.29 64.1204L253.107 96.7402Z" fill="#2F2E41"/>
<path d="M276.306 101.46L295.599 104.567L302.029 75.0539L286.488 68.8406L276.306 101.46Z" fill="#2F2E41"/>
<path d="M299.29 291.39V303.661H309.085L308.054 291.862L299.29 291.39Z" fill="#A0616A"/>
<path d="M248.253 291.39V303.661H238.458L239.49 291.862L248.253 291.39Z" fill="#A0616A"/>
<path d="M251.862 177.637L244.03 221.343C242.036 232.471 240.832 243.706 240.425 254.977L238.974 295.165L249.285 294.221L257.017 248.437C257.017 248.437 277.123 180.469 284.34 194.157C291.558 207.845 295.166 251.269 295.166 251.269L298.259 293.749H309.601L310.632 238.053C310.632 238.053 316.818 160.173 301.353 153.565L251.862 177.637Z" fill="#2F2E41"/>
<path d="M310.116 301.773C310.116 301.773 298.775 294.693 297.744 300.357L293.62 314.045C293.62 314.045 287.433 324.901 300.837 324.901C314.241 324.901 310.116 316.877 310.116 316.877V301.773Z" fill="#2F2E41"/>
<path d="M237.428 301.773C237.428 301.773 248.769 294.693 249.8 300.357L253.924 314.045C253.924 314.045 260.111 324.901 246.707 324.901C233.303 324.901 237.428 316.877 237.428 316.877V301.773Z" fill="#2F2E41"/>
<path d="M280.474 90.5524C288.73 90.5524 295.424 84.4241 295.424 76.8644C295.424 69.3046 288.73 63.1763 280.474 63.1763C272.217 63.1763 265.523 69.3046 265.523 76.8644C265.523 84.4241 272.217 90.5524 280.474 90.5524Z" fill="#A0616A"/>
<path d="M270.937 82.7644C270.937 82.7644 272.483 95.9805 264.75 98.8125L277.638 112.973L294.651 102.117C294.651 102.117 282.278 99.7565 284.34 93.1485C286.402 86.5404 286.402 85.5964 286.402 85.5964L270.937 82.7644Z" fill="#A0616A"/>
<path d="M267.586 97.1604C267.586 97.1604 278.412 104.712 280.474 104.24C282.536 103.768 286.66 98.5764 286.66 98.5764C286.66 98.5764 301.868 98.8124 308.054 102.588C314.24 106.364 302.126 129.729 302.126 129.729C302.126 129.729 305.477 140.349 301.352 143.181C297.228 146.013 302.383 153.093 302.383 153.093C302.383 153.093 292.073 170.557 264.75 177.165C264.75 177.165 247.738 183.301 248.253 179.997C248.769 176.693 253.924 138.933 253.924 138.933V99.7564L267.586 97.1604Z" fill="#3D426C"/>
<path d="M267.577 60.5933C267.577 60.5933 259.77 62.9761 259.373 72.3861C259.333 73.8911 259.515 75.3942 259.915 76.8544C260.355 78.5602 260.637 82.2306 257.23 87.0271C254.949 90.1939 252.865 93.4761 250.988 96.8581L250.964 96.9028L259.538 97.8842L261.361 84.8711C262.245 78.562 264.139 72.4065 266.982 66.6025L267.041 66.4814C267.041 66.4814 270.792 72.86 278.295 72.86L275.616 70.4067C275.616 70.4067 287.406 74.8227 291.693 74.8227C291.693 74.8227 294.908 76.7854 291.693 79.7294C288.477 82.6734 282.047 89.5428 285.798 94.9402C289.549 100.338 286.334 101.81 286.334 101.81L292.229 98.8656L294.908 97.3936V99.3562L308.842 97.8842C308.842 97.8842 312.593 97.3935 304.555 89.0522C304.555 89.0522 302.432 85.8129 303.361 83.0191C304.124 80.8959 304.324 78.6369 303.946 76.4287C302.145 67.2302 295.079 48.9426 267.577 60.5933Z" fill="#2F2E41"/>
<path d="M208.94 178.817H349.248V250.02H331.426V269.601L312.226 250.02H208.94V178.817Z" fill="#22264C"/>
<path d="M231.946 203.59H326.241V199.733H231.946V203.59Z" fill="white"/>
<path d="M231.946 216.347H326.241V212.49H231.946V216.347Z" fill="white"/>
<path d="M231.946 229.104H326.241V225.248H231.946V229.104Z" fill="white"/>
<path d="M243.098 137.517L244.645 147.901L255.986 176.693C255.986 176.693 258.564 198.877 264.75 196.045C270.937 193.213 263.719 173.389 263.719 173.389L254.44 146.485L254.955 137.045L243.098 137.517Z" fill="#A0616A"/>
<path d="M260.111 100.7L255.461 99.3123L253.409 100.228C253.409 100.228 246.192 100.7 245.16 105.421C244.129 110.141 240.521 139.405 240.521 139.405L259.595 140.349L260.111 100.7Z" fill="#3D426C"/>
<path d="M311.921 137.517L310.374 147.901L299.033 176.693C299.033 176.693 296.455 198.877 290.269 196.045C284.082 193.213 291.3 173.389 291.3 173.389L300.579 146.485L300.064 137.045L311.921 137.517Z" fill="#A0616A"/>
<path d="M294.908 100.7L297.388 99.9601C298.78 99.5445 300.294 99.6406 301.61 100.228C301.61 100.228 308.828 100.7 309.859 105.42C310.89 110.14 314.498 139.405 314.498 139.405L295.424 140.349L294.908 100.7Z" fill="#3D426C"/>
<path d="M190.275 9.07056H0V105.632H24.1687V132.186L50.2053 105.632H190.275V9.07056Z" fill="#22264C"/>
<path d="M159.075 37.4355H31.1998V42.6659H159.075V37.4355Z" fill="white"/>
<path d="M159.075 54.7361H31.1998V59.9665H159.075V54.7361Z" fill="white"/>
<path d="M159.075 72.0364H31.1998V77.2667H159.075V72.0364Z" fill="white"/>
<path d="M20.5961 144.657C23.4371 144.657 25.7402 142.548 25.7402 139.947C25.7402 137.346 23.4371 135.237 20.5961 135.237C17.7551 135.237 15.452 137.346 15.452 139.947C15.452 142.548 17.7551 144.657 20.5961 144.657Z" fill="#FFD37E"/>
</g>
<defs>
<clipPath id="clip0">
<rect width="507" height="330" fill="white"/>
</clipPath>
</defs>
</svg>
